<svg width="23" height="23" viewBox="0 0 23 23" fill="none" xmlns="http://www.w3.org/2000/svg">
<path fill-rule="evenodd" clip-rule="evenodd" d="M12.75 6.5C12.9489 6.5 13.1397 6.57902 13.2803 6.71967C13.421 6.86032 13.5 7.05109 13.5 7.25V10.25C13.5 10.4489 13.421 10.6397 13.2803 10.7803C13.1397 10.921 12.9489 11 12.75 11H9.75C9.55109 11 9.36032 10.921 9.21967 10.7803C9.07902 10.6397 9 10.4489 9 10.25C9 10.0511 9.07902 9.86032 9.21967 9.71967C9.36032 9.57902 9.55109 9.5 9.75 9.5H12V7.25C12 7.05109 12.079 6.86032 12.2197 6.71967C12.3603 6.57902 12.5511 6.5 12.75 6.5Z" fill="white"/>
<path fill-rule="evenodd" clip-rule="evenodd" d="M12 10.25C12 10.0511 12.079 9.86032 12.2197 9.71967C12.3603 9.57902 12.5511 9.5 12.75 9.5H15.75C15.9489 9.5 16.1397 9.57902 16.2803 9.71967C16.421 9.86032 16.5 10.0511 16.5 10.25C16.5 10.4489 16.421 10.6397 16.2803 10.7803C16.1397 10.921 15.9489 11 15.75 11H13.5V13.25C13.5 13.4489 13.421 13.6397 13.2803 13.7803C13.1397 13.921 12.9489 14 12.75 14C12.5511 14 12.3603 13.921 12.2197 13.7803C12.079 13.6397 12 13.4489 12 13.25V10.25Z" fill="white"/>
<path fill-rule="evenodd" clip-rule="evenodd" d="M0 1.25C0 1.05109 0.0790176 0.860322 0.21967 0.71967C0.360322 0.579018 0.551088 0.5 0.75 0.5H3C3.1673 0.500046 3.32978 0.556026 3.4616 0.659037C3.59342 0.762048 3.68701 0.906176 3.7275 1.0685L4.335 3.5H21.75C21.8601 3.5001 21.9689 3.52445 22.0685 3.57133C22.1682 3.6182 22.2563 3.68644 22.3266 3.77121C22.3969 3.85597 22.4477 3.95518 22.4753 4.06178C22.5029 4.16838 22.5068 4.27976 22.4865 4.388L20.2365 16.388C20.2043 16.5599 20.1131 16.7151 19.9786 16.8268C19.8442 16.9386 19.6749 16.9998 19.5 17H6C5.82515 16.9998 5.65585 16.9386 5.52137 16.8268C5.38688 16.7151 5.29567 16.5599 5.2635 16.388L3.015 4.4105L2.415 2H0.75C0.551088 2 0.360322 1.92098 0.21967 1.78033C0.0790176 1.63968 0 1.44891 0 1.25ZM4.653 5L6.6225 15.5H18.8775L20.847 5H4.653ZM7.5 17C6.70435 17 5.94129 17.3161 5.37868 17.8787C4.81607 18.4413 4.5 19.2044 4.5 20C4.5 20.7956 4.81607 21.5587 5.37868 22.1213C5.94129 22.6839 6.70435 23 7.5 23C8.29565 23 9.05871 22.6839 9.62132 22.1213C10.1839 21.5587 10.5 20.7956 10.5 20C10.5 19.2044 10.1839 18.4413 9.62132 17.8787C9.05871 17.3161 8.29565 17 7.5 17ZM18 17C17.2044 17 16.4413 17.3161 15.8787 17.8787C15.3161 18.4413 15 19.2044 15 20C15 20.7956 15.3161 21.5587 15.8787 22.1213C16.4413 22.6839 17.2044 23 18 23C18.7957 23 19.5587 22.6839 20.1213 22.1213C20.6839 21.5587 21 20.7956 21 20C21 19.2044 20.6839 18.4413 20.1213 17.8787C19.5587 17.3161 18.7957 17 18 17ZM7.5 18.5C7.10218 18.5 6.72065 18.658 6.43934 18.9393C6.15804 19.2206 6 19.6022 6 20C6 20.3978 6.15804 20.7794 6.43934 21.0607C6.72065 21.342 7.10218 21.5 7.5 21.5C7.89783 21.5 8.27936 21.342 8.56066 21.0607C8.84196 20.7794 9 20.3978 9 20C9 19.6022 8.84196 19.2206 8.56066 18.9393C8.27936 18.658 7.89783 18.5 7.5 18.5ZM18 18.5C17.6022 18.5 17.2206 18.658 16.9393 18.9393C16.658 19.2206 16.5 19.6022 16.5 20C16.5 20.3978 16.658 20.7794 16.9393 21.0607C17.2206 21.342 17.6022 21.5 18 21.5C18.3978 21.5 18.7794 21.342 19.0607 21.0607C19.342 20.7794 19.5 20.3978 19.5 20C19.5 19.6022 19.342 19.2206 19.0607 18.9393C18.7794 18.658 18.3978 18.5 18 18.5Z" fill="white"/>
</svg>
