<svg width="114" height="40" viewBox="0 0 114 40" fill="none" xmlns="http://www.w3.org/2000/svg">
<rect x="1" y="1" width="112" height="38" rx="5" fill="white" stroke="white"/>
<path d="M20.5077 31.7647C17.1193 31.7452 14.3164 24.8282 14.3164 21.3055C14.3164 15.5513 18.6331 14.2915 20.2967 14.2915C21.0464 14.2915 21.847 14.5859 22.5531 14.8465C23.0468 15.0282 23.5575 15.2158 23.8415 15.2158C24.0115 15.2158 24.4121 15.0562 24.7658 14.9162C25.5201 14.6159 26.4587 14.2427 27.5518 14.2427C27.5537 14.2427 27.5563 14.2427 27.5582 14.2427C28.3744 14.2427 30.849 14.4218 32.3368 16.656L32.6853 17.1797L32.1837 17.5582C31.4672 18.0988 30.1599 19.085 30.1599 21.0385C30.1599 23.3522 31.6405 24.242 32.3518 24.6699C32.6657 24.8588 32.9908 25.0536 32.9908 25.4796C32.9908 25.7578 30.7708 31.7302 27.5472 31.7302C26.7584 31.7302 26.2008 31.4931 25.709 31.284C25.2113 31.0723 24.7821 30.89 24.0727 30.89C23.7131 30.89 23.2585 31.06 22.7771 31.2404C22.1193 31.4859 21.3747 31.7647 20.5299 31.7647H20.5077Z" fill="#272C30"/>
<path d="M27.8929 8.99756C27.9769 12.0247 25.812 14.1248 23.6496 13.9931C23.2933 11.5773 25.8117 8.99756 27.8929 8.99756Z" fill="#272C30"/>
<path d="M45.288 11.272H46.056L48.232 17H47.488L46.912 15.424H44.44L43.864 17H43.12L45.288 11.272ZM46.68 14.784L45.92 12.72L45.688 12.104H45.656L45.432 12.72L44.672 14.784H46.68ZM48.0091 12.92H48.7371L50.0011 16.2H50.0171L51.2971 12.92H52.0091L50.3451 17H49.6571L48.0091 12.92ZM53.7924 17.128C53.4937 17.128 53.227 17.0693 52.9924 16.952C52.7577 16.8347 52.5764 16.6747 52.4484 16.472C52.3204 16.264 52.2564 16.0293 52.2564 15.768C52.2564 15.336 52.419 15 52.7444 14.76C53.0697 14.5147 53.4804 14.392 53.9764 14.392C54.2217 14.392 54.4484 14.4187 54.6564 14.472C54.8697 14.5253 55.0324 14.5867 55.1444 14.656V14.408C55.1444 14.104 55.0377 13.8613 54.8244 13.68C54.611 13.4933 54.3417 13.4 54.0164 13.4C53.787 13.4 53.5764 13.4507 53.3844 13.552C53.1924 13.648 53.0404 13.784 52.9284 13.96L52.4164 13.576C52.5764 13.3307 52.795 13.1387 53.0724 13C53.355 12.8613 53.667 12.792 54.0084 12.792C54.563 12.792 54.9977 12.9387 55.3124 13.232C55.6324 13.52 55.7924 13.9147 55.7924 14.416V17H55.1444V16.416H55.1124C54.995 16.6133 54.819 16.7813 54.5844 16.92C54.3497 17.0587 54.0857 17.128 53.7924 17.128ZM53.8564 16.528C54.0857 16.528 54.299 16.4693 54.4964 16.352C54.6937 16.2347 54.851 16.0773 54.9684 15.88C55.0857 15.6827 55.1444 15.4667 55.1444 15.232C55.0164 15.1467 54.859 15.0773 54.6724 15.024C54.4857 14.9707 54.2884 14.944 54.0804 14.944C53.707 14.944 53.4244 15.0213 53.2324 15.176C53.0457 15.3307 52.9524 15.5307 52.9524 15.776C52.9524 16 53.0377 16.1813 53.2084 16.32C53.379 16.4587 53.595 16.528 53.8564 16.528ZM57.1384 12.168C57.005 12.168 56.8904 12.12 56.7944 12.024C56.6984 11.928 56.6504 11.8133 56.6504 11.68C56.6504 11.5467 56.6984 11.4347 56.7944 11.344C56.8904 11.248 57.005 11.2 57.1384 11.2C57.2717 11.2 57.3864 11.248 57.4824 11.344C57.5784 11.4347 57.6264 11.5467 57.6264 11.68C57.6264 11.8133 57.5784 11.928 57.4824 12.024C57.3917 12.12 57.277 12.168 57.1384 12.168ZM56.8024 12.92H57.4744V17H56.8024V12.92ZM58.5431 11.272H59.2231V17H58.5431V11.272ZM61.4955 17.128C61.1968 17.128 60.9302 17.0693 60.6955 16.952C60.4608 16.8347 60.2795 16.6747 60.1515 16.472C60.0235 16.264 59.9595 16.0293 59.9595 15.768C59.9595 15.336 60.1222 15 60.4475 14.76C60.7728 14.5147 61.1835 14.392 61.6795 14.392C61.9248 14.392 62.1515 14.4187 62.3595 14.472C62.5728 14.5253 62.7355 14.5867 62.8475 14.656V14.408C62.8475 14.104 62.7408 13.8613 62.5275 13.68C62.3142 13.4933 62.0448 13.4 61.7195 13.4C61.4902 13.4 61.2795 13.4507 61.0875 13.552C60.8955 13.648 60.7435 13.784 60.6315 13.96L60.1195 13.576C60.2795 13.3307 60.4982 13.1387 60.7755 13C61.0582 12.8613 61.3702 12.792 61.7115 12.792C62.2662 12.792 62.7008 12.9387 63.0155 13.232C63.3355 13.52 63.4955 13.9147 63.4955 14.416V17H62.8475V16.416H62.8155C62.6982 16.6133 62.5222 16.7813 62.2875 16.92C62.0528 17.0587 61.7888 17.128 61.4955 17.128ZM61.5595 16.528C61.7888 16.528 62.0022 16.4693 62.1995 16.352C62.3968 16.2347 62.5542 16.0773 62.6715 15.88C62.7888 15.6827 62.8475 15.4667 62.8475 15.232C62.7195 15.1467 62.5622 15.0773 62.3755 15.024C62.1888 14.9707 61.9915 14.944 61.7835 14.944C61.4102 14.944 61.1275 15.0213 60.9355 15.176C60.7488 15.3307 60.6555 15.5307 60.6555 15.776C60.6555 16 60.7408 16.1813 60.9115 16.32C61.0822 16.4587 61.2982 16.528 61.5595 16.528ZM66.5135 17.128C66.2042 17.128 65.9242 17.0587 65.6735 16.92C65.4282 16.776 65.2442 16.6027 65.1215 16.4H65.0895V17H64.4415V11.272H65.1215V12.96L65.0895 13.528H65.1215C65.2442 13.32 65.4282 13.1467 65.6735 13.008C65.9242 12.864 66.2042 12.792 66.5135 12.792C66.8762 12.792 67.2068 12.8853 67.5055 13.072C67.8042 13.2587 68.0388 13.5173 68.2095 13.848C68.3802 14.1787 68.4655 14.5493 68.4655 14.96C68.4655 15.376 68.3802 15.7493 68.2095 16.08C68.0388 16.4053 67.8042 16.6613 67.5055 16.848C67.2068 17.0347 66.8762 17.128 66.5135 17.128ZM66.4335 16.512C66.6682 16.512 66.8895 16.448 67.0975 16.32C67.3055 16.192 67.4708 16.0107 67.5935 15.776C67.7215 15.536 67.7855 15.264 67.7855 14.96C67.7855 14.656 67.7215 14.3867 67.5935 14.152C67.4708 13.912 67.3055 13.728 67.0975 13.6C66.8895 13.472 66.6682 13.408 66.4335 13.408C66.1988 13.408 65.9775 13.472 65.7695 13.6C65.5615 13.728 65.3962 13.9093 65.2735 14.144C65.1508 14.3787 65.0895 14.6507 65.0895 14.96C65.0895 15.2693 65.1508 15.5413 65.2735 15.776C65.3962 16.0107 65.5615 16.192 65.7695 16.32C65.9775 16.448 66.1988 16.512 66.4335 16.512ZM69.2149 11.272H69.8949V17H69.2149V11.272ZM72.6794 17.128C72.29 17.128 71.9407 17.0347 71.6314 16.848C71.322 16.6613 71.0794 16.4053 70.9034 16.08C70.7327 15.7493 70.6474 15.3787 70.6474 14.968C70.6474 14.5733 70.7274 14.2107 70.8874 13.88C71.0527 13.5493 71.2847 13.2853 71.5834 13.088C71.882 12.8907 72.2287 12.792 72.6234 12.792C73.0234 12.792 73.37 12.8827 73.6634 13.064C73.9567 13.24 74.1807 13.4853 74.3354 13.8C74.4954 14.1147 74.5754 14.4747 74.5754 14.88C74.5754 14.96 74.5674 15.0293 74.5514 15.088H71.3274C71.3434 15.3973 71.418 15.6587 71.5514 15.872C71.6847 16.0853 71.8527 16.2453 72.0554 16.352C72.2634 16.4587 72.4794 16.512 72.7034 16.512C73.226 16.512 73.6287 16.2667 73.9114 15.776L74.4874 16.056C74.3114 16.3867 74.0714 16.648 73.7674 16.84C73.4687 17.032 73.106 17.128 72.6794 17.128ZM73.8554 14.528C73.8447 14.3573 73.7967 14.1867 73.7114 14.016C73.626 13.8453 73.49 13.7013 73.3034 13.584C73.122 13.4667 72.8927 13.408 72.6154 13.408C72.2954 13.408 72.0234 13.512 71.7994 13.72C71.5807 13.9227 71.4367 14.192 71.3674 14.528H73.8554ZM79.1106 17.128C78.7106 17.128 78.3506 17.032 78.0306 16.84C77.7106 16.648 77.4599 16.3867 77.2786 16.056C77.1026 15.7253 77.0146 15.36 77.0146 14.96C77.0146 14.56 77.1026 14.1947 77.2786 13.864C77.4599 13.5333 77.7106 13.272 78.0306 13.08C78.3506 12.888 78.7106 12.792 79.1106 12.792C79.5106 12.792 79.8706 12.888 80.1906 13.08C80.5106 13.272 80.7586 13.5333 80.9346 13.864C81.1159 14.1947 81.2066 14.56 81.2066 14.96C81.2066 15.36 81.1159 15.7253 80.9346 16.056C80.7586 16.3867 80.5106 16.648 80.1906 16.84C79.8706 17.032 79.5106 17.128 79.1106 17.128ZM79.1106 16.512C79.3612 16.512 79.5932 16.4507 79.8066 16.328C80.0252 16.2 80.1986 16.0187 80.3266 15.784C80.4599 15.5493 80.5266 15.2747 80.5266 14.96C80.5266 14.6453 80.4599 14.3707 80.3266 14.136C80.1986 13.9013 80.0252 13.7227 79.8066 13.6C79.5932 13.472 79.3612 13.408 79.1106 13.408C78.8599 13.408 78.6252 13.472 78.4066 13.6C78.1879 13.7227 78.0119 13.9013 77.8786 14.136C77.7506 14.3707 77.6866 14.6453 77.6866 14.96C77.6866 15.2747 77.7506 15.5493 77.8786 15.784C78.0119 16.0187 78.1879 16.2 78.4066 16.328C78.6252 16.4507 78.8599 16.512 79.1106 16.512ZM81.9181 12.92H82.5661V13.52H82.5981C82.7101 13.3173 82.8887 13.1467 83.1341 13.008C83.3794 12.864 83.6407 12.792 83.9181 12.792C84.4087 12.792 84.7821 12.936 85.0381 13.224C85.2994 13.5067 85.4301 13.8933 85.4301 14.384V17H84.7501V14.488C84.7501 14.1093 84.6594 13.8347 84.4781 13.664C84.2967 13.4933 84.0487 13.408 83.7341 13.408C83.5154 13.408 83.3181 13.4693 83.1421 13.592C82.9714 13.7147 82.8381 13.8773 82.7421 14.08C82.6461 14.2773 82.5981 14.4853 82.5981 14.704V17H81.9181V12.92ZM89.8298 17.064C89.6645 17.064 89.5098 17.0373 89.3658 16.984C89.2271 16.9307 89.1098 16.8587 89.0138 16.768C88.9071 16.6667 88.8271 16.5493 88.7738 16.416C88.7205 16.2827 88.6938 16.12 88.6938 15.928V13.536H87.9818V12.92H88.6938V11.768H89.3738V12.92H90.3658V13.536H89.3738V15.76C89.3738 15.984 89.4165 16.1493 89.5018 16.256C89.6031 16.3733 89.7498 16.432 89.9418 16.432C90.0965 16.432 90.2458 16.3867 90.3898 16.296V16.96C90.3098 16.9973 90.2271 17.024 90.1418 17.04C90.0618 17.056 89.9578 17.064 89.8298 17.064ZM91.2306 11.272H91.9106V12.96L91.8786 13.52H91.9106C92.0226 13.312 92.1986 13.1387 92.4386 13C92.6839 12.8613 92.9506 12.792 93.2386 12.792C93.7346 12.792 94.1132 12.9387 94.3746 13.232C94.6359 13.52 94.7666 13.904 94.7666 14.384V17H94.0866V14.488C94.0866 14.12 93.9932 13.848 93.8066 13.672C93.6199 13.496 93.3772 13.408 93.0786 13.408C92.8652 13.408 92.6679 13.472 92.4866 13.6C92.3106 13.728 92.1692 13.8933 92.0626 14.096C91.9612 14.2987 91.9106 14.5093 91.9106 14.728V17H91.2306V11.272ZM97.5622 17.128C97.1729 17.128 96.8235 17.0347 96.5142 16.848C96.2049 16.6613 95.9622 16.4053 95.7862 16.08C95.6155 15.7493 95.5302 15.3787 95.5302 14.968C95.5302 14.5733 95.6102 14.2107 95.7702 13.88C95.9355 13.5493 96.1675 13.2853 96.4662 13.088C96.7649 12.8907 97.1115 12.792 97.5062 12.792C97.9062 12.792 98.2529 12.8827 98.5462 13.064C98.8395 13.24 99.0635 13.4853 99.2182 13.8C99.3782 14.1147 99.4582 14.4747 99.4582 14.88C99.4582 14.96 99.4502 15.0293 99.4342 15.088H96.2102C96.2262 15.3973 96.3009 15.6587 96.4342 15.872C96.5675 16.0853 96.7355 16.2453 96.9382 16.352C97.1462 16.4587 97.3622 16.512 97.5862 16.512C98.1089 16.512 98.5115 16.2667 98.7942 15.776L99.3702 16.056C99.1942 16.3867 98.9542 16.648 98.6502 16.84C98.3515 17.032 97.9889 17.128 97.5622 17.128ZM98.7382 14.528C98.7275 14.3573 98.6795 14.1867 98.5942 14.016C98.5089 13.8453 98.3729 13.7013 98.1862 13.584C98.0049 13.4667 97.7755 13.408 97.4982 13.408C97.1782 13.408 96.9062 13.512 96.6822 13.72C96.4635 13.9227 96.3195 14.192 96.2502 14.528H98.7382Z" fill="black" fill-opacity="0.8"/>
<path d="M45.83 21.84H47.38L50.07 29H48.58L47.98 27.29H45.24L44.64 29H43.15L45.83 21.84ZM47.54 26.05L46.91 24.25L46.65 23.39H46.57L46.31 24.25L45.67 26.05H47.54ZM50.8656 23.9H52.0956V24.52H52.1756C52.3156 24.3 52.519 24.1167 52.7856 23.97C53.0523 23.8167 53.359 23.74 53.7056 23.74C54.1656 23.74 54.5823 23.8567 54.9556 24.09C55.3356 24.3167 55.6323 24.6367 55.8456 25.05C56.059 25.4633 56.1656 25.93 56.1656 26.45C56.1656 26.9767 56.059 27.4467 55.8456 27.86C55.6323 28.2667 55.3356 28.5867 54.9556 28.82C54.5823 29.0467 54.1656 29.16 53.7056 29.16C53.359 29.16 53.049 29.0867 52.7756 28.94C52.509 28.7933 52.309 28.61 52.1756 28.39H52.0956L52.1756 29.11V31.16H50.8656V23.9ZM53.4756 27.95C53.7223 27.95 53.9523 27.8867 54.1656 27.76C54.379 27.6333 54.549 27.4567 54.6756 27.23C54.8023 27.0033 54.8656 26.7433 54.8656 26.45C54.8656 26.1567 54.8023 25.8967 54.6756 25.67C54.549 25.4433 54.379 25.27 54.1656 25.15C53.9523 25.0233 53.7223 24.96 53.4756 24.96C53.2356 24.96 53.009 25.0233 52.7956 25.15C52.5823 25.27 52.4123 25.4433 52.2856 25.67C52.159 25.8967 52.0956 26.1567 52.0956 26.45C52.0956 26.7433 52.159 27.0033 52.2856 27.23C52.4123 27.4567 52.5823 27.6333 52.7956 27.76C53.009 27.8867 53.2356 27.95 53.4756 27.95ZM57.0375 23.9H58.2675V24.52H58.3475C58.4875 24.3 58.6908 24.1167 58.9575 23.97C59.2242 23.8167 59.5308 23.74 59.8775 23.74C60.3375 23.74 60.7542 23.8567 61.1275 24.09C61.5075 24.3167 61.8042 24.6367 62.0175 25.05C62.2308 25.4633 62.3375 25.93 62.3375 26.45C62.3375 26.9767 62.2308 27.4467 62.0175 27.86C61.8042 28.2667 61.5075 28.5867 61.1275 28.82C60.7542 29.0467 60.3375 29.16 59.8775 29.16C59.5308 29.16 59.2208 29.0867 58.9475 28.94C58.6808 28.7933 58.4808 28.61 58.3475 28.39H58.2675L58.3475 29.11V31.16H57.0375V23.9ZM59.6475 27.95C59.8942 27.95 60.1242 27.8867 60.3375 27.76C60.5508 27.6333 60.7208 27.4567 60.8475 27.23C60.9742 27.0033 61.0375 26.7433 61.0375 26.45C61.0375 26.1567 60.9742 25.8967 60.8475 25.67C60.7208 25.4433 60.5508 25.27 60.3375 25.15C60.1242 25.0233 59.8942 24.96 59.6475 24.96C59.4075 24.96 59.1808 25.0233 58.9675 25.15C58.7542 25.27 58.5842 25.4433 58.4575 25.67C58.3308 25.8967 58.2675 26.1567 58.2675 26.45C58.2675 26.7433 58.3308 27.0033 58.4575 27.23C58.5842 27.4567 58.7542 27.6333 58.9675 27.76C59.1808 27.8867 59.4075 27.95 59.6475 27.95ZM67.728 29.16C67.1014 29.16 66.548 28.9833 66.068 28.63C65.588 28.2767 65.2514 27.7767 65.058 27.13L66.328 26.63C66.428 27.01 66.598 27.3133 66.838 27.54C67.078 27.7667 67.378 27.88 67.738 27.88C68.038 27.88 68.2947 27.8067 68.508 27.66C68.7214 27.5067 68.828 27.2967 68.828 27.03C68.828 26.7633 68.7247 26.5467 68.518 26.38C68.318 26.2067 67.958 26.0233 67.438 25.83L66.998 25.67C66.538 25.51 66.1447 25.2667 65.818 24.94C65.4914 24.6067 65.328 24.19 65.328 23.69C65.328 23.3167 65.4247 22.9767 65.618 22.67C65.8114 22.3633 66.0847 22.1233 66.438 21.95C66.7914 21.77 67.1914 21.68 67.638 21.68C68.2847 21.68 68.7947 21.8333 69.168 22.14C69.5414 22.44 69.798 22.7933 69.938 23.2L68.748 23.7C68.6747 23.48 68.5447 23.2967 68.358 23.15C68.178 22.9967 67.9447 22.92 67.658 22.92C67.3647 22.92 67.1214 22.99 66.928 23.13C66.7414 23.2633 66.648 23.44 66.648 23.66C66.648 23.8733 66.738 24.0567 66.918 24.21C67.098 24.3567 67.3947 24.5 67.808 24.64L68.258 24.79C68.878 25.0033 69.3514 25.2867 69.678 25.64C70.0114 25.9867 70.178 26.4433 70.178 27.01C70.178 27.4767 70.058 27.8733 69.818 28.2C69.578 28.52 69.268 28.76 68.888 28.92C68.5147 29.08 68.128 29.16 67.728 29.16ZM73.2428 29.08C72.9895 29.08 72.7561 29.0433 72.5428 28.97C72.3295 28.89 72.1561 28.7833 72.0228 28.65C71.7095 28.35 71.5528 27.9233 71.5528 27.37V25.02H70.6628V23.9H71.5528V22.46H72.8628V23.9H74.1128V25.02H72.8628V27.13C72.8628 27.39 72.9195 27.5767 73.0328 27.69C73.1261 27.7967 73.2861 27.85 73.5128 27.85C73.6395 27.85 73.7428 27.8333 73.8228 27.8C73.9095 27.7667 74.0195 27.71 74.1528 27.63V28.91C73.8661 29.0233 73.5628 29.08 73.2428 29.08ZM77.4667 29.16C76.9401 29.16 76.4701 29.0433 76.0567 28.81C75.6434 28.57 75.3201 28.2467 75.0867 27.84C74.8601 27.4267 74.7467 26.9633 74.7467 26.45C74.7467 25.9433 74.8601 25.4833 75.0867 25.07C75.3201 24.6567 75.6434 24.3333 76.0567 24.1C76.4701 23.86 76.9401 23.74 77.4667 23.74C77.9867 23.74 78.4534 23.86 78.8667 24.1C79.2801 24.3333 79.6001 24.6567 79.8267 25.07C80.0601 25.4833 80.1767 25.9433 80.1767 26.45C80.1767 26.9633 80.0601 27.4267 79.8267 27.84C79.6001 28.2467 79.2801 28.57 78.8667 28.81C78.4534 29.0433 77.9867 29.16 77.4667 29.16ZM77.4667 27.95C77.7201 27.95 77.9534 27.89 78.1667 27.77C78.3801 27.65 78.5501 27.4767 78.6767 27.25C78.8034 27.0233 78.8667 26.7567 78.8667 26.45C78.8667 26.15 78.8034 25.8867 78.6767 25.66C78.5501 25.4333 78.3801 25.26 78.1667 25.14C77.9534 25.02 77.7201 24.96 77.4667 24.96C77.2134 24.96 76.9801 25.02 76.7667 25.14C76.5534 25.26 76.3801 25.4333 76.2467 25.66C76.1201 25.8867 76.0567 26.15 76.0567 26.45C76.0567 26.75 76.1201 27.0167 76.2467 27.25C76.3801 27.4767 76.5534 27.65 76.7667 27.77C76.9801 27.89 77.2134 27.95 77.4667 27.95ZM81.0814 23.9H82.3114V24.58H82.3914C82.5181 24.34 82.7147 24.1433 82.9814 23.99C83.2481 23.83 83.5414 23.75 83.8614 23.75C84.0947 23.75 84.3081 23.7867 84.5014 23.86V25.17C84.3214 25.1033 84.1681 25.0567 84.0414 25.03C83.9214 24.9967 83.7914 24.98 83.6514 24.98C83.2647 24.98 82.9581 25.12 82.7314 25.4C82.5047 25.68 82.3914 26.0333 82.3914 26.46V29H81.0814V23.9ZM87.4363 29.16C86.9296 29.16 86.4729 29.0433 86.0663 28.81C85.6596 28.5767 85.3396 28.2567 85.1063 27.85C84.8796 27.4367 84.7663 26.9733 84.7663 26.46C84.7663 25.9733 84.8796 25.5233 85.1063 25.11C85.3329 24.69 85.6463 24.3567 86.0463 24.11C86.4463 23.8633 86.8929 23.74 87.3863 23.74C87.9129 23.74 88.3663 23.8533 88.7463 24.08C89.1263 24.3067 89.4129 24.6167 89.6063 25.01C89.8063 25.4033 89.9063 25.84 89.9063 26.32C89.9063 26.4733 89.8963 26.62 89.8763 26.76H86.0463C86.1129 27.1667 86.2729 27.4767 86.5263 27.69C86.7863 27.8967 87.0963 28 87.4563 28C87.7563 28 88.0129 27.9367 88.2263 27.81C88.4463 27.6767 88.6196 27.5 88.7463 27.28L89.8063 27.8C89.2863 28.7067 88.4963 29.16 87.4363 29.16ZM88.6463 25.83C88.6329 25.67 88.5729 25.5133 88.4663 25.36C88.3663 25.2 88.2229 25.07 88.0363 24.97C87.8563 24.8633 87.6429 24.81 87.3963 24.81C87.0829 24.81 86.8129 24.9033 86.5863 25.09C86.3663 25.27 86.2063 25.5167 86.1063 25.83H88.6463Z" fill="black" fill-opacity="0.8"/>
</svg>
