<svg width="114" height="40" viewBox="0 0 114 40" fill="none" xmlns="http://www.w3.org/2000/svg">
<rect x="1" y="1" width="112" height="38" rx="5" fill="white" stroke="white"/>
<path d="M46.732 14.84L45.94 12.736C45.876 12.5733 45.8107 12.3667 45.744 12.116C45.7147 12.2413 45.6827 12.3573 45.648 12.464C45.6133 12.568 45.5813 12.66 45.552 12.74L44.76 14.84H46.732ZM48.504 17H47.78C47.6973 17 47.6307 16.98 47.58 16.94C47.5293 16.8973 47.4907 16.8453 47.464 16.784L46.984 15.512H44.504L44.024 16.784C44.0027 16.8373 43.9653 16.8867 43.912 16.932C43.8587 16.9773 43.792 17 43.712 17H42.988L45.272 11.24H46.22L48.504 17ZM52.2801 12.92L50.6401 17H49.8641L48.2241 12.92H48.9321C48.9987 12.92 49.0534 12.9373 49.0961 12.972C49.1414 13.004 49.1707 13.0427 49.1841 13.088L50.0881 15.464C50.1254 15.576 50.1587 15.6867 50.1881 15.796C50.2174 15.9053 50.2427 16.016 50.2641 16.128C50.2854 16.016 50.3107 15.9067 50.3401 15.8C50.3721 15.6907 50.4067 15.5787 50.4441 15.464L51.3641 13.088C51.3801 13.04 51.4094 13 51.4521 12.968C51.4947 12.936 51.5467 12.92 51.6081 12.92H52.2801ZM54.954 15.216C54.6473 15.2267 54.3887 15.252 54.178 15.292C53.9673 15.3293 53.7967 15.3787 53.666 15.44C53.5353 15.4987 53.4407 15.5693 53.382 15.652C53.326 15.7347 53.298 15.8253 53.298 15.924C53.298 16.02 53.3127 16.1027 53.342 16.172C53.374 16.2387 53.4167 16.2947 53.47 16.34C53.526 16.3827 53.59 16.4147 53.662 16.436C53.7367 16.4547 53.818 16.464 53.906 16.464C54.13 16.464 54.322 16.4227 54.482 16.34C54.6447 16.2547 54.802 16.132 54.954 15.972V15.216ZM52.674 13.488C53.1353 13.0587 53.6847 12.844 54.322 12.844C54.5567 12.844 54.7647 12.8827 54.946 12.96C55.13 13.0347 55.2833 13.1413 55.406 13.28C55.5313 13.4187 55.626 13.584 55.69 13.776C55.7567 13.9653 55.79 14.176 55.79 14.408V17H55.406C55.3233 17 55.2607 16.988 55.218 16.964C55.1753 16.9373 55.1393 16.8853 55.11 16.808L55.026 16.476C54.922 16.5693 54.8193 16.6533 54.718 16.728C54.6167 16.8 54.5113 16.8613 54.402 16.912C54.2953 16.9627 54.1793 17 54.054 17.024C53.9313 17.0507 53.7953 17.064 53.646 17.064C53.4807 17.064 53.326 17.0413 53.182 16.996C53.0407 16.9507 52.918 16.8827 52.814 16.792C52.71 16.6987 52.6273 16.584 52.566 16.448C52.5073 16.312 52.478 16.152 52.478 15.968C52.478 15.8107 52.5193 15.6573 52.602 15.508C52.6873 15.3587 52.826 15.2253 53.018 15.108C53.2127 14.988 53.4673 14.8893 53.782 14.812C54.0993 14.7347 54.49 14.6907 54.954 14.68V14.408C54.954 14.1147 54.8913 13.896 54.766 13.752C54.6407 13.608 54.4567 13.536 54.214 13.536C54.0487 13.536 53.91 13.5573 53.798 13.6C53.686 13.64 53.5887 13.684 53.506 13.732C53.4233 13.78 53.35 13.8253 53.286 13.868C53.222 13.908 53.154 13.928 53.082 13.928C53.0233 13.928 52.9727 13.9133 52.93 13.884C52.89 13.852 52.8567 13.8133 52.83 13.768L52.674 13.488ZM57.6934 12.92V17H56.8334V12.92H57.6934ZM57.8374 11.688C57.8374 11.7653 57.8214 11.8387 57.7894 11.908C57.7601 11.9773 57.7188 12.0387 57.6654 12.092C57.6121 12.1427 57.5494 12.184 57.4774 12.216C57.4081 12.2453 57.3334 12.26 57.2534 12.26C57.1761 12.26 57.1028 12.2453 57.0334 12.216C56.9668 12.184 56.9081 12.1427 56.8574 12.092C56.8068 12.0387 56.7654 11.9773 56.7334 11.908C56.7041 11.8387 56.6894 11.7653 56.6894 11.688C56.6894 11.608 56.7041 11.5333 56.7334 11.464C56.7654 11.3947 56.8068 11.3347 56.8574 11.284C56.9081 11.2307 56.9668 11.1893 57.0334 11.16C57.1028 11.128 57.1761 11.112 57.2534 11.112C57.3334 11.112 57.4081 11.128 57.4774 11.16C57.5494 11.1893 57.6121 11.2307 57.6654 11.284C57.7188 11.3347 57.7601 11.3947 57.7894 11.464C57.8214 11.5333 57.8374 11.608 57.8374 11.688ZM59.65 11.08V17H58.79V11.08H59.65ZM62.8915 15.216C62.5848 15.2267 62.3262 15.252 62.1155 15.292C61.9048 15.3293 61.7342 15.3787 61.6035 15.44C61.4728 15.4987 61.3782 15.5693 61.3195 15.652C61.2635 15.7347 61.2355 15.8253 61.2355 15.924C61.2355 16.02 61.2502 16.1027 61.2795 16.172C61.3115 16.2387 61.3542 16.2947 61.4075 16.34C61.4635 16.3827 61.5275 16.4147 61.5995 16.436C61.6742 16.4547 61.7555 16.464 61.8435 16.464C62.0675 16.464 62.2595 16.4227 62.4195 16.34C62.5822 16.2547 62.7395 16.132 62.8915 15.972V15.216ZM60.6115 13.488C61.0728 13.0587 61.6222 12.844 62.2595 12.844C62.4942 12.844 62.7022 12.8827 62.8835 12.96C63.0675 13.0347 63.2208 13.1413 63.3435 13.28C63.4688 13.4187 63.5635 13.584 63.6275 13.776C63.6942 13.9653 63.7275 14.176 63.7275 14.408V17H63.3435C63.2608 17 63.1982 16.988 63.1555 16.964C63.1128 16.9373 63.0768 16.8853 63.0475 16.808L62.9635 16.476C62.8595 16.5693 62.7568 16.6533 62.6555 16.728C62.5542 16.8 62.4488 16.8613 62.3395 16.912C62.2328 16.9627 62.1168 17 61.9915 17.024C61.8688 17.0507 61.7328 17.064 61.5835 17.064C61.4182 17.064 61.2635 17.0413 61.1195 16.996C60.9782 16.9507 60.8555 16.8827 60.7515 16.792C60.6475 16.6987 60.5648 16.584 60.5035 16.448C60.4448 16.312 60.4155 16.152 60.4155 15.968C60.4155 15.8107 60.4568 15.6573 60.5395 15.508C60.6248 15.3587 60.7635 15.2253 60.9555 15.108C61.1502 14.988 61.4048 14.8893 61.7195 14.812C62.0368 14.7347 62.4275 14.6907 62.8915 14.68V14.408C62.8915 14.1147 62.8288 13.896 62.7035 13.752C62.5782 13.608 62.3942 13.536 62.1515 13.536C61.9862 13.536 61.8475 13.5573 61.7355 13.6C61.6235 13.64 61.5262 13.684 61.4435 13.732C61.3608 13.78 61.2875 13.8253 61.2235 13.868C61.1595 13.908 61.0915 13.928 61.0195 13.928C60.9608 13.928 60.9102 13.9133 60.8675 13.884C60.8275 13.852 60.7942 13.8133 60.7675 13.768L60.6115 13.488ZM65.5949 15.976C65.7149 16.1307 65.8456 16.24 65.9869 16.304C66.1309 16.3653 66.2869 16.396 66.4549 16.396C66.7936 16.396 67.0576 16.2733 67.2469 16.028C67.4363 15.7827 67.5309 15.4027 67.5309 14.888C67.5309 14.4187 67.4483 14.076 67.2829 13.86C67.1203 13.644 66.8869 13.536 66.5829 13.536C66.3723 13.536 66.1883 13.584 66.0309 13.68C65.8763 13.7733 65.7309 13.908 65.5949 14.084V15.976ZM65.5949 13.46C65.7629 13.276 65.9509 13.1293 66.1589 13.02C66.3669 12.9107 66.6043 12.856 66.8709 12.856C67.1083 12.856 67.3216 12.9027 67.5109 12.996C67.7029 13.0867 67.8656 13.2187 67.9989 13.392C68.1323 13.5653 68.2349 13.776 68.3069 14.024C68.3789 14.2693 68.4149 14.5467 68.4149 14.856C68.4149 15.1867 68.3736 15.488 68.2909 15.76C68.2109 16.0293 68.0949 16.2613 67.9429 16.456C67.7909 16.648 67.6069 16.7973 67.3909 16.904C67.1749 17.008 66.9336 17.06 66.6669 17.06C66.5363 17.06 66.4176 17.0467 66.3109 17.02C66.2043 16.996 66.1056 16.96 66.0149 16.912C65.9243 16.864 65.8403 16.8067 65.7629 16.74C65.6883 16.6733 65.6163 16.5973 65.5469 16.512L65.5109 16.828C65.4976 16.8893 65.4736 16.9333 65.4389 16.96C65.4043 16.9867 65.3563 17 65.2949 17H64.7349V11.08H65.5949V13.46ZM70.1266 11.08V17H69.2666V11.08H70.1266ZM73.8641 14.5C73.8641 14.356 73.8427 14.2227 73.8001 14.1C73.7601 13.9747 73.7001 13.8667 73.6201 13.776C73.5401 13.6827 73.4401 13.6107 73.3201 13.56C73.2027 13.5067 73.0667 13.48 72.9121 13.48C72.6001 13.48 72.3547 13.5693 72.1761 13.748C71.9974 13.9267 71.8841 14.1773 71.8361 14.5H73.8641ZM71.8121 15.028C71.8227 15.26 71.8587 15.4613 71.9201 15.632C71.9814 15.8 72.0627 15.94 72.1641 16.052C72.2681 16.164 72.3907 16.248 72.5321 16.304C72.6761 16.3573 72.8361 16.384 73.0121 16.384C73.1801 16.384 73.3254 16.3653 73.4481 16.328C73.5707 16.288 73.6774 16.2453 73.7681 16.2C73.8587 16.152 73.9361 16.1093 74.0001 16.072C74.0641 16.032 74.1227 16.012 74.1761 16.012C74.2454 16.012 74.2987 16.0387 74.3361 16.092L74.5801 16.408C74.4787 16.528 74.3641 16.6293 74.2361 16.712C74.1081 16.7947 73.9721 16.8627 73.8281 16.916C73.6841 16.9667 73.5361 17.0027 73.3841 17.024C73.2321 17.048 73.0841 17.06 72.9401 17.06C72.6574 17.06 72.3947 17.0133 72.1521 16.92C71.9121 16.824 71.7027 16.684 71.5241 16.5C71.3481 16.316 71.2094 16.088 71.1081 15.816C71.0094 15.544 70.9601 15.2307 70.9601 14.876C70.9601 14.5933 71.0041 14.3293 71.0921 14.084C71.1827 13.8387 71.3107 13.6253 71.4761 13.444C71.6441 13.2627 71.8467 13.12 72.0841 13.016C72.3241 12.9093 72.5947 12.856 72.8961 12.856C73.1467 12.856 73.3787 12.8973 73.5921 12.98C73.8054 13.06 73.9894 13.1787 74.1441 13.336C74.2987 13.4933 74.4187 13.6867 74.5041 13.916C74.5921 14.1427 74.6361 14.4013 74.6361 14.692C74.6361 14.8253 74.6214 14.9147 74.5921 14.96C74.5627 15.0053 74.5094 15.028 74.4321 15.028H71.8121ZM79.1943 12.856C79.4956 12.856 79.7676 12.9053 80.0103 13.004C80.2556 13.1027 80.4636 13.2427 80.6343 13.424C80.8076 13.6053 80.9409 13.8253 81.0343 14.084C81.1276 14.3427 81.1743 14.6333 81.1743 14.956C81.1743 15.2787 81.1276 15.5693 81.0343 15.828C80.9409 16.0867 80.8076 16.308 80.6343 16.492C80.4636 16.6733 80.2556 16.8133 80.0103 16.912C79.7676 17.0107 79.4956 17.06 79.1943 17.06C78.8903 17.06 78.6156 17.0107 78.3703 16.912C78.1276 16.8133 77.9196 16.6733 77.7463 16.492C77.5729 16.308 77.4396 16.0867 77.3463 15.828C77.2529 15.5693 77.2063 15.2787 77.2063 14.956C77.2063 14.6333 77.2529 14.3427 77.3463 14.084C77.4396 13.8253 77.5729 13.6053 77.7463 13.424C77.9196 13.2427 78.1276 13.1027 78.3703 13.004C78.6156 12.9053 78.8903 12.856 79.1943 12.856ZM79.1943 16.388C79.5623 16.388 79.8356 16.2653 80.0143 16.02C80.1956 15.772 80.2863 15.4187 80.2863 14.96C80.2863 14.5013 80.1956 14.148 80.0143 13.9C79.8356 13.6493 79.5623 13.524 79.1943 13.524C78.8209 13.524 78.5436 13.6493 78.3623 13.9C78.1809 14.148 78.0903 14.5013 78.0903 14.96C78.0903 15.4187 78.1809 15.772 78.3623 16.02C78.5436 16.2653 78.8209 16.388 79.1943 16.388ZM82.8046 13.46C82.8926 13.3693 82.9832 13.288 83.0766 13.216C83.1726 13.1413 83.2739 13.0773 83.3806 13.024C83.4872 12.9707 83.6006 12.9293 83.7206 12.9C83.8406 12.8707 83.9712 12.856 84.1126 12.856C84.3366 12.856 84.5326 12.8933 84.7006 12.968C84.8712 13.0427 85.0139 13.148 85.1286 13.284C85.2459 13.42 85.3339 13.584 85.3926 13.776C85.4512 13.9653 85.4806 14.1747 85.4806 14.404V17H84.6246V14.404C84.6246 14.1293 84.5606 13.916 84.4326 13.764C84.3072 13.612 84.1152 13.536 83.8566 13.536C83.6646 13.536 83.4859 13.58 83.3206 13.668C83.1579 13.756 83.0046 13.876 82.8606 14.028V17H82.0006V12.92H82.5206C82.6379 12.92 82.7126 12.9747 82.7446 13.084L82.8046 13.46ZM89.7851 17.064C89.4465 17.064 89.1851 16.9693 89.0011 16.78C88.8198 16.588 88.7291 16.3187 88.7291 15.972V13.596H88.2811C88.2331 13.596 88.1918 13.5813 88.1571 13.552C88.1225 13.52 88.1051 13.4733 88.1051 13.412V13.064L88.7651 12.968L88.9531 11.788C88.9665 11.7427 88.9891 11.7067 89.0211 11.68C89.0531 11.6507 89.0958 11.636 89.1491 11.636H89.5891V12.976H90.7211V13.596H89.5891V15.912C89.5891 16.0587 89.6251 16.1707 89.6971 16.248C89.7691 16.3253 89.8651 16.364 89.9851 16.364C90.0518 16.364 90.1091 16.356 90.1571 16.34C90.2051 16.3213 90.2465 16.3027 90.2811 16.284C90.3158 16.2627 90.3451 16.244 90.3691 16.228C90.3958 16.2093 90.4211 16.2 90.4451 16.2C90.4931 16.2 90.5318 16.2267 90.5611 16.28L90.8171 16.7C90.6838 16.8173 90.5265 16.908 90.3451 16.972C90.1638 17.0333 89.9771 17.064 89.7851 17.064ZM92.259 13.404C92.427 13.2387 92.611 13.1067 92.811 13.008C93.011 12.9067 93.2443 12.856 93.511 12.856C93.735 12.856 93.931 12.8933 94.099 12.968C94.2697 13.0427 94.4123 13.148 94.527 13.284C94.6443 13.42 94.7323 13.584 94.791 13.776C94.8497 13.9653 94.879 14.1747 94.879 14.404V17H94.023V14.404C94.023 14.1293 93.959 13.916 93.831 13.764C93.7057 13.612 93.5137 13.536 93.255 13.536C93.063 13.536 92.8843 13.58 92.719 13.668C92.5563 13.756 92.403 13.876 92.259 14.028V17H91.399V11.08H92.259V13.404ZM98.5594 14.5C98.5594 14.356 98.538 14.2227 98.4954 14.1C98.4554 13.9747 98.3954 13.8667 98.3154 13.776C98.2354 13.6827 98.1354 13.6107 98.0154 13.56C97.898 13.5067 97.762 13.48 97.6074 13.48C97.2954 13.48 97.05 13.5693 96.8714 13.748C96.6927 13.9267 96.5794 14.1773 96.5314 14.5H98.5594ZM96.5074 15.028C96.518 15.26 96.554 15.4613 96.6154 15.632C96.6767 15.8 96.758 15.94 96.8594 16.052C96.9634 16.164 97.086 16.248 97.2274 16.304C97.3714 16.3573 97.5314 16.384 97.7074 16.384C97.8754 16.384 98.0207 16.3653 98.1434 16.328C98.266 16.288 98.3727 16.2453 98.4634 16.2C98.554 16.152 98.6314 16.1093 98.6954 16.072C98.7594 16.032 98.818 16.012 98.8714 16.012C98.9407 16.012 98.994 16.0387 99.0314 16.092L99.2754 16.408C99.174 16.528 99.0594 16.6293 98.9314 16.712C98.8034 16.7947 98.6674 16.8627 98.5234 16.916C98.3794 16.9667 98.2314 17.0027 98.0794 17.024C97.9274 17.048 97.7794 17.06 97.6354 17.06C97.3527 17.06 97.09 17.0133 96.8474 16.92C96.6074 16.824 96.398 16.684 96.2194 16.5C96.0434 16.316 95.9047 16.088 95.8034 15.816C95.7047 15.544 95.6554 15.2307 95.6554 14.876C95.6554 14.5933 95.6994 14.3293 95.7874 14.084C95.878 13.8387 96.006 13.6253 96.1714 13.444C96.3394 13.2627 96.542 13.12 96.7794 13.016C97.0194 12.9093 97.29 12.856 97.5914 12.856C97.842 12.856 98.074 12.8973 98.2874 12.98C98.5007 13.06 98.6847 13.1787 98.8394 13.336C98.994 13.4933 99.114 13.6867 99.1994 13.916C99.2874 14.1427 99.3314 14.4013 99.3314 14.692C99.3314 14.8253 99.3167 14.9147 99.2874 14.96C99.258 15.0053 99.2047 15.028 99.1274 15.028H96.5074Z" fill="black" fill-opacity="0.5"/>
<path d="M47.555 26.215L46.88 24.22C46.83 24.0933 46.7767 23.945 46.72 23.775C46.6633 23.6017 46.6067 23.415 46.55 23.215C46.5 23.4183 46.4467 23.6067 46.39 23.78C46.3333 23.9533 46.28 24.1033 46.23 24.23L45.56 26.215H47.555ZM50.24 29H48.93C48.7833 29 48.665 28.9667 48.575 28.9C48.485 28.83 48.4167 28.7417 48.37 28.635L47.94 27.365H45.17L44.74 28.635C44.7033 28.7283 44.6367 28.8133 44.54 28.89C44.4467 28.9633 44.33 29 44.19 29H42.87L45.69 21.715H47.42L50.24 29ZM52.1844 27.59C52.301 27.7167 52.4277 27.8067 52.5644 27.86C52.701 27.9133 52.8444 27.94 52.9944 27.94C53.1377 27.94 53.2694 27.9117 53.3894 27.855C53.5094 27.7983 53.6127 27.7083 53.6994 27.585C53.7894 27.4583 53.8594 27.295 53.9094 27.095C53.9594 26.895 53.9844 26.6517 53.9844 26.365C53.9844 26.0917 53.9644 25.8617 53.9244 25.675C53.8844 25.4883 53.8277 25.3383 53.7544 25.225C53.6844 25.1083 53.5994 25.025 53.4994 24.975C53.3994 24.925 53.2877 24.9 53.1644 24.9C52.9377 24.9 52.751 24.9417 52.6044 25.025C52.4577 25.1083 52.3177 25.23 52.1844 25.39V27.59ZM52.0894 24.455C52.2927 24.2383 52.5227 24.0617 52.7794 23.925C53.0394 23.785 53.3477 23.715 53.7044 23.715C53.9744 23.715 54.2244 23.775 54.4544 23.895C54.6844 24.015 54.8827 24.1883 55.0494 24.415C55.216 24.6417 55.346 24.92 55.4394 25.25C55.536 25.5767 55.5844 25.9483 55.5844 26.365C55.5844 26.755 55.5294 27.115 55.4194 27.445C55.3127 27.775 55.161 28.0617 54.9644 28.305C54.771 28.5483 54.5377 28.7383 54.2644 28.875C53.9944 29.0117 53.6944 29.08 53.3644 29.08C53.0944 29.08 52.8677 29.0417 52.6844 28.965C52.501 28.8883 52.3344 28.785 52.1844 28.655V30.645H50.6344V23.815H51.5944C51.7877 23.815 51.9144 23.9017 51.9744 24.075L52.0894 24.455ZM57.9363 27.59C58.053 27.7167 58.1797 27.8067 58.3163 27.86C58.453 27.9133 58.5963 27.94 58.7463 27.94C58.8897 27.94 59.0213 27.9117 59.1413 27.855C59.2613 27.7983 59.3647 27.7083 59.4513 27.585C59.5413 27.4583 59.6113 27.295 59.6613 27.095C59.7113 26.895 59.7363 26.6517 59.7363 26.365C59.7363 26.0917 59.7163 25.8617 59.6763 25.675C59.6363 25.4883 59.5797 25.3383 59.5063 25.225C59.4363 25.1083 59.3513 25.025 59.2513 24.975C59.1513 24.925 59.0397 24.9 58.9163 24.9C58.6897 24.9 58.503 24.9417 58.3563 25.025C58.2097 25.1083 58.0697 25.23 57.9363 25.39V27.59ZM57.8413 24.455C58.0447 24.2383 58.2747 24.0617 58.5313 23.925C58.7913 23.785 59.0997 23.715 59.4563 23.715C59.7263 23.715 59.9763 23.775 60.2063 23.895C60.4363 24.015 60.6347 24.1883 60.8013 24.415C60.968 24.6417 61.098 24.92 61.1913 25.25C61.288 25.5767 61.3363 25.9483 61.3363 26.365C61.3363 26.755 61.2813 27.115 61.1713 27.445C61.0647 27.775 60.913 28.0617 60.7163 28.305C60.523 28.5483 60.2897 28.7383 60.0163 28.875C59.7463 29.0117 59.4463 29.08 59.1163 29.08C58.8463 29.08 58.6197 29.0417 58.4363 28.965C58.253 28.8883 58.0863 28.785 57.9363 28.655V30.645H56.3863V23.815H57.3463C57.5397 23.815 57.6663 23.9017 57.7263 24.075L57.8413 24.455ZM68.6577 23.195C68.6077 23.275 68.5544 23.335 68.4977 23.375C68.4444 23.415 68.3744 23.435 68.2877 23.435C68.2111 23.435 68.1277 23.4117 68.0377 23.365C67.9511 23.315 67.8511 23.26 67.7377 23.2C67.6277 23.14 67.5011 23.0867 67.3577 23.04C67.2144 22.99 67.0511 22.965 66.8677 22.965C66.5511 22.965 66.3144 23.0333 66.1577 23.17C66.0044 23.3033 65.9277 23.485 65.9277 23.715C65.9277 23.8617 65.9744 23.9833 66.0677 24.08C66.1611 24.1767 66.2827 24.26 66.4327 24.33C66.5861 24.4 66.7594 24.465 66.9527 24.525C67.1494 24.5817 67.3494 24.6467 67.5527 24.72C67.7561 24.79 67.9544 24.8733 68.1477 24.97C68.3444 25.0667 68.5177 25.19 68.6677 25.34C68.8211 25.49 68.9444 25.6733 69.0377 25.89C69.1311 26.1033 69.1777 26.3617 69.1777 26.665C69.1777 27.0017 69.1194 27.3167 69.0027 27.61C68.8861 27.9033 68.7161 28.16 68.4927 28.38C68.2727 28.5967 67.9994 28.7683 67.6727 28.895C67.3494 29.0183 66.9811 29.08 66.5677 29.08C66.3411 29.08 66.1094 29.0567 65.8727 29.01C65.6394 28.9633 65.4127 28.8983 65.1927 28.815C64.9727 28.7283 64.7661 28.6267 64.5727 28.51C64.3794 28.3933 64.2111 28.2633 64.0677 28.12L64.5677 27.33C64.6077 27.2733 64.6594 27.2267 64.7227 27.19C64.7894 27.15 64.8611 27.13 64.9377 27.13C65.0377 27.13 65.1377 27.1617 65.2377 27.225C65.3411 27.2883 65.4561 27.3583 65.5827 27.435C65.7127 27.5117 65.8611 27.5817 66.0277 27.645C66.1944 27.7083 66.3911 27.74 66.6177 27.74C66.9244 27.74 67.1627 27.6733 67.3327 27.54C67.5027 27.4033 67.5877 27.1883 67.5877 26.895C67.5877 26.725 67.5411 26.5867 67.4477 26.48C67.3544 26.3733 67.2311 26.285 67.0777 26.215C66.9277 26.145 66.7561 26.0833 66.5627 26.03C66.3694 25.9767 66.1711 25.9183 65.9677 25.855C65.7644 25.7883 65.5661 25.7083 65.3727 25.615C65.1794 25.5183 65.0061 25.3933 64.8527 25.24C64.7027 25.0833 64.5811 24.89 64.4877 24.66C64.3944 24.4267 64.3477 24.14 64.3477 23.8C64.3477 23.5267 64.4027 23.26 64.5127 23C64.6227 22.74 64.7844 22.5083 64.9977 22.305C65.2111 22.1017 65.4727 21.94 65.7827 21.82C66.0927 21.6967 66.4477 21.635 66.8477 21.635C67.0711 21.635 67.2877 21.6533 67.4977 21.69C67.7111 21.7233 67.9127 21.775 68.1027 21.845C68.2927 21.9117 68.4694 21.9933 68.6327 22.09C68.7994 22.1833 68.9477 22.29 69.0777 22.41L68.6577 23.195ZM71.6202 29.08C71.3736 29.08 71.1552 29.045 70.9652 28.975C70.7786 28.9017 70.6202 28.8 70.4902 28.67C70.3636 28.5367 70.2669 28.3767 70.2002 28.19C70.1336 28.0033 70.1002 27.795 70.1002 27.565V24.885H69.6602C69.5802 24.885 69.5119 24.86 69.4552 24.81C69.3986 24.7567 69.3702 24.68 69.3702 24.58V23.975L70.1952 23.815L70.5002 22.55C70.5402 22.39 70.6536 22.31 70.8402 22.31H71.6502V23.825H72.9352V24.885H71.6502V27.46C71.6502 27.58 71.6786 27.68 71.7352 27.76C71.7952 27.8367 71.8802 27.875 71.9902 27.875C72.0469 27.875 72.0936 27.87 72.1302 27.86C72.1702 27.8467 72.2036 27.8333 72.2302 27.82C72.2602 27.8033 72.2869 27.79 72.3102 27.78C72.3369 27.7667 72.3669 27.76 72.4002 27.76C72.4469 27.76 72.4836 27.7717 72.5102 27.795C72.5402 27.815 72.5702 27.8483 72.6002 27.895L73.0702 28.63C72.8702 28.78 72.6452 28.8933 72.3952 28.97C72.1452 29.0433 71.8869 29.08 71.6202 29.08ZM75.9443 23.735C76.3376 23.735 76.696 23.7967 77.0193 23.92C77.3426 24.0433 77.6193 24.22 77.8493 24.45C78.0826 24.68 78.2626 24.96 78.3893 25.29C78.5193 25.6167 78.5843 25.985 78.5843 26.395C78.5843 26.8083 78.5193 27.1817 78.3893 27.515C78.2626 27.845 78.0826 28.1267 77.8493 28.36C77.6193 28.59 77.3426 28.7683 77.0193 28.895C76.696 29.0183 76.3376 29.08 75.9443 29.08C75.5476 29.08 75.186 29.0183 74.8593 28.895C74.536 28.7683 74.256 28.59 74.0193 28.36C73.786 28.1267 73.6043 27.845 73.4743 27.515C73.3476 27.1817 73.2843 26.8083 73.2843 26.395C73.2843 25.985 73.3476 25.6167 73.4743 25.29C73.6043 24.96 73.786 24.68 74.0193 24.45C74.256 24.22 74.536 24.0433 74.8593 23.92C75.186 23.7967 75.5476 23.735 75.9443 23.735ZM75.9443 27.93C76.301 27.93 76.5626 27.805 76.7293 27.555C76.8993 27.3017 76.9843 26.9183 76.9843 26.405C76.9843 25.8917 76.8993 25.51 76.7293 25.26C76.5626 25.01 76.301 24.885 75.9443 24.885C75.5776 24.885 75.3093 25.01 75.1393 25.26C74.9693 25.51 74.8843 25.8917 74.8843 26.405C74.8843 26.9183 74.9693 27.3017 75.1393 27.555C75.3093 27.805 75.5776 27.93 75.9443 27.93ZM80.8148 24.615C80.9748 24.335 81.1582 24.115 81.3648 23.955C81.5748 23.795 81.8148 23.715 82.0848 23.715C82.3182 23.715 82.5082 23.77 82.6548 23.88L82.5548 25.02C82.5382 25.0933 82.5098 25.1433 82.4698 25.17C82.4332 25.1967 82.3815 25.21 82.3148 25.21C82.2882 25.21 82.2532 25.2083 82.2098 25.205C82.1665 25.2017 82.1215 25.1983 82.0748 25.195C82.0282 25.1883 81.9798 25.1833 81.9298 25.18C81.8832 25.1733 81.8398 25.17 81.7998 25.17C81.5732 25.17 81.3915 25.23 81.2548 25.35C81.1215 25.47 81.0082 25.6367 80.9148 25.85V29H79.3648V23.815H80.2848C80.3615 23.815 80.4248 23.8217 80.4748 23.835C80.5282 23.8483 80.5715 23.87 80.6048 23.9C80.6415 23.9267 80.6682 23.9633 80.6848 24.01C80.7048 24.0567 80.7215 24.1133 80.7348 24.18L80.8148 24.615ZM86.3203 25.785C86.3203 25.6617 86.3036 25.5417 86.2703 25.425C86.2403 25.3083 86.1886 25.205 86.1153 25.115C86.0453 25.0217 85.952 24.9467 85.8353 24.89C85.7186 24.8333 85.577 24.805 85.4103 24.805C85.117 24.805 84.887 24.89 84.7203 25.06C84.5536 25.2267 84.4436 25.4683 84.3903 25.785H86.3203ZM84.3703 26.685C84.4203 27.1183 84.552 27.4333 84.7653 27.63C84.9786 27.8233 85.2536 27.92 85.5903 27.92C85.7703 27.92 85.9253 27.8983 86.0553 27.855C86.1853 27.8117 86.3003 27.7633 86.4003 27.71C86.5036 27.6567 86.597 27.6083 86.6803 27.565C86.767 27.5217 86.857 27.5 86.9503 27.5C87.0736 27.5 87.167 27.545 87.2303 27.635L87.6803 28.19C87.5203 28.3733 87.347 28.5233 87.1603 28.64C86.977 28.7533 86.787 28.8433 86.5903 28.91C86.397 28.9733 86.202 29.0167 86.0053 29.04C85.812 29.0667 85.627 29.08 85.4503 29.08C85.087 29.08 84.7453 29.0217 84.4253 28.905C84.1086 28.785 83.8303 28.6083 83.5903 28.375C83.3536 28.1417 83.1653 27.8517 83.0253 27.505C82.8886 27.1583 82.8203 26.755 82.8203 26.295C82.8203 25.9483 82.8786 25.62 82.9953 25.31C83.1153 25 83.2853 24.7283 83.5053 24.495C83.7286 24.2617 83.997 24.0767 84.3103 23.94C84.627 23.8033 84.9836 23.735 85.3803 23.735C85.7236 23.735 86.037 23.7883 86.3203 23.895C86.607 24.0017 86.852 24.1567 87.0553 24.36C87.262 24.5633 87.422 24.8133 87.5353 25.11C87.652 25.4033 87.7103 25.7367 87.7103 26.11C87.7103 26.2267 87.7053 26.3217 87.6953 26.395C87.6853 26.4683 87.667 26.5267 87.6403 26.57C87.6136 26.6133 87.577 26.6433 87.5303 26.66C87.487 26.6767 87.4303 26.685 87.3603 26.685H84.3703Z" fill="black" fill-opacity="0.5"/>
<path d="M18.5077 31.7674C15.1193 31.7479 12.3164 24.8309 12.3164 21.3082C12.3164 15.554 16.6331 14.2942 18.2967 14.2942C19.0464 14.2942 19.847 14.5886 20.5531 14.8491C21.0468 15.0309 21.5575 15.2185 21.8415 15.2185C22.0115 15.2185 22.4121 15.0589 22.7658 14.9189C23.5201 14.6186 24.4587 14.2454 25.5518 14.2454C25.5537 14.2454 25.5563 14.2454 25.5582 14.2454C26.3744 14.2454 28.849 14.4245 30.3368 16.6587L30.6853 17.1824L30.1837 17.5609C29.4672 18.1015 28.1599 19.0877 28.1599 21.0412C28.1599 23.3549 29.6405 24.2447 30.3518 24.6726C30.6657 24.8615 30.9908 25.0563 30.9908 25.4823C30.9908 25.7604 28.7708 31.7329 25.5472 31.7329C24.7584 31.7329 24.2008 31.4958 23.709 31.2867C23.2113 31.075 22.7821 30.8927 22.0727 30.8927C21.7131 30.8927 21.2585 31.0627 20.7771 31.2431C20.1193 31.4886 19.3747 31.7674 18.5299 31.7674H18.5077Z" fill="#3F88C5"/>
<path d="M25.893 9C25.9769 12.0272 23.812 14.1273 21.6497 13.9956C21.2934 11.5798 23.8118 9 25.893 9Z" fill="#3F88C5"/>
</svg>
