<svg width="20" height="20" viewBox="0 0 20 20" fill="none" xmlns="http://www.w3.org/2000/svg">
<g clip-path="url(#clip0)">
<path d="M7.5 18.3333C7.96024 18.3333 8.33334 17.9602 8.33334 17.5C8.33334 17.0397 7.96024 16.6666 7.5 16.6666C7.03977 16.6666 6.66667 17.0397 6.66667 17.5C6.66667 17.9602 7.03977 18.3333 7.5 18.3333Z" stroke="black" stroke-opacity="0.7" stroke-width="2" stroke-linecap="round" stroke-linejoin="round"/>
<path d="M16.6667 18.3333C17.1269 18.3333 17.5 17.9602 17.5 17.5C17.5 17.0397 17.1269 16.6666 16.6667 16.6666C16.2064 16.6666 15.8333 17.0397 15.8333 17.5C15.8333 17.9602 16.2064 18.3333 16.6667 18.3333Z" stroke="black" stroke-opacity="0.7" stroke-width="2" stroke-linecap="round" stroke-linejoin="round"/>
<path d="M0.833328 0.833374H4.16666L6.39999 11.9917C6.4762 12.3754 6.68492 12.72 6.98962 12.9653C7.29431 13.2106 7.67558 13.3409 8.06666 13.3334H16.1667C16.5577 13.3409 16.939 13.2106 17.2437 12.9653C17.5484 12.72 17.7571 12.3754 17.8333 11.9917L19.1667 5.00004H4.99999" stroke="black" stroke-opacity="0.7" stroke-width="2" stroke-linecap="round" stroke-linejoin="round"/>
</g>
<defs>
<clipPath id="clip0">
<rect width="20" height="20" fill="white"/>
</clipPath>
</defs>
</svg>
