<svg width="9" height="15" viewBox="0 0 9 15" fill="none" xmlns="http://www.w3.org/2000/svg">
<path d="M7.80437 0.003121L5.85921 0C3.67389 0 2.26163 1.44892 2.26163 3.69152V5.39356H0.305858C0.136856 5.39356 0 5.53057 0 5.69957V8.16563C0 8.33463 0.137012 8.47149 0.305858 8.47149H2.26163V14.6941C2.26163 14.8631 2.39849 15 2.56749 15H5.11922C5.28822 15 5.42508 14.863 5.42508 14.6941V8.47149H7.71184C7.88084 8.47149 8.0177 8.33463 8.0177 8.16563L8.01863 5.69957C8.01863 5.61843 7.98633 5.54071 7.92906 5.48329C7.87179 5.42586 7.79376 5.39356 7.71262 5.39356H5.42508V3.95072C5.42508 3.25723 5.59034 2.90518 6.49371 2.90518L7.80406 2.90472C7.97291 2.90472 8.10977 2.7677 8.10977 2.59886V0.308979C8.10977 0.140289 7.97307 0.0034331 7.80437 0.003121Z" fill="black" fill-opacity="0.7"/>
</svg>
