<svg width="112" height="38" viewBox="0 0 112 38" fill="none" xmlns="http://www.w3.org/2000/svg">
<rect width="112" height="38" rx="5" fill="white"/>
<path d="M46.328 16.128C45.7893 16.128 45.2933 15.9973 44.84 15.736C44.3867 15.4747 44.0267 15.1147 43.76 14.656C43.4933 14.1973 43.36 13.6907 43.36 13.136C43.36 12.5813 43.4933 12.0747 43.76 11.616C44.0267 11.1573 44.3867 10.7973 44.84 10.536C45.2933 10.2747 45.7893 10.144 46.328 10.144C46.7493 10.144 47.144 10.2187 47.512 10.368C47.8853 10.5173 48.192 10.728 48.432 11L47.944 11.488C47.7627 11.264 47.5307 11.0933 47.248 10.976C46.9653 10.8533 46.6613 10.792 46.336 10.792C45.9307 10.792 45.552 10.8907 45.2 11.088C44.8533 11.28 44.5733 11.5547 44.36 11.912C44.152 12.264 44.048 12.672 44.048 13.136C44.048 13.6 44.152 14.0107 44.36 14.368C44.5733 14.72 44.856 14.9947 45.208 15.192C45.56 15.384 45.936 15.48 46.336 15.48C46.72 15.48 47.04 15.4213 47.296 15.304C47.5573 15.1813 47.7813 15.0213 47.968 14.824C48.1067 14.6747 48.2187 14.496 48.304 14.288C48.3893 14.0747 48.4427 13.84 48.464 13.584H46.344V12.952H49.096C49.1227 13.1013 49.136 13.24 49.136 13.368C49.136 13.72 49.08 14.064 48.968 14.4C48.856 14.7307 48.6773 15.0213 48.432 15.272C47.904 15.8427 47.2027 16.128 46.328 16.128ZM51.7888 16.128C51.3994 16.128 51.0501 16.0347 50.7408 15.848C50.4314 15.6613 50.1888 15.4053 50.0128 15.08C49.8421 14.7493 49.7568 14.3787 49.7568 13.968C49.7568 13.5733 49.8368 13.2107 49.9967 12.88C50.1621 12.5493 50.3941 12.2853 50.6928 12.088C50.9914 11.8907 51.3381 11.792 51.7328 11.792C52.1328 11.792 52.4794 11.8827 52.7728 12.064C53.0661 12.24 53.2901 12.4853 53.4448 12.8C53.6048 13.1147 53.6848 13.4747 53.6848 13.88C53.6848 13.96 53.6768 14.0293 53.6608 14.088H50.4368C50.4528 14.3973 50.5274 14.6587 50.6608 14.872C50.7941 15.0853 50.9621 15.2453 51.1648 15.352C51.3728 15.4587 51.5888 15.512 51.8128 15.512C52.3354 15.512 52.7381 15.2667 53.0208 14.776L53.5968 15.056C53.4208 15.3867 53.1808 15.648 52.8768 15.84C52.5781 16.032 52.2154 16.128 51.7888 16.128ZM52.9648 13.528C52.9541 13.3573 52.9061 13.1867 52.8208 13.016C52.7354 12.8453 52.5994 12.7013 52.4128 12.584C52.2314 12.4667 52.0021 12.408 51.7248 12.408C51.4048 12.408 51.1328 12.512 50.9088 12.72C50.6901 12.9227 50.5461 13.192 50.4768 13.528H52.9648ZM55.9314 16.064C55.766 16.064 55.6114 16.0373 55.4674 15.984C55.3287 15.9307 55.2114 15.8587 55.1154 15.768C55.0087 15.6667 54.9287 15.5493 54.8754 15.416C54.822 15.2827 54.7954 15.12 54.7954 14.928V12.536H54.0834V11.92H54.7954V10.768H55.4754V11.92H56.4674V12.536H55.4754V14.76C55.4754 14.984 55.518 15.1493 55.6034 15.256C55.7047 15.3733 55.8514 15.432 56.0434 15.432C56.198 15.432 56.3474 15.3867 56.4914 15.296V15.96C56.4114 15.9973 56.3287 16.024 56.2434 16.04C56.1634 16.056 56.0594 16.064 55.9314 16.064ZM59.5524 11.168C59.4191 11.168 59.3044 11.12 59.2084 11.024C59.1124 10.928 59.0644 10.8133 59.0644 10.68C59.0644 10.5467 59.1124 10.4347 59.2084 10.344C59.3044 10.248 59.4191 10.2 59.5524 10.2C59.6858 10.2 59.8004 10.248 59.8964 10.344C59.9924 10.4347 60.0404 10.5467 60.0404 10.68C60.0404 10.8133 59.9924 10.928 59.8964 11.024C59.8058 11.12 59.6911 11.168 59.5524 11.168ZM59.2164 11.92H59.8884V16H59.2164V11.92ZM62.4861 16.064C62.3207 16.064 62.1661 16.0373 62.0221 15.984C61.8834 15.9307 61.7661 15.8587 61.6701 15.768C61.5634 15.6667 61.4834 15.5493 61.4301 15.416C61.3767 15.2827 61.3501 15.12 61.3501 14.928V12.536H60.6381V11.92H61.3501V10.768H62.0301V11.92H63.0221V12.536H62.0301V14.76C62.0301 14.984 62.0727 15.1493 62.1581 15.256C62.2594 15.3733 62.4061 15.432 62.5981 15.432C62.7527 15.432 62.9021 15.3867 63.0461 15.296V15.96C62.9661 15.9973 62.8834 16.024 62.7981 16.04C62.7181 16.056 62.6141 16.064 62.4861 16.064ZM67.5871 16.128C67.1871 16.128 66.8271 16.032 66.5071 15.84C66.1871 15.648 65.9365 15.3867 65.7551 15.056C65.5791 14.7253 65.4911 14.36 65.4911 13.96C65.4911 13.56 65.5791 13.1947 65.7551 12.864C65.9365 12.5333 66.1871 12.272 66.5071 12.08C66.8271 11.888 67.1871 11.792 67.5871 11.792C67.9871 11.792 68.3471 11.888 68.6671 12.08C68.9871 12.272 69.2351 12.5333 69.4111 12.864C69.5925 13.1947 69.6831 13.56 69.6831 13.96C69.6831 14.36 69.5925 14.7253 69.4111 15.056C69.2351 15.3867 68.9871 15.648 68.6671 15.84C68.3471 16.032 67.9871 16.128 67.5871 16.128ZM67.5871 15.512C67.8378 15.512 68.0698 15.4507 68.2831 15.328C68.5018 15.2 68.6751 15.0187 68.8031 14.784C68.9365 14.5493 69.0031 14.2747 69.0031 13.96C69.0031 13.6453 68.9365 13.3707 68.8031 13.136C68.6751 12.9013 68.5018 12.7227 68.2831 12.6C68.0698 12.472 67.8378 12.408 67.5871 12.408C67.3365 12.408 67.1018 12.472 66.8831 12.6C66.6645 12.7227 66.4885 12.9013 66.3551 13.136C66.2271 13.3707 66.1631 13.6453 66.1631 13.96C66.1631 14.2747 66.2271 14.5493 66.3551 14.784C66.4885 15.0187 66.6645 15.2 66.8831 15.328C67.1018 15.4507 67.3365 15.512 67.5871 15.512ZM70.3946 11.92H71.0426V12.52H71.0746C71.1866 12.3173 71.3653 12.1467 71.6106 12.008C71.856 11.864 72.1173 11.792 72.3946 11.792C72.8853 11.792 73.2586 11.936 73.5146 12.224C73.776 12.5067 73.9066 12.8933 73.9066 13.384V16H73.2266V13.488C73.2266 13.1093 73.136 12.8347 72.9546 12.664C72.7733 12.4933 72.5253 12.408 72.2106 12.408C71.992 12.408 71.7946 12.4693 71.6186 12.592C71.448 12.7147 71.3146 12.8773 71.2186 13.08C71.1226 13.2773 71.0746 13.4853 71.0746 13.704V16H70.3946V11.92Z" fill="black" fill-opacity="0.8"/>
<path d="M47.24 28.16C46.5533 28.16 45.92 28 45.34 27.68C44.7667 27.3533 44.31 26.9067 43.97 26.34C43.63 25.7667 43.46 25.1267 43.46 24.42C43.46 23.7133 43.63 23.0767 43.97 22.51C44.31 21.9367 44.7667 21.49 45.34 21.17C45.92 20.8433 46.5533 20.68 47.24 20.68C47.8 20.68 48.31 20.78 48.77 20.98C49.2367 21.1733 49.6367 21.45 49.97 21.81L49.04 22.72C48.8 22.4667 48.5333 22.2767 48.24 22.15C47.9533 22.0233 47.6167 21.96 47.23 21.96C46.79 21.96 46.3867 22.0633 46.02 22.27C45.6533 22.47 45.36 22.76 45.14 23.14C44.9267 23.5133 44.82 23.94 44.82 24.42C44.82 24.9 44.93 25.33 45.15 25.71C45.37 26.0833 45.6633 26.3733 46.03 26.58C46.4033 26.78 46.81 26.88 47.25 26.88C47.9167 26.88 48.4633 26.6833 48.89 26.29C49.0233 26.17 49.14 26.0167 49.24 25.83C49.34 25.6433 49.4133 25.44 49.46 25.22H47.21V24.07H50.72C50.7667 24.2567 50.79 24.4667 50.79 24.7C50.79 25.1733 50.7167 25.6133 50.57 26.02C50.43 26.4267 50.2133 26.7833 49.92 27.09C49.6 27.4367 49.2133 27.7033 48.76 27.89C48.3067 28.07 47.8 28.16 47.24 28.16ZM54.2929 28.16C53.7662 28.16 53.2962 28.0433 52.8829 27.81C52.4696 27.57 52.1462 27.2467 51.9129 26.84C51.6862 26.4267 51.5729 25.9633 51.5729 25.45C51.5729 24.9433 51.6862 24.4833 51.9129 24.07C52.1462 23.6567 52.4696 23.3333 52.8829 23.1C53.2962 22.86 53.7662 22.74 54.2929 22.74C54.8129 22.74 55.2796 22.86 55.6929 23.1C56.1062 23.3333 56.4262 23.6567 56.6529 24.07C56.8862 24.4833 57.0029 24.9433 57.0029 25.45C57.0029 25.9633 56.8862 26.4267 56.6529 26.84C56.4262 27.2467 56.1062 27.57 55.6929 27.81C55.2796 28.0433 54.8129 28.16 54.2929 28.16ZM54.2929 26.95C54.5462 26.95 54.7796 26.89 54.9929 26.77C55.2062 26.65 55.3762 26.4767 55.5029 26.25C55.6296 26.0233 55.6929 25.7567 55.6929 25.45C55.6929 25.15 55.6296 24.8867 55.5029 24.66C55.3762 24.4333 55.2062 24.26 54.9929 24.14C54.7796 24.02 54.5462 23.96 54.2929 23.96C54.0396 23.96 53.8062 24.02 53.5929 24.14C53.3796 24.26 53.2062 24.4333 53.0729 24.66C52.9462 24.8867 52.8829 25.15 52.8829 25.45C52.8829 25.75 52.9462 26.0167 53.0729 26.25C53.2062 26.4767 53.3796 26.65 53.5929 26.77C53.8062 26.89 54.0396 26.95 54.2929 26.95ZM60.4452 28.16C59.9186 28.16 59.4486 28.0433 59.0352 27.81C58.6219 27.57 58.2986 27.2467 58.0652 26.84C57.8386 26.4267 57.7252 25.9633 57.7252 25.45C57.7252 24.9433 57.8386 24.4833 58.0652 24.07C58.2986 23.6567 58.6219 23.3333 59.0352 23.1C59.4486 22.86 59.9186 22.74 60.4452 22.74C60.9652 22.74 61.4319 22.86 61.8452 23.1C62.2586 23.3333 62.5786 23.6567 62.8052 24.07C63.0386 24.4833 63.1552 24.9433 63.1552 25.45C63.1552 25.9633 63.0386 26.4267 62.8052 26.84C62.5786 27.2467 62.2586 27.57 61.8452 27.81C61.4319 28.0433 60.9652 28.16 60.4452 28.16ZM60.4452 26.95C60.6986 26.95 60.9319 26.89 61.1452 26.77C61.3586 26.65 61.5286 26.4767 61.6552 26.25C61.7819 26.0233 61.8452 25.7567 61.8452 25.45C61.8452 25.15 61.7819 24.8867 61.6552 24.66C61.5286 24.4333 61.3586 24.26 61.1452 24.14C60.9319 24.02 60.6986 23.96 60.4452 23.96C60.1919 23.96 59.9586 24.02 59.7452 24.14C59.5319 24.26 59.3586 24.4333 59.2252 24.66C59.0986 24.8867 59.0352 25.15 59.0352 25.45C59.0352 25.75 59.0986 26.0167 59.2252 26.25C59.3586 26.4767 59.5319 26.65 59.7452 26.77C59.9586 26.89 60.1919 26.95 60.4452 26.95ZM66.5076 30.32C65.8609 30.32 65.3242 30.1733 64.8976 29.88C64.4709 29.5933 64.1842 29.2467 64.0376 28.84L65.2676 28.34C65.3742 28.5933 65.5376 28.7933 65.7576 28.94C65.9776 29.0867 66.2276 29.16 66.5076 29.16C66.9209 29.16 67.2476 29.0333 67.4876 28.78C67.7342 28.5267 67.8576 28.1667 67.8576 27.7V27.3H67.7776C67.6176 27.5267 67.4076 27.7 67.1476 27.82C66.8876 27.94 66.5909 28 66.2576 28C65.8376 28 65.4442 27.8933 65.0776 27.68C64.7176 27.46 64.4276 27.1533 64.2076 26.76C63.9876 26.36 63.8776 25.8967 63.8776 25.37C63.8776 24.8433 63.9876 24.3833 64.2076 23.99C64.4276 23.59 64.7176 23.2833 65.0776 23.07C65.4442 22.85 65.8376 22.74 66.2576 22.74C66.5909 22.74 66.8876 22.8 67.1476 22.92C67.4076 23.04 67.6176 23.2133 67.7776 23.44H67.8576V22.9H69.1176V27.65C69.1176 28.1967 69.0109 28.67 68.7976 29.07C68.5842 29.47 68.2809 29.7767 67.8876 29.99C67.4942 30.21 67.0342 30.32 66.5076 30.32ZM66.5276 26.81C66.8942 26.81 67.2076 26.6833 67.4676 26.43C67.7276 26.17 67.8576 25.8167 67.8576 25.37C67.8576 24.91 67.7276 24.5567 67.4676 24.31C67.2142 24.0567 66.9009 23.93 66.5276 23.93C66.1542 23.93 65.8376 24.0567 65.5776 24.31C65.3176 24.5633 65.1876 24.9167 65.1876 25.37C65.1876 25.8233 65.3176 26.1767 65.5776 26.43C65.8376 26.6833 66.1542 26.81 66.5276 26.81ZM70.3978 20.84H71.7078V28H70.3978V20.84ZM75.3366 28.16C74.83 28.16 74.3733 28.0433 73.9666 27.81C73.56 27.5767 73.24 27.2567 73.0066 26.85C72.78 26.4367 72.6666 25.9733 72.6666 25.46C72.6666 24.9733 72.78 24.5233 73.0066 24.11C73.2333 23.69 73.5466 23.3567 73.9466 23.11C74.3466 22.8633 74.7933 22.74 75.2866 22.74C75.8133 22.74 76.2666 22.8533 76.6466 23.08C77.0266 23.3067 77.3133 23.6167 77.5066 24.01C77.7066 24.4033 77.8066 24.84 77.8066 25.32C77.8066 25.4733 77.7966 25.62 77.7766 25.76H73.9466C74.0133 26.1667 74.1733 26.4767 74.4266 26.69C74.6866 26.8967 74.9966 27 75.3566 27C75.6566 27 75.9133 26.9367 76.1266 26.81C76.3466 26.6767 76.52 26.5 76.6466 26.28L77.7066 26.8C77.1866 27.7067 76.3966 28.16 75.3366 28.16ZM76.5466 24.83C76.5333 24.67 76.4733 24.5133 76.3666 24.36C76.2666 24.2 76.1233 24.07 75.9366 23.97C75.7566 23.8633 75.5433 23.81 75.2966 23.81C74.9833 23.81 74.7133 23.9033 74.4866 24.09C74.2666 24.27 74.1066 24.5167 74.0066 24.83H76.5466ZM81.3395 20.84H83.8595C84.3129 20.84 84.7262 20.9367 85.0995 21.13C85.4729 21.3167 85.7662 21.5833 85.9795 21.93C86.1929 22.27 86.2995 22.66 86.2995 23.1C86.2995 23.54 86.1929 23.9333 85.9795 24.28C85.7662 24.6267 85.4729 24.8967 85.0995 25.09C84.7262 25.2767 84.3129 25.37 83.8595 25.37H82.6895V28H81.3395V20.84ZM83.8995 24.09C84.2329 24.09 84.4929 23.9933 84.6795 23.8C84.8729 23.6067 84.9695 23.3733 84.9695 23.1C84.9695 22.8267 84.8729 22.5967 84.6795 22.41C84.4929 22.2167 84.2329 22.12 83.8995 22.12H82.6895V24.09H83.8995ZM87.3119 20.84H88.6219V28H87.3119V20.84ZM91.4207 28.16C90.8807 28.16 90.4374 28.0033 90.0907 27.69C89.744 27.37 89.5707 26.9533 89.5707 26.44C89.5707 26.1 89.6607 25.8 89.8407 25.54C90.0207 25.28 90.2674 25.08 90.5807 24.94C90.894 24.8 91.2407 24.73 91.6207 24.73C92.1474 24.73 92.5974 24.8067 92.9707 24.96V24.74C92.9707 24.46 92.864 24.2333 92.6507 24.06C92.444 23.8867 92.164 23.8 91.8107 23.8C91.5707 23.8 91.3374 23.8567 91.1107 23.97C90.8907 24.0767 90.7074 24.22 90.5607 24.4L89.7207 23.74C89.9674 23.42 90.2774 23.1733 90.6507 23C91.024 22.8267 91.4307 22.74 91.8707 22.74C92.6507 22.74 93.244 22.92 93.6507 23.28C94.0574 23.64 94.2607 24.1667 94.2607 24.86V28H92.9707V27.48H92.8907C92.7374 27.68 92.534 27.8433 92.2807 27.97C92.034 28.0967 91.7474 28.16 91.4207 28.16ZM91.7307 27.14C92.1107 27.14 92.4107 27.02 92.6307 26.78C92.8574 26.5333 92.9707 26.2467 92.9707 25.92C92.6307 25.76 92.274 25.68 91.9007 25.68C91.2207 25.68 90.8807 25.9333 90.8807 26.44C90.8807 26.6467 90.954 26.8167 91.1007 26.95C91.2474 27.0767 91.4574 27.14 91.7307 27.14ZM96.9585 27.76L94.8085 22.9H96.2985L97.6185 26.07H97.6985L98.9685 22.9H100.429L97.2785 30.16H95.8685L96.9585 27.76Z" fill="black" fill-opacity="0.8"/>
<path d="M34.0301 17.6137L30.1995 15.4014L24.9513 19.3227L30.1994 23.244L34.0431 21.0241C34.6424 20.6601 35 20.0238 35 19.3228C35 18.6218 34.6423 17.9856 34.0301 17.6137Z" fill="#FF9100"/>
<path d="M26.2784 19.3228C26.2726 19.3302 21.6381 25.2889 21.6343 25.2937L15.5971 30.0483C15.2255 29.6767 15 29.1726 15 28.6152V9.99743C15 9.44019 15.2255 8.93593 15.5971 8.56445L21.6343 13.3519C21.6381 13.3567 26.2726 19.3154 26.2784 19.3228Z" fill="#25D9F8"/>
<path d="M26.2782 19.3225L24.9513 21.0342V17.6108L26.2782 19.3225Z" fill="#00C0F1"/>
<path d="M30.2057 15.395L26.2781 19.3226L15.5968 8.5643C15.7294 8.44483 15.8622 8.35195 16.0081 8.25907C16.645 7.90086 17.4013 7.91409 18.025 8.29892L24.9512 12.3698L30.2057 15.395Z" fill="#7FE881"/>
<path d="M30.2057 15.3948L26.2782 19.3224L24.9513 17.9955V12.3696L30.2057 15.3948Z" fill="#5BC980"/>
<path d="M30.2057 23.2502L24.9512 26.2755L18.0117 30.3269C17.6933 30.5126 17.3483 30.6188 16.99 30.6188C16.6583 30.6188 16.3266 30.5259 16.0081 30.3534C15.8622 30.2605 15.7294 30.1677 15.5968 30.0483L26.2781 19.3228L30.2057 23.2502Z" fill="#FF5757"/>
<path d="M30.2057 23.2502L24.9513 26.2755V20.6496L26.2782 19.3228L30.2057 23.2502Z" fill="#FF5757"/>
</svg>
