<svg width="40" height="40" viewBox="0 0 40 40" fill="none" xmlns="http://www.w3.org/2000/svg">
<circle cx="20" cy="20" r="19.5" fill="white" stroke="#3F88C5"/>
<path d="M23.3125 12H17.6875C15.0991 12 13 14.0991 13 16.6875V22.3125C13 24.9009 15.0991 27 17.6875 27H23.3125C25.9009 27 28 24.9009 28 22.3125V16.6875C28 14.0991 25.9009 12 23.3125 12ZM26.5938 22.3125C26.5938 24.1219 25.1219 25.5938 23.3125 25.5938H17.6875C15.8781 25.5938 14.4062 24.1219 14.4062 22.3125V16.6875C14.4062 14.8781 15.8781 13.4062 17.6875 13.4062H23.3125C25.1219 13.4062 26.5938 14.8781 26.5938 16.6875V22.3125Z" fill="#3F88C5"/>
<path d="M20.5 15.75C18.4291 15.75 16.75 17.4291 16.75 19.5C16.75 21.5709 18.4291 23.25 20.5 23.25C22.5709 23.25 24.25 21.5709 24.25 19.5C24.25 17.4291 22.5709 15.75 20.5 15.75ZM20.5 21.8438C19.2081 21.8438 18.1562 20.7919 18.1562 19.5C18.1562 18.2072 19.2081 17.1562 20.5 17.1562C21.7919 17.1562 22.8438 18.2072 22.8438 19.5C22.8438 20.7919 21.7919 21.8438 20.5 21.8438Z" fill="#3F88C5"/>
<path d="M24.5312 15.9684C24.8072 15.9684 25.0309 15.7447 25.0309 15.4687C25.0309 15.1927 24.8072 14.969 24.5312 14.969C24.2552 14.969 24.0315 15.1927 24.0315 15.4687C24.0315 15.7447 24.2552 15.9684 24.5312 15.9684Z" fill="#3F88C5"/>
</svg>
