<svg width="40" height="40" viewBox="0 0 40 40" fill="none" xmlns="http://www.w3.org/2000/svg">
<g clip-path="url(#clip0)">
<path d="M39.0662 20.3692C39.0662 26.8181 33.8575 32.0888 27.3466 32.0888C20.8977 32.0888 15.627 26.8181 15.627 20.3692C15.627 13.9203 20.8357 8.64954 27.2846 8.64954C33.8575 8.64954 39.0662 13.9203 39.0662 20.3692Z" fill="#FFB600"/>
<path d="M27.3466 8.64954C33.7955 8.64954 39.0662 13.9203 39.0662 20.3692C39.0662 26.8181 33.8575 32.0888 27.3466 32.0888C20.8977 32.0888 15.627 26.8181 15.627 20.3692" fill="#F7981D"/>
<path d="M27.3459 8.64954C33.7948 8.64954 39.0656 13.9203 39.0656 20.3692C39.0656 26.8181 33.8569 32.0888 27.3459 32.0888" fill="#FF8500"/>
<path d="M11.5956 8.64954C5.20872 8.71154 0 13.9203 0 20.3692C0 26.8181 5.20872 32.0888 11.7196 32.0888C14.758 32.0888 17.4864 30.9106 19.5947 29.0504C20.0288 28.6783 20.4008 28.2443 20.7729 27.8102H18.3545C18.0445 27.4381 17.7345 27.0041 17.4864 26.632H21.641C21.889 26.26 22.1371 25.8259 22.3231 25.3919H16.8043C16.6183 25.0198 16.4323 24.5857 16.3083 24.1517H22.7572C23.1292 22.9735 23.3772 21.7334 23.3772 20.4312C23.3772 19.5631 23.2532 18.7569 23.1292 17.9508H15.9362C15.9982 17.5168 16.1222 17.1447 16.2463 16.7107H22.6951C22.5711 16.2766 22.3851 15.8425 22.1991 15.4705H16.7423C16.9284 15.0364 17.1764 14.6644 17.4244 14.2303H21.579C21.331 13.7963 21.0209 13.3622 20.6489 12.9901H18.3545C18.7266 12.5561 19.0987 12.184 19.5327 11.812C17.4864 9.88971 14.696 8.77355 11.6576 8.77355C11.6576 8.64954 11.6576 8.64954 11.5956 8.64954Z" fill="#FF5050"/>
<path d="M0 20.369C0 26.8179 5.20872 32.0887 11.7196 32.0887C14.758 32.0887 17.4864 30.9105 19.5947 29.0503C20.0288 28.6782 20.4008 28.2441 20.7729 27.8101H18.3545C18.0445 27.438 17.7345 27.004 17.4864 26.6319H21.641C21.889 26.2599 22.1371 25.8258 22.3231 25.3917H16.8043C16.6183 25.0197 16.4323 24.5856 16.3083 24.1516H22.7572C23.1292 22.9734 23.3772 21.7332 23.3772 20.4311C23.3772 19.5629 23.2532 18.7568 23.1292 17.9507H15.9362C15.9982 17.5167 16.1222 17.1446 16.2463 16.7105H22.6951C22.5711 16.2765 22.3851 15.8424 22.1991 15.4704H16.7423C16.9284 15.0363 17.1764 14.6643 17.4244 14.2302H21.579C21.331 13.7961 21.0209 13.3621 20.6489 12.99H18.3545C18.7266 12.556 19.0987 12.1839 19.5327 11.8119C17.4864 9.88959 14.696 8.77344 11.6576 8.77344H11.5956" fill="#E52836"/>
<path d="M11.7202 32.0887C14.7586 32.0887 17.487 30.9105 19.5953 29.0503C20.0294 28.6782 20.4014 28.2441 20.7735 27.8101H18.3551C18.0451 27.438 17.735 27.004 17.487 26.6319H21.6416C21.8896 26.2599 22.1377 25.8258 22.3237 25.3917H16.8049C16.6189 25.0197 16.4329 24.5856 16.3088 24.1516H22.7577C23.1298 22.9734 23.3778 21.7332 23.3778 20.4311C23.3778 19.5629 23.2538 18.7568 23.1298 17.9507H15.9368C15.9988 17.5167 16.1228 17.1446 16.2468 16.7105H22.6957C22.5717 16.2765 22.3857 15.8424 22.1997 15.4704H16.7429C16.9289 15.0363 17.177 14.6643 17.425 14.2302H21.5796C21.3315 13.7961 21.0215 13.3621 20.6494 12.99H18.3551C18.7272 12.556 19.0992 12.1839 19.5333 11.8119C17.487 9.88959 14.6966 8.77344 11.6582 8.77344H11.5962" fill="#CB2026"/>
<path d="M15.8734 23.3457L16.0595 22.2915C15.9975 22.2915 15.8734 22.3535 15.7494 22.3535C15.3154 22.3535 15.2534 22.1055 15.3154 21.9815L15.6874 19.8112H16.3695L16.5555 18.633H15.9355L16.0595 17.8889H14.8193C14.8193 17.8889 14.0752 21.9815 14.0752 22.4776C14.0752 23.2217 14.5093 23.5317 15.0673 23.5317C15.4394 23.5317 15.7494 23.4077 15.8734 23.3457Z" fill="white"/>
<path d="M16.3079 21.3613C16.3079 23.0976 17.486 23.5316 18.4782 23.5316C19.4083 23.5316 19.7803 23.3456 19.7803 23.3456L20.0284 22.1674C20.0284 22.1674 19.3463 22.4775 18.7262 22.4775C17.362 22.4775 17.61 21.4853 17.61 21.4853H20.1524C20.1524 21.4853 20.3384 20.6792 20.3384 20.3692C20.3384 19.5631 19.9044 18.571 18.5402 18.571C17.238 18.4469 16.3079 19.8111 16.3079 21.3613ZM18.4782 19.5631C19.1603 19.5631 19.0362 20.3692 19.0362 20.4312H17.6721C17.6721 20.3692 17.7961 19.5631 18.4782 19.5631Z" fill="white"/>
<path d="M26.3538 23.3456L26.6019 21.9814C26.6019 21.9814 25.9818 22.2915 25.5477 22.2915C24.6796 22.2915 24.3075 21.6094 24.3075 20.8653C24.3075 19.3771 25.0516 18.571 25.9198 18.571C26.5399 18.571 27.0359 18.943 27.0359 18.943L27.222 17.6409C27.222 17.6409 26.4778 17.3308 25.7958 17.3308C24.3696 17.3308 22.9434 18.571 22.9434 20.9273C22.9434 22.4775 23.6875 23.5316 25.1757 23.5316C25.6717 23.5316 26.3538 23.3456 26.3538 23.3456Z" fill="white"/>
<path d="M9.05311 18.447C8.18499 18.447 7.5649 18.6951 7.5649 18.6951L7.37887 19.7492C7.37887 19.7492 7.93695 19.5012 8.74307 19.5012C9.17713 19.5012 9.54918 19.5632 9.54918 19.9352C9.54918 20.1833 9.48717 20.2453 9.48717 20.2453C9.48717 20.2453 9.11512 20.2453 8.92909 20.2453C7.87494 20.2453 6.69678 20.6793 6.69678 22.1055C6.69678 23.2217 7.44088 23.4697 7.87494 23.4697C8.74307 23.4697 9.11512 22.9116 9.17713 22.9116L9.11512 23.4077H10.2313L10.7273 19.9972C10.7273 18.509 9.48717 18.447 9.05311 18.447ZM9.30115 21.2374C9.30115 21.4234 9.17713 22.4155 8.43302 22.4155C8.06097 22.4155 7.93695 22.1055 7.93695 21.9195C7.93695 21.6094 8.12298 21.1754 9.05311 21.1754C9.23914 21.2374 9.30115 21.2374 9.30115 21.2374Z" fill="white"/>
<path d="M11.9057 23.4697C12.2157 23.4697 13.7659 23.5317 13.7659 21.8575C13.7659 20.3073 12.2777 20.6173 12.2777 19.9972C12.2777 19.6872 12.5258 19.5632 12.9598 19.5632C13.1459 19.5632 13.828 19.6252 13.828 19.6252L14.014 18.509C14.014 18.509 13.5799 18.385 12.8358 18.385C11.9057 18.385 10.9756 18.7571 10.9756 19.9972C10.9756 21.4234 12.5258 21.2994 12.5258 21.8575C12.5258 22.2295 12.0917 22.2915 11.7817 22.2915C11.2236 22.2915 10.6655 22.1055 10.6655 22.1055L10.4795 23.2217C10.5415 23.3457 10.8515 23.4697 11.9057 23.4697Z" fill="white"/>
<path d="M36.6468 17.4548L36.3988 19.1291C36.3988 19.1291 35.9027 18.509 35.2206 18.509C34.1044 18.509 33.1123 19.8732 33.1123 21.4854C33.1123 22.4775 33.6084 23.5317 34.6625 23.5317C35.4066 23.5317 35.8407 23.0356 35.8407 23.0356L35.7787 23.4697H37.0189L37.949 17.5168L36.6468 17.4548ZM36.0887 20.7413C36.0887 21.4234 35.7787 22.2915 35.0966 22.2915C34.6625 22.2915 34.4145 21.9195 34.4145 21.2994C34.4145 20.3072 34.8485 19.6871 35.4066 19.6871C35.8407 19.6871 36.0887 19.9972 36.0887 20.7413Z" fill="white"/>
<path d="M2.29389 23.4077L3.03799 18.943L3.16201 23.4077H4.03013L5.64235 18.943L4.96026 23.4077H6.26244L7.25457 17.4548H5.20829L3.96812 21.1133L3.90611 17.4548H2.10786L1.11572 23.4077H2.29389Z" fill="white"/>
<path d="M21.517 23.4076C21.8891 21.3613 21.9511 19.6871 22.8192 19.9971C22.9432 19.191 23.1292 18.881 23.2533 18.5709C23.2533 18.5709 23.1913 18.5709 23.0052 18.5709C22.4472 18.5709 22.0131 19.315 22.0131 19.315L22.1371 18.6329H20.9589L20.1528 23.4696H21.517V23.4076Z" fill="white"/>
<path d="M29.2057 18.447C28.3376 18.447 27.7175 18.6951 27.7175 18.6951L27.5315 19.7492C27.5315 19.7492 28.0895 19.5012 28.8957 19.5012C29.3297 19.5012 29.7018 19.5632 29.7018 19.9352C29.7018 20.1833 29.6398 20.2453 29.6398 20.2453C29.6398 20.2453 29.2677 20.2453 29.0817 20.2453C28.0275 20.2453 26.8494 20.6793 26.8494 22.1055C26.8494 23.2217 27.5935 23.4697 28.0275 23.4697C28.8957 23.4697 29.2677 22.9116 29.3297 22.9116L29.2677 23.4077H30.3839L30.8799 19.9972C30.9419 18.509 29.6398 18.447 29.2057 18.447ZM29.5157 21.2374C29.5157 21.4234 29.3917 22.4155 28.6476 22.4155C28.2756 22.4155 28.1515 22.1055 28.1515 21.9195C28.1515 21.6094 28.3376 21.1754 29.2677 21.1754C29.4537 21.2374 29.4537 21.2374 29.5157 21.2374Z" fill="white"/>
<path d="M31.9343 23.4076C32.3063 21.3613 32.3683 19.6871 33.2364 19.9971C33.3605 19.191 33.5465 18.881 33.6705 18.5709C33.6705 18.5709 33.6085 18.5709 33.4225 18.5709C32.8644 18.5709 32.4303 19.315 32.4303 19.315L32.5543 18.6329H31.3762L30.5701 23.4696H31.9343V23.4076Z" fill="white"/>
<path d="M13.9521 22.4776C13.9521 23.2217 14.3862 23.5317 14.9443 23.5317C15.3783 23.5317 15.7504 23.4077 15.8744 23.3457L16.0604 22.2915C15.9984 22.2915 15.8744 22.3535 15.7504 22.3535C15.3163 22.3535 15.2543 22.1055 15.3163 21.9815L15.6884 19.8112H16.3705L16.5565 18.633H15.9364L16.0604 17.8889" fill="#DCE5E5"/>
<path d="M16.9277 21.3613C16.9277 23.0976 17.4858 23.5316 18.478 23.5316C19.4081 23.5316 19.7801 23.3456 19.7801 23.3456L20.0282 22.1674C20.0282 22.1674 19.3461 22.4775 18.726 22.4775C17.3618 22.4775 17.6098 21.4853 17.6098 21.4853H20.1522C20.1522 21.4853 20.3382 20.6792 20.3382 20.3692C20.3382 19.5631 19.9042 18.571 18.54 18.571C17.2378 18.4469 16.9277 19.8111 16.9277 21.3613ZM18.478 19.5631C19.16 19.5631 19.2841 20.3692 19.2841 20.4312H17.6718C17.6718 20.3692 17.7959 19.5631 18.478 19.5631Z" fill="#DCE5E5"/>
<path d="M26.3541 23.3456L26.6021 21.9814C26.6021 21.9814 25.9821 22.2915 25.548 22.2915C24.6799 22.2915 24.3078 21.6094 24.3078 20.8653C24.3078 19.3771 25.0519 18.571 25.92 18.571C26.5401 18.571 27.0362 18.943 27.0362 18.943L27.2222 17.6409C27.2222 17.6409 26.4781 17.3308 25.796 17.3308C24.3698 17.3308 23.5637 18.571 23.5637 20.9273C23.5637 22.4775 23.6877 23.5316 25.1759 23.5316C25.672 23.5316 26.3541 23.3456 26.3541 23.3456Z" fill="#DCE5E5"/>
<path d="M7.37887 19.8111C7.37887 19.8111 7.93695 19.5631 8.74307 19.5631C9.17713 19.5631 9.54918 19.6251 9.54918 19.9971C9.54918 20.2451 9.48717 20.3072 9.48717 20.3072C9.48717 20.3072 9.11512 20.3072 8.92909 20.3072C7.87494 20.3072 6.69678 20.7412 6.69678 22.1674C6.69678 23.2836 7.44088 23.5316 7.87494 23.5316C8.74307 23.5316 9.11512 22.9735 9.17713 22.9735L9.11512 23.4696H10.2313L10.7273 20.0591C10.7273 18.6329 9.48717 18.5709 8.9911 18.5709L7.37887 19.8111ZM9.92123 21.2373C9.92123 21.4233 9.17713 22.4154 8.43302 22.4154C8.06097 22.4154 7.93695 22.1054 7.93695 21.9194C7.93695 21.6093 8.12298 21.1753 9.05311 21.1753C9.23914 21.2373 9.92123 21.2373 9.92123 21.2373Z" fill="#DCE5E5"/>
<path d="M10.5417 23.3457C10.5417 23.3457 10.9138 23.4697 11.9679 23.4697C12.278 23.4697 13.8282 23.5317 13.8282 21.8575C13.8282 20.3073 12.34 20.6173 12.34 19.9972C12.34 19.6872 12.588 19.5632 13.0221 19.5632C13.2081 19.5632 13.8902 19.6252 13.8902 19.6252L14.0762 18.509C14.0762 18.509 13.6422 18.385 12.8981 18.385C11.9679 18.385 11.6579 18.7571 11.6579 19.9972C11.6579 21.4234 12.588 21.2994 12.588 21.8575C12.588 22.2295 12.154 22.2915 11.8439 22.2915" fill="#DCE5E5"/>
<path d="M36.3981 19.1291C36.3981 19.1291 35.9021 18.509 35.22 18.509C34.1038 18.509 33.7318 19.8732 33.7318 21.4854C33.7318 22.4775 33.6078 23.5317 34.6619 23.5317C35.406 23.5317 35.8401 23.0356 35.8401 23.0356L35.7781 23.4696H37.0182L37.9483 17.5168L36.3981 19.1291ZM36.3361 20.7413C36.3361 21.4234 35.7781 22.2915 35.096 22.2915C34.6619 22.2915 34.4139 21.9194 34.4139 21.2994C34.4139 20.3072 34.8479 19.6871 35.406 19.6871C35.8401 19.6871 36.3361 19.9972 36.3361 20.7413Z" fill="#DCE5E5"/>
<path d="M2.29389 23.4077L3.03799 18.943L3.16201 23.4077H4.03013L5.64235 18.943L4.96026 23.4077H6.26244L7.25457 17.4548H5.70436L3.96812 21.1133L3.90611 17.4548H3.22401L1.11572 23.4077H2.29389Z" fill="#DCE5E5"/>
<path d="M20.2141 23.4076H21.5163C21.8883 21.3613 21.9504 19.6871 22.8185 19.9971C22.9425 19.191 23.1285 18.881 23.2525 18.5709C23.2525 18.5709 23.1905 18.5709 23.0045 18.5709C22.4464 18.5709 22.0124 19.315 22.0124 19.315L22.1364 18.6329" fill="#DCE5E5"/>
<path d="M27.5315 19.8111C27.5315 19.8111 28.0895 19.5631 28.8956 19.5631C29.3297 19.5631 29.7018 19.6251 29.7018 19.9971C29.7018 20.2451 29.6398 20.3072 29.6398 20.3072C29.6398 20.3072 29.2677 20.3072 29.0817 20.3072C28.0275 20.3072 26.8494 20.7412 26.8494 22.1674C26.8494 23.2836 27.5935 23.5316 28.0275 23.5316C28.8957 23.5316 29.2677 22.9735 29.3297 22.9735L29.2677 23.4696H30.3839L30.8799 20.0591C30.8799 18.6329 29.6398 18.5709 29.1437 18.5709L27.5315 19.8111ZM30.0738 21.2373C30.0738 21.4233 29.3297 22.4154 28.5856 22.4154C28.2136 22.4154 28.0895 22.1054 28.0895 21.9194C28.0895 21.6093 28.2756 21.1753 29.2057 21.1753C29.4537 21.2373 30.0738 21.2373 30.0738 21.2373Z" fill="#DCE5E5"/>
<path d="M30.6323 23.4076H31.9345C32.3066 21.3613 32.3686 19.6871 33.2367 19.9971C33.3607 19.191 33.5467 18.881 33.6707 18.5709C33.6707 18.5709 33.6087 18.5709 33.4227 18.5709C32.8646 18.5709 32.4306 19.315 32.4306 19.315L32.5546 18.6329" fill="#DCE5E5"/>
</g>
<defs>
<clipPath id="clip0">
<rect width="39.0654" height="39.0654" fill="white" transform="translate(0 0.836426)"/>
</clipPath>
</defs>
</svg>
