<svg width="15" height="15" viewBox="0 0 15 15" fill="none" xmlns="http://www.w3.org/2000/svg">
<path d="M7.5 15C11.6355 15 15 11.6355 15 7.5C15 3.3645 11.6355 0 7.5 0C3.3645 0 0 3.3645 0 7.5C0 11.6355 3.3645 15 7.5 15ZM3.60925 7.2935L9.10925 3.5435C9.1515 3.51475 9.20075 3.5 9.25 3.5C9.29 3.5 9.33025 3.5095 9.36675 3.529C9.44875 3.57225 9.5 3.65725 9.5 3.75L9.5 11.25C9.5 11.3427 9.44875 11.4277 9.36675 11.471C9.28475 11.5145 9.18575 11.5085 9.109 11.4565L3.609 7.7065C3.541 7.66 3.5 7.58275 3.5 7.5C3.5 7.41725 3.541 7.34 3.60925 7.2935Z" fill="#053F7C"/>
</svg>
