<svg width="96" height="12" viewBox="0 0 96 12" fill="none" xmlns="http://www.w3.org/2000/svg">
<path d="M13.4167 5.4382C13.6866 5.19793 13.7819 4.8453 13.6655 4.51749C13.5488 4.18969 13.2448 3.95569 12.8713 3.90603L9.55068 3.46537C9.40925 3.44656 9.28705 3.36555 9.22389 3.24842L7.73933 0.500606C7.57264 0.191866 7.23432 0 6.85728 0C6.48051 0 6.14219 0.191866 5.9755 0.500606L4.49067 3.24867C4.42751 3.3658 4.30504 3.44681 4.16361 3.46562L0.843002 3.90628C0.469804 3.95569 0.165534 4.18994 0.048824 4.51774C-0.0676115 4.84555 0.0276788 5.19818 0.297622 5.43845L2.7002 7.57731C2.80263 7.6686 2.84959 7.80002 2.82543 7.92844L2.25863 10.9486C2.20837 11.2145 2.28472 11.4731 2.4731 11.677C2.76584 11.9947 3.27689 12.0915 3.68551 11.8954L6.65517 10.4693C6.77929 10.4099 6.93554 10.4104 7.05939 10.4693L10.0293 11.8954C10.1738 11.9649 10.3278 12 10.4868 12C10.7771 12 11.0523 11.8821 11.2415 11.677C11.4301 11.4731 11.5062 11.214 11.4559 10.9486L10.8889 7.92844C10.8647 7.79977 10.9117 7.6686 11.0141 7.57731L13.4167 5.4382Z" fill="#FBC91A"/>
<path d="M33.9881 5.4382C34.258 5.19793 34.3533 4.8453 34.2369 4.51749C34.1202 4.18969 33.8162 3.95569 33.4427 3.90603L30.1221 3.46537C29.9807 3.44656 29.8585 3.36555 29.7953 3.24842L28.3108 0.500606C28.1441 0.191866 27.8058 0 27.4287 0C27.052 0 26.7136 0.191866 26.5469 0.500606L25.0621 3.24867C24.999 3.3658 24.8765 3.44681 24.7351 3.46562L21.4144 3.90628C21.0412 3.95569 20.737 4.18994 20.6203 4.51774C20.5038 4.84555 20.5991 5.19818 20.8691 5.43845L23.2716 7.57731C23.3741 7.6686 23.421 7.80002 23.3969 7.92844L22.8301 10.9486C22.7798 11.2145 22.8562 11.4731 23.0445 11.677C23.3373 11.9947 23.8483 12.0915 24.257 11.8954L27.2266 10.4693C27.3507 10.4099 27.507 10.4104 27.6308 10.4693L30.6008 11.8954C30.7452 11.9649 30.8993 12 31.0583 12C31.3485 12 31.6237 11.8821 31.8129 11.677C32.0016 11.4731 32.0776 11.214 32.0274 10.9486L31.4603 7.92844C31.4361 7.79977 31.4831 7.6686 31.5855 7.57731L33.9881 5.4382Z" fill="#FBC91A"/>
<path d="M54.5595 5.4382C54.8295 5.19793 54.9247 4.8453 54.8083 4.51749C54.6916 4.18969 54.3876 3.95569 54.0141 3.90603L50.6935 3.46537C50.5521 3.44656 50.4299 3.36555 50.3667 3.24842L48.8822 0.500606C48.7155 0.191866 48.3772 0 48.0001 0C47.6234 0 47.285 0.191866 47.1184 0.500606L45.6335 3.24867C45.5704 3.3658 45.4479 3.44681 45.3065 3.46562L41.9859 3.90628C41.6127 3.95569 41.3084 4.18994 41.1917 4.51774C41.0752 4.84555 41.1705 5.19818 41.4405 5.43845L43.8431 7.57731C43.9455 7.6686 43.9924 7.80002 43.9683 7.92844L43.4015 10.9486C43.3512 11.2145 43.4276 11.4731 43.616 11.677C43.9087 11.9947 44.4197 12.0915 44.8284 11.8954L47.798 10.4693C47.9221 10.4099 48.0784 10.4104 48.2022 10.4693L51.1722 11.8954C51.3166 11.9649 51.4707 12 51.6297 12C51.9199 12 52.1951 11.8821 52.3843 11.677C52.573 11.4731 52.649 11.214 52.5988 10.9486L52.0317 7.92844C52.0075 7.79977 52.0545 7.6686 52.1569 7.57731L54.5595 5.4382Z" fill="#FBC91A"/>
<path d="M75.131 5.4382C75.4009 5.19793 75.4962 4.8453 75.3798 4.51749C75.263 4.18969 74.9591 3.95569 74.5856 3.90603L71.265 3.46537C71.1235 3.44656 71.0013 3.36555 70.9382 3.24842L69.4536 0.500606C69.2869 0.191866 68.9486 0 68.5716 0C68.1948 0 67.8565 0.191866 67.6898 0.500606L66.205 3.24867C66.1418 3.3658 66.0193 3.44681 65.8779 3.46562L62.5573 3.90628C62.1841 3.95569 61.8798 4.18994 61.7631 4.51774C61.6467 4.84555 61.742 5.19818 62.0119 5.43845L64.4145 7.57731C64.5169 7.6686 64.5639 7.80002 64.5397 7.92844L63.9729 10.9486C63.9227 11.2145 63.999 11.4731 64.1874 11.677C64.4801 11.9947 64.9912 12.0915 65.3998 11.8954L68.3695 10.4693C68.4936 10.4099 68.6498 10.4104 68.7737 10.4693L71.7436 11.8954C71.8881 11.9649 72.0421 12 72.2011 12C72.4914 12 72.7665 11.8821 72.9558 11.677C73.1444 11.4731 73.2205 11.214 73.1702 10.9486L72.6032 7.92844C72.579 7.79977 72.6259 7.6686 72.7284 7.57731L75.131 5.4382Z" fill="#FBC91A"/>
<path d="M95.7024 5.4382C95.9723 5.19793 96.0676 4.8453 95.9512 4.51749C95.8345 4.18969 95.5305 3.95569 95.157 3.90603L91.8364 3.46537C91.695 3.44656 91.5728 3.36555 91.5096 3.24842L90.025 0.500606C89.8583 0.191866 89.52 0 89.143 0C88.7662 0 88.4279 0.191866 88.2612 0.500606L86.7764 3.24867C86.7132 3.3658 86.5907 3.44681 86.4493 3.46562L83.1287 3.90628C82.7555 3.95569 82.4512 4.18994 82.3345 4.51774C82.2181 4.84555 82.3134 5.19818 82.5833 5.43845L84.9859 7.57731C85.0883 7.6686 85.1353 7.80002 85.1111 7.92844L84.5443 10.9486C84.4941 11.2145 84.5704 11.4731 84.7588 11.677C85.0515 11.9947 85.5626 12.0915 85.9712 11.8954L88.9409 10.4693C89.065 10.4099 89.2212 10.4104 89.3451 10.4693L92.315 11.8954C92.4595 11.9649 92.6135 12 92.7725 12C93.0628 12 93.338 11.8821 93.5272 11.677C93.7158 11.4731 93.7919 11.214 93.7416 10.9486L93.1746 7.92844C93.1504 7.79977 93.1974 7.6686 93.2998 7.57731L95.7024 5.4382Z" fill="#FBC91A"/>
</svg>
