<svg width="32" height="28" viewBox="0 0 32 28" fill="none" xmlns="http://www.w3.org/2000/svg">
<path d="M24.7974 10.3254L17.008 6.04818C16.891 5.98394 16.7491 5.98394 16.6321 6.04818L13.6961 7.66027C13.6342 7.6766 13.5763 7.70773 13.5284 7.75244L8.84291 10.3254C8.71794 10.3939 8.64027 10.5251 8.64027 10.6678V15.8408C7.84987 16.088 7.12553 16.524 6.52327 17.1264C4.95344 18.696 4.5532 21.0902 5.52733 23.0837C5.62193 23.2775 5.85585 23.3579 6.04963 23.2632C6.24357 23.1684 6.32384 22.9345 6.22923 22.7407C5.40159 21.0468 5.74171 19.0127 7.07564 17.6787C7.90983 16.8445 9.01884 16.3851 10.1985 16.3851C11.3782 16.3851 12.4872 16.8445 13.3214 17.6787C14.1554 18.5128 14.6149 19.6218 14.6149 20.8015C14.6149 21.9811 14.1554 23.0901 13.3212 23.9243C11.9873 25.2582 9.95314 25.5984 8.25926 24.7707C8.06547 24.676 7.83156 24.7564 7.73695 24.9502C7.6422 25.1441 7.72246 25.378 7.9164 25.4726C8.64256 25.8276 9.42168 26 10.1951 26C11.5445 25.9998 12.8758 25.4746 13.8737 24.4767C14.3313 24.0191 14.693 23.4911 14.9489 22.9172L16.6321 23.8415C16.6907 23.8737 16.7554 23.8897 16.8201 23.8897C16.8848 23.8897 16.9496 23.8737 17.008 23.8415L24.7974 19.5644C24.9223 19.4958 25 19.3645 25 19.222V16.5073C25 16.2916 24.8251 16.1167 24.6094 16.1167C24.3936 16.1167 24.2187 16.2916 24.2187 16.5073V18.9908L17.2119 22.8384V15.1754L19.5244 13.9055V15.9185C19.5244 16.0567 19.5973 16.1846 19.7162 16.2548C19.7775 16.291 19.8462 16.3091 19.915 16.3091C19.9797 16.3091 20.0445 16.2931 20.1033 16.2607L21.7725 15.342C21.8973 15.2733 21.9746 15.1423 21.9746 14.9999V12.56L24.2187 11.3279V13.3825C24.2187 13.5982 24.3936 13.7731 24.6094 13.7731C24.8251 13.7731 25 13.5982 25 13.3825V10.6678C25 10.5253 24.9223 10.3939 24.7974 10.3254V10.3254ZM16.8201 6.83614L23.7978 10.6678L21.5967 11.8764L14.619 8.04479L16.8201 6.83614ZM16.8201 14.4993L9.84236 10.6678L12.1242 9.41473L19.102 13.2462L16.8201 14.4993ZM19.9135 12.8007L12.9358 8.96917L13.8074 8.4905L20.7852 12.322L19.9135 12.8007ZM13.8737 17.1264C12.892 16.1446 11.5867 15.604 10.1985 15.604C9.9359 15.604 9.6765 15.6234 9.42152 15.6614V11.3279L16.4308 15.1768V22.8397L15.2142 22.1717C15.334 21.7307 15.396 21.2708 15.396 20.8015C15.396 19.4132 14.8553 18.108 13.8737 17.1264V17.1264ZM21.1935 14.769L20.3056 15.2578V13.4766L21.1935 12.9891V14.769Z" fill="black"/>
<path d="M24.6094 14.5525C24.5067 14.5525 24.4058 14.5943 24.3332 14.6669C24.2606 14.7396 24.2188 14.8403 24.2188 14.9431C24.2188 15.0458 24.2606 15.1465 24.3332 15.2191C24.4058 15.2919 24.5067 15.3336 24.6094 15.3336C24.7121 15.3336 24.8129 15.2919 24.8856 15.2191C24.9582 15.1465 25 15.0458 25 14.9431C25 14.8403 24.9582 14.7396 24.8856 14.6669C24.8129 14.5943 24.7121 14.5525 24.6094 14.5525Z" fill="black"/>
<path d="M8.88502 21.192C8.98496 21.192 9.08506 21.1539 9.1612 21.0777C9.31379 20.9252 9.31379 20.6778 9.1612 20.5252L8.89066 20.2545H11.1993C11.7593 20.2545 12.2149 20.7102 12.2149 21.2702C12.2149 21.8301 11.7593 22.2858 11.1993 22.2858H9.83137C9.61561 22.2858 9.44074 22.4606 9.44074 22.6764C9.44074 22.892 9.61561 23.0669 9.83137 23.0669H11.1993C12.1901 23.0669 12.9962 22.2609 12.9962 21.2702C12.9962 20.2794 12.1901 19.4734 11.1993 19.4734H8.89066L9.1612 19.2027C9.31379 19.0501 9.31379 18.8028 9.1612 18.6502C9.00877 18.4978 8.76142 18.4978 8.60883 18.6502L7.67133 19.5877C7.5189 19.7403 7.5189 19.9876 7.67133 20.1402L8.60883 21.0776C8.68513 21.1539 8.78507 21.192 8.88502 21.192V21.192Z" fill="black"/>
<path d="M6.79974 24.5917C6.68866 24.5917 6.57834 24.5444 6.50128 24.4527L6.50052 24.4518C6.36166 24.2867 6.38303 24.0404 6.54813 23.9016C6.71323 23.7626 6.95966 23.7839 7.09851 23.949C7.23721 24.1143 7.21631 24.361 7.05121 24.4999C6.97781 24.5615 6.88855 24.5917 6.79974 24.5917Z" fill="black"/>
<rect x="0.5" y="0.5" width="31" height="27" stroke="#E5E5E5"/>
</svg>
