<svg width="32" height="28" viewBox="0 0 32 28" fill="none" xmlns="http://www.w3.org/2000/svg">
<path d="M22.8119 17.6204C23.6576 16.336 24.1506 14.7999 24.1506 13.1504C24.1506 8.65624 20.4942 5 16 5C11.5058 5 7.84958 8.65624 7.84958 13.1504C7.84958 14.7999 8.34259 16.336 9.18809 17.6204L6 22.2699L9.64806 21.5897L10.3284 25.2378L13.3349 20.8529C14.1705 21.1429 15.0671 21.3008 16 21.3008C16.9331 21.3008 17.8297 21.1429 18.6651 20.8529L21.6718 25.2378L22.3519 21.5897L26 22.2699L22.8119 17.6204ZM10.973 22.1883L10.602 20.1984L8.61217 20.5696L9.95485 18.6113C10.5979 19.3225 11.3645 19.9197 12.2202 20.3696L10.973 22.1883ZM9.04234 13.1504C9.04234 9.31399 12.1636 6.19276 16 6.19276C19.8366 6.19276 22.9578 9.31399 22.9578 13.1504C22.9578 16.987 19.8366 20.1082 16 20.1082C12.1636 20.1082 9.04234 16.987 9.04234 13.1504V13.1504ZM21.398 20.1984L21.027 22.1883L19.7799 20.3696C20.6356 19.9197 21.4022 19.3225 22.0453 18.6113L23.388 20.5694L21.398 20.1984Z" fill="black"/>
<path d="M14.5471 14.9404L12.6078 13.0013L11.7644 13.8446L14.5471 16.6273L20.2357 10.9388L19.3924 10.0955L14.5471 14.9404Z" fill="black"/>
<rect x="0.5" y="0.5" width="31" height="27" stroke="#E5E5E5"/>
</svg>
