<svg width="52" height="52" viewBox="0 0 52 52" fill="none" xmlns="http://www.w3.org/2000/svg">
<path d="M36.8334 22.5985V6.50016C36.8334 5.3085 35.8584 4.3335 34.6667 4.3335H17.3334C16.1417 4.3335 15.1667 5.3085 15.1667 6.50016V22.5985C15.1667 23.3568 15.5567 24.0718 16.2284 24.4618L25.2851 29.9002L23.1401 34.9702L18.3301 35.3818C17.3334 35.4685 16.9434 36.6602 17.6801 37.2885L21.3417 40.4518L20.2367 45.1752C20.0201 46.1068 21.0384 46.8435 21.8617 46.3452L26.0001 43.8318L30.1384 46.3235C30.9617 46.8218 31.9801 46.0852 31.7634 45.1535L30.6584 40.4302L34.3201 37.2668C35.0351 36.6385 34.6667 35.4468 33.6917 35.3602L28.8817 34.9485L26.7367 29.8785L35.7934 24.4402C36.4434 24.0718 36.8334 23.3785 36.8334 22.5985ZM28.1667 26.4985L26.0001 27.7985L23.8334 26.4985V6.50016H28.1667V26.4985Z" fill="#043E7D"/>
</svg>
