<svg width="26" height="18" viewBox="0 0 26 18" fill="none" xmlns="http://www.w3.org/2000/svg">
<path d="M17.5437 7.53987L19.5056 3.17193C19.6439 2.86226 19.7937 2.55259 19.9205 2.24564C20.0485 1.8928 20.2523 1.56852 20.519 1.29312C20.7858 1.01771 21.1098 0.797044 21.4709 0.644861C21.8321 0.492684 22.2226 0.412249 22.6182 0.408579C23.0137 0.404909 23.4058 0.478078 23.7701 0.623525C24.1343 0.768971 24.4629 0.983586 24.7354 1.25399C25.0078 1.52438 25.2182 1.8448 25.3536 2.19525C25.4889 2.54569 25.5464 2.91865 25.5221 3.29092C25.498 3.66319 25.3927 4.02674 25.213 4.35899C24.1585 6.73311 23.0868 9.09904 22.0237 11.484C21.4245 12.8168 20.8281 14.1524 20.2345 15.4907C20.0283 16.0078 19.6597 16.4533 19.1778 16.7679C18.696 17.0824 18.1239 17.2508 17.5379 17.2508C16.9519 17.2508 16.3798 17.0824 15.898 16.7679C15.4162 16.4533 15.0476 16.0078 14.8412 15.4907L12.6084 10.4817C12.571 10.3974 12.5278 10.3133 12.4586 10.1747C12.3751 10.3486 12.3117 10.4708 12.257 10.5958C11.5252 12.2473 10.7876 13.907 10.0299 15.5586C9.90212 15.9132 9.69783 16.2392 9.42999 16.5158C9.16215 16.7925 8.83654 17.014 8.47354 17.1663C8.11053 17.3186 7.71808 17.3985 7.3208 17.4009C6.92346 17.4034 6.52993 17.3283 6.16488 17.1804C5.79984 17.0326 5.47118 16.8151 5.19955 16.5418C4.92791 16.2684 4.71919 15.945 4.58648 15.5919C4.45378 15.2388 4.39996 14.8637 4.42842 14.4901C4.45688 14.1164 4.567 13.7524 4.75186 13.4208C5.71222 11.2477 6.68122 9.08545 7.65884 6.93412C8.35602 5.36676 9.05036 3.79668 9.76485 2.24837C9.95285 1.81795 10.2541 1.43979 10.64 1.14949C11.0259 0.859209 11.4839 0.66638 11.9708 0.589192C12.4577 0.512004 12.9574 0.553003 13.4228 0.708321C13.8882 0.863639 14.304 1.12815 14.6309 1.47692C14.8739 1.74989 15.0685 2.05812 15.2071 2.38962C15.9591 4.01947 16.688 5.67371 17.4256 7.31441C17.4572 7.36599 17.4889 7.42575 17.5437 7.53987Z" fill="#053F7C"/>
<path d="M3.30563 9.78365C2.66317 8.73516 2.05526 7.73012 1.4416 6.73048C1.1535 6.25238 0.833701 5.77974 0.534073 5.30983C-0.168901 4.19339 -0.19483 3.06342 0.557122 1.97684C0.875535 1.47178 1.34882 1.06956 1.91458 0.823221C2.48034 0.576874 3.11199 0.497985 3.72627 0.596943C4.37427 0.65678 4.98639 0.905556 5.47745 1.30867C5.96849 1.71179 6.31407 2.24917 6.46615 2.8461C6.59134 3.24255 6.62629 3.65944 6.56869 4.06954C6.5111 4.47958 6.36225 4.87357 6.13192 5.22562C5.25418 6.65804 4.37162 8.08955 3.48426 9.52021C3.43816 9.58264 3.38919 9.65599 3.30563 9.78365Z" fill="#FF5757"/>
</svg>
