<svg width="84" height="12" viewBox="0 0 84 12" fill="none" xmlns="http://www.w3.org/2000/svg">
<path d="M22.984 2.408H25.888C26.784 2.408 27.564 2.588 28.228 2.948C28.892 3.308 29.404 3.812 29.764 4.46C30.124 5.108 30.304 5.856 30.304 6.704C30.304 7.552 30.124 8.3 29.764 8.948C29.404 9.596 28.892 10.1 28.228 10.46C27.564 10.82 26.784 11 25.888 11H22.984V2.408ZM25.816 9.464C26.744 9.464 27.452 9.22 27.94 8.732C28.428 8.236 28.672 7.56 28.672 6.704C28.672 5.848 28.428 5.176 27.94 4.688C27.452 4.192 26.744 3.944 25.816 3.944H24.604V9.464H25.816ZM31.8434 2.408H33.4634V11H31.8434V2.408ZM38.0096 11.192C37.2576 11.192 36.5936 10.98 36.0176 10.556C35.4416 10.132 35.0376 9.532 34.8056 8.756L36.3296 8.156C36.4496 8.612 36.6536 8.976 36.9416 9.248C37.2296 9.52 37.5896 9.656 38.0216 9.656C38.3816 9.656 38.6896 9.568 38.9456 9.392C39.2016 9.208 39.3296 8.956 39.3296 8.636C39.3296 8.316 39.2056 8.056 38.9576 7.856C38.7176 7.648 38.2856 7.428 37.6616 7.196L37.1336 7.004C36.5816 6.812 36.1096 6.52 35.7176 6.128C35.3256 5.728 35.1296 5.228 35.1296 4.628C35.1296 4.18 35.2456 3.772 35.4776 3.404C35.7096 3.036 36.0376 2.748 36.4616 2.54C36.8856 2.324 37.3656 2.216 37.9016 2.216C38.6776 2.216 39.2896 2.4 39.7376 2.768C40.1856 3.128 40.4936 3.552 40.6616 4.04L39.2336 4.64C39.1456 4.376 38.9896 4.156 38.7656 3.98C38.5496 3.796 38.2696 3.704 37.9256 3.704C37.5736 3.704 37.2816 3.788 37.0496 3.956C36.8256 4.116 36.7136 4.328 36.7136 4.592C36.7136 4.848 36.8216 5.068 37.0376 5.252C37.2536 5.428 37.6096 5.6 38.1056 5.768L38.6456 5.948C39.3896 6.204 39.9576 6.544 40.3496 6.968C40.7496 7.384 40.9496 7.932 40.9496 8.612C40.9496 9.172 40.8056 9.648 40.5176 10.04C40.2296 10.424 39.8576 10.712 39.4016 10.904C38.9536 11.096 38.4896 11.192 38.0096 11.192ZM42.484 2.408H45.508C46.052 2.408 46.548 2.524 46.996 2.756C47.444 2.98 47.796 3.3 48.052 3.716C48.308 4.124 48.436 4.592 48.436 5.12C48.436 5.648 48.308 6.12 48.052 6.536C47.796 6.952 47.444 7.276 46.996 7.508C46.548 7.732 46.052 7.844 45.508 7.844H44.104V11H42.484V2.408ZM45.556 6.308C45.956 6.308 46.268 6.192 46.492 5.96C46.724 5.728 46.84 5.448 46.84 5.12C46.84 4.792 46.724 4.516 46.492 4.292C46.268 4.06 45.956 3.944 45.556 3.944H44.104V6.308H45.556ZM51.3765 2.408H53.2365L56.4645 11H54.6765L53.9565 8.948H50.6685L49.9485 11H48.1605L51.3765 2.408ZM53.4285 7.46L52.6725 5.3L52.3605 4.268H52.2645L51.9525 5.3L51.1845 7.46H53.4285ZM58.5795 3.944H56.1795V2.408H62.5995V3.944H60.1995V11H58.5795V3.944ZM67.5989 11.192C66.7669 11.192 66.0069 10.996 65.3189 10.604C64.6309 10.204 64.0869 9.664 63.6869 8.984C63.2949 8.296 63.0989 7.536 63.0989 6.704C63.0989 5.872 63.2949 5.116 63.6869 4.436C64.0869 3.748 64.6309 3.208 65.3189 2.816C66.0069 2.416 66.7669 2.216 67.5989 2.216C68.8949 2.216 69.9669 2.684 70.8149 3.62L69.6749 4.724C69.1229 4.076 68.4349 3.752 67.6109 3.752C67.0749 3.752 66.5869 3.876 66.1469 4.124C65.7069 4.364 65.3589 4.708 65.1029 5.156C64.8549 5.604 64.7309 6.12 64.7309 6.704C64.7309 7.288 64.8549 7.804 65.1029 8.252C65.3589 8.7 65.7069 9.048 66.1469 9.296C66.5869 9.536 67.0749 9.656 67.6109 9.656C68.5149 9.656 69.2709 9.28 69.8789 8.528L71.0309 9.62C70.6069 10.132 70.1029 10.524 69.5189 10.796C68.9429 11.06 68.3029 11.192 67.5989 11.192ZM72.5309 2.408H74.1509V5.84H77.7629V2.408H79.3829V11H77.7629V7.376H74.1509V11H72.5309V2.408Z" fill="#BBBBBB"/>
<path d="M6.66953 9.02083C5.83868 9.02083 5.16724 9.68842 5.16724 10.5116C5.16724 11.3324 5.83868 12 6.66953 12C7.50038 12 8.17182 11.3324 8.17182 10.5116C8.17179 9.68842 7.50038 9.02083 6.66953 9.02083ZM6.66953 11.2558C6.25409 11.2558 5.91835 10.9208 5.91835 10.5116C5.91835 10.1 6.25409 9.76736 6.66953 9.76736C7.08494 9.76736 7.42068 10.1 7.42068 10.5116C7.42065 10.9208 7.08494 11.2558 6.66953 11.2558ZM18 7.91967V9.50897C18 9.90542 17.6756 10.2268 17.2754 10.2268H16.5001C16.36 9.27443 15.5316 8.54221 14.5317 8.54221C13.5342 8.54221 12.7057 9.27446 12.5656 10.2268H8.63603C8.49594 9.27443 7.6675 8.54221 6.67 8.54221C5.6725 8.54221 4.84406 9.27446 4.704 10.2268H3.73306C3.33288 10.2268 3.0085 9.90545 3.0085 9.50897V7.91967H18ZM14.5336 9.02083C13.7028 9.02083 13.0289 9.68842 13.0289 10.5116C13.0289 11.3324 13.7028 12 14.5336 12C15.362 12 16.0359 11.3324 16.0359 10.5116C16.0359 9.68842 15.362 9.02083 14.5336 9.02083ZM14.5336 11.2558C14.1182 11.2558 13.7825 10.9208 13.7825 10.5116C13.7825 10.1 14.1182 9.76736 14.5336 9.76736C14.9466 9.76736 15.2848 10.1 15.2848 10.5116C15.2848 10.9208 14.9466 11.2558 14.5336 11.2558ZM17.7145 6.31921L14.8669 3.52907C14.6858 3.35199 14.4419 3.25149 14.1882 3.25149H12.7512V2.71785C12.7512 2.32065 12.4275 2 12.0266 2H3.73256C3.33403 2 3.008 2.32068 3.008 2.71785V2.83033L0.0676471 3.16608L5.27782 3.83827L0 4.35771L5.25924 5.09853L0 5.55031L3.00818 6.11241L3.00797 7.52285H17.9995V6.99878C17.9995 6.74273 17.8956 6.49868 17.7145 6.31921ZM16.4731 6.41252H13.7173C13.6545 6.41252 13.6037 6.36228 13.6037 6.30007V4.19191C13.6037 4.12969 13.6545 4.07943 13.7173 4.07943H14.2414C14.2704 4.07943 14.2994 4.0914 14.3211 4.11055L16.5504 6.21871C16.6252 6.28809 16.5745 6.41252 16.4731 6.41252Z" fill="#BBBBBB"/>
</svg>
