<svg width="72" height="12" viewBox="0 0 72 12" fill="none" xmlns="http://www.w3.org/2000/svg">
<path d="M20.576 11.192C19.824 11.192 19.16 10.98 18.584 10.556C18.008 10.132 17.604 9.532 17.372 8.756L18.896 8.156C19.016 8.612 19.22 8.976 19.508 9.248C19.796 9.52 20.156 9.656 20.588 9.656C20.948 9.656 21.256 9.568 21.512 9.392C21.768 9.208 21.896 8.956 21.896 8.636C21.896 8.316 21.772 8.056 21.524 7.856C21.284 7.648 20.852 7.428 20.228 7.196L19.7 7.004C19.148 6.812 18.676 6.52 18.284 6.128C17.892 5.728 17.696 5.228 17.696 4.628C17.696 4.18 17.812 3.772 18.044 3.404C18.276 3.036 18.604 2.748 19.028 2.54C19.452 2.324 19.932 2.216 20.468 2.216C21.244 2.216 21.856 2.4 22.304 2.768C22.752 3.128 23.06 3.552 23.228 4.04L21.8 4.64C21.712 4.376 21.556 4.156 21.332 3.98C21.116 3.796 20.836 3.704 20.492 3.704C20.14 3.704 19.848 3.788 19.616 3.956C19.392 4.116 19.28 4.328 19.28 4.592C19.28 4.848 19.388 5.068 19.604 5.252C19.82 5.428 20.176 5.6 20.672 5.768L21.212 5.948C21.956 6.204 22.524 6.544 22.916 6.968C23.316 7.384 23.516 7.932 23.516 8.612C23.516 9.172 23.372 9.648 23.084 10.04C22.796 10.424 22.424 10.712 21.968 10.904C21.52 11.096 21.056 11.192 20.576 11.192ZM29.1064 11.192C28.2664 11.192 27.5024 10.996 26.8144 10.604C26.1344 10.204 25.5984 9.66 25.2064 8.972C24.8144 8.284 24.6184 7.528 24.6184 6.704C24.6184 5.88 24.8144 5.124 25.2064 4.436C25.5984 3.748 26.1344 3.208 26.8144 2.816C27.5024 2.416 28.2664 2.216 29.1064 2.216C29.9464 2.216 30.7064 2.416 31.3864 2.816C32.0744 3.208 32.6144 3.748 33.0064 4.436C33.3984 5.124 33.5944 5.88 33.5944 6.704C33.5944 7.528 33.3984 8.284 33.0064 8.972C32.6144 9.66 32.0744 10.204 31.3864 10.604C30.7064 10.996 29.9464 11.192 29.1064 11.192ZM29.1064 9.656C29.6344 9.656 30.1184 9.532 30.5584 9.284C30.9984 9.036 31.3424 8.688 31.5904 8.24C31.8464 7.792 31.9744 7.28 31.9744 6.704C31.9744 6.128 31.8464 5.616 31.5904 5.168C31.3424 4.72 30.9984 4.372 30.5584 4.124C30.1184 3.876 29.6344 3.752 29.1064 3.752C28.5784 3.752 28.0944 3.876 27.6544 4.124C27.2224 4.372 26.8784 4.72 26.6224 5.168C26.3744 5.616 26.2504 6.128 26.2504 6.704C26.2504 7.28 26.3744 7.792 26.6224 8.24C26.8784 8.688 27.2224 9.036 27.6544 9.284C28.0944 9.532 28.5784 9.656 29.1064 9.656ZM39.0793 11.192C38.2473 11.192 37.4873 10.996 36.7993 10.604C36.1113 10.204 35.5673 9.664 35.1673 8.984C34.7753 8.296 34.5793 7.536 34.5793 6.704C34.5793 5.872 34.7753 5.116 35.1673 4.436C35.5673 3.748 36.1113 3.208 36.7993 2.816C37.4873 2.416 38.2473 2.216 39.0793 2.216C40.3753 2.216 41.4473 2.684 42.2953 3.62L41.1553 4.724C40.6033 4.076 39.9153 3.752 39.0913 3.752C38.5553 3.752 38.0673 3.876 37.6273 4.124C37.1873 4.364 36.8393 4.708 36.5833 5.156C36.3353 5.604 36.2113 6.12 36.2113 6.704C36.2113 7.288 36.3353 7.804 36.5833 8.252C36.8393 8.7 37.1873 9.048 37.6273 9.296C38.0673 9.536 38.5553 9.656 39.0913 9.656C39.9953 9.656 40.7513 9.28 41.3593 8.528L42.5113 9.62C42.0873 10.132 41.5833 10.524 40.9993 10.796C40.4233 11.06 39.7833 11.192 39.0793 11.192ZM44.0113 2.408H45.6313V11H44.0113V2.408ZM49.9976 2.408H51.8576L55.0856 11H53.2976L52.5776 8.948H49.2896L48.5696 11H46.7816L49.9976 2.408ZM52.0496 7.46L51.2936 5.3L50.9816 4.268H50.8856L50.5736 5.3L49.8056 7.46H52.0496ZM56.2457 2.408H57.8657V9.464H61.5017V11H56.2457V2.408ZM65.4471 11.192C64.6951 11.192 64.0311 10.98 63.4551 10.556C62.8791 10.132 62.4751 9.532 62.2431 8.756L63.7671 8.156C63.8871 8.612 64.0911 8.976 64.3791 9.248C64.6671 9.52 65.0271 9.656 65.4591 9.656C65.8191 9.656 66.1271 9.568 66.3831 9.392C66.6391 9.208 66.7671 8.956 66.7671 8.636C66.7671 8.316 66.6431 8.056 66.3951 7.856C66.1551 7.648 65.7231 7.428 65.0991 7.196L64.5711 7.004C64.0191 6.812 63.5471 6.52 63.1551 6.128C62.7631 5.728 62.5671 5.228 62.5671 4.628C62.5671 4.18 62.6831 3.772 62.9151 3.404C63.1471 3.036 63.4751 2.748 63.8991 2.54C64.3231 2.324 64.8031 2.216 65.3391 2.216C66.1151 2.216 66.7271 2.4 67.1751 2.768C67.6231 3.128 67.9311 3.552 68.0991 4.04L66.6711 4.64C66.5831 4.376 66.4271 4.156 66.2031 3.98C65.9871 3.796 65.7071 3.704 65.3631 3.704C65.0111 3.704 64.7191 3.788 64.4871 3.956C64.2631 4.116 64.1511 4.328 64.1511 4.592C64.1511 4.848 64.2591 5.068 64.4751 5.252C64.6911 5.428 65.0471 5.6 65.5431 5.768L66.0831 5.948C66.8271 6.204 67.3951 6.544 67.7871 6.968C68.1871 7.384 68.3871 7.932 68.3871 8.612C68.3871 9.172 68.2431 9.648 67.9551 10.04C67.6671 10.424 67.2951 10.712 66.8391 10.904C66.3911 11.096 65.9271 11.192 65.4471 11.192Z" fill="#BBBBBB"/>
<path d="M10.6259 6.18229C11.07 5.13166 11.4998 4.11287 11.9376 3.09089C12.0454 2.79823 12.2408 2.54589 12.4972 2.36817C12.7535 2.19045 13.0583 2.09597 13.3702 2.09757C13.6382 2.08951 13.9038 2.14965 14.1421 2.27235C14.3804 2.39506 14.5837 2.5763 14.7328 2.79907C14.8819 3.02185 14.972 3.27885 14.9945 3.54596C15.0171 3.81308 14.9714 4.08155 14.8618 4.32618C14.346 5.55987 13.8223 6.78879 13.3018 8.02089C12.907 8.95584 12.5138 9.88974 12.1222 10.8226C12.0044 11.1333 11.7924 11.3994 11.5157 11.5835C11.2391 11.7676 10.9118 11.8606 10.5797 11.8493C9.94295 11.8493 9.39217 11.445 9.12473 10.8051C8.70607 9.82288 8.29697 8.84388 7.88308 7.8633C7.86875 7.82827 7.85124 7.79484 7.821 7.73435C7.78757 7.79962 7.76051 7.84578 7.73981 7.89354C7.31956 8.88368 6.90568 9.87859 6.47747 10.8703C6.37699 11.1171 6.2156 11.3343 6.00838 11.5018C5.80115 11.6692 5.55485 11.7814 5.2925 11.8279C5.03015 11.8743 4.76032 11.8534 4.50821 11.7673C4.2561 11.6811 4.02995 11.5324 3.85089 11.3351C3.63328 11.1125 3.48903 10.8286 3.43752 10.5215C3.38601 10.2145 3.42972 9.89901 3.56277 9.61753C4.12947 8.26126 4.70572 6.91136 5.27879 5.55509C5.629 4.72733 5.97125 3.89478 6.33102 3.0702C6.43803 2.81586 6.60863 2.59331 6.82645 2.42392C7.04427 2.25452 7.30198 2.14398 7.57483 2.1029C7.84769 2.06182 8.12653 2.09158 8.38456 2.18933C8.6426 2.28708 8.87117 2.44953 9.04833 2.66109C9.17079 2.81447 9.27001 2.98503 9.34282 3.1673C9.75511 4.12242 10.1579 5.07754 10.5622 6.03265C10.5781 6.07723 10.5972 6.11702 10.6259 6.18229Z" fill="#BBBBBB"/>
<path d="M2.79722 8.55228L2.20982 7.16417C1.86279 6.34489 1.51417 5.52774 1.16396 4.7127C0.665711 3.54746 1.28017 2.34242 2.48362 2.11478C3.79054 1.876 4.92235 3.11129 4.53235 4.3816C4.35406 4.96899 4.08981 5.52137 3.8574 6.0833C3.53902 6.86331 3.20314 7.64014 2.87362 8.41697C2.85771 8.45517 2.83224 8.49019 2.79722 8.55228Z" fill="#BBBBBB"/>
</svg>
