<svg width="51" height="19" viewBox="0 0 51 19" fill="none" xmlns="http://www.w3.org/2000/svg">
<path d="M9.93838 9.13202L9.39474 4.28357L11.977 4.1331M9.93838 9.13202L11.977 4.1331M9.93838 9.13202H12.5207M11.977 4.1331L14.6952 3.97472M12.5207 9.13202C12.8468 9.13202 14.1063 5.69382 14.6952 3.97472M12.5207 9.13202H15.1029M14.6952 3.97472L17.4134 3.81634M15.1029 9.13202H17.8211L20.1316 3.65796L17.4134 3.81634M15.1029 9.13202L17.4134 3.81634" stroke="#043E7D" stroke-linecap="round" stroke-linejoin="round"/>
<ellipse cx="6.71053" cy="2.28893" rx="1.34211" ry="1.36852" fill="#043E7D"/>
<g clip-path="url(#clip0)">
<path d="M26.8963 10.6556C27.1676 10.5513 27.4469 10.4669 27.7367 10.5128C28.3358 10.6076 28.6811 11.2642 28.456 11.8781C28.2947 12.3221 28.1138 12.7588 27.9424 13.1986L26.7534 16.2324C26.74 16.2668 26.7319 16.3033 26.7206 16.3367L26.7082 16.3544H26.737C27.2891 16.1647 27.8402 15.975 28.3902 15.7853C28.7705 15.654 29.1486 15.5175 29.5309 15.3914C29.6335 15.357 29.6715 15.3132 29.6614 15.1996C29.5586 14.0219 30.3487 12.4992 31.5107 11.8885C33.8124 10.6775 36.26 12.1595 36.6391 14.3898L36.6668 14.5618C36.7059 14.7983 36.6174 14.9432 36.3893 15.0099L34.4299 15.5915L32.1766 16.2616L32.0626 16.2981C32.3174 16.5531 32.653 16.7082 33.01 16.7358C33.2931 16.769 33.5799 16.7284 33.8432 16.6179C34.1067 16.5074 34.338 16.3306 34.5153 16.1042C34.6746 15.9093 34.8009 15.8958 35.0198 16.0146C35.3208 16.1845 35.6229 16.3533 35.9229 16.5243C35.9726 16.5457 36.0166 16.5788 36.0512 16.6209C36.0858 16.6629 36.1101 16.7127 36.122 16.7661C36.1339 16.8196 36.1331 16.8751 36.1198 16.9281C36.1064 16.9812 36.0809 17.0303 36.0451 17.0714C35.7547 17.4908 35.3768 17.8401 34.9381 18.0944C34.4995 18.3488 34.011 18.502 33.5072 18.543C32.9418 18.6111 32.3686 18.5266 31.8457 18.2981C31.2418 18.0178 30.7198 17.5837 30.3303 17.0381C30.2706 16.9578 30.2274 16.9338 30.1339 16.9682C28.6811 17.4789 27.2278 17.9868 25.7743 18.4919C25.5956 18.5631 25.4126 18.6226 25.2266 18.6702C25.0912 18.6965 24.9516 18.6883 24.82 18.6464C24.6887 18.6045 24.5695 18.5302 24.4734 18.4302C24.377 18.3301 24.3068 18.2074 24.2687 18.073C24.2309 17.9387 24.2262 17.7968 24.2556 17.6603C24.3584 17.1558 24.5855 16.6962 24.7694 16.222C25.2092 15.0808 25.6601 13.9448 26.1051 12.8057C26.1215 12.764 26.1298 12.7181 26.1422 12.6754L26.8963 10.6556ZM34.3323 13.7363C33.8956 13.2715 33.0747 13.1548 32.4457 13.456C31.9855 13.6769 31.6977 14.0438 31.5385 14.5597L34.3323 13.7363Z" fill="#FF5757"/>
<path d="M26.8962 10.6555L26.1432 12.6753L23.5302 13.4966L22.9703 13.6727C23.069 13.9722 23.153 14.2766 23.222 14.5846C23.3499 15.2542 23.2785 15.9473 23.0164 16.5755C22.7543 17.2036 22.3137 17.7384 21.7507 18.1114C21.1879 18.4844 20.5281 18.6788 19.8556 18.6698C19.1833 18.6608 18.5288 18.4488 17.9757 18.0609C17.4226 17.6729 16.9961 17.1266 16.7505 16.4916C16.5049 15.8567 16.4514 15.1619 16.5968 14.496C16.7422 13.83 17.0799 13.2232 17.5669 12.7528C18.0539 12.2824 18.6679 11.9699 19.3308 11.8551C20.1076 11.7363 20.872 11.8228 21.5688 12.2407C21.6254 12.2685 21.6902 12.2737 21.7505 12.2553C23.4515 11.7273 25.1509 11.1975 26.8491 10.6659L26.8962 10.6555ZM19.9555 13.7936C19.6828 13.7924 19.4159 13.8731 19.1884 14.0255C18.9608 14.178 18.7829 14.3953 18.6769 14.6502C18.571 14.905 18.5419 15.186 18.5931 15.4577C18.6444 15.7293 18.7738 15.9795 18.965 16.1767C19.1563 16.3738 19.4008 16.5092 19.6677 16.5656C19.9347 16.622 20.2121 16.597 20.4652 16.4938C20.7182 16.3905 20.9353 16.2135 21.0891 15.9853C21.2431 15.757 21.3271 15.4876 21.3304 15.211C21.3326 15.0262 21.2986 14.8428 21.2306 14.6713C21.1626 14.4998 21.0616 14.3437 20.9339 14.212C20.806 14.0802 20.6538 13.9754 20.4858 13.9036C20.3181 13.8318 20.1377 13.7944 19.9555 13.7936Z" fill="#053F7C"/>
<path d="M39.1605 16.298C39.8037 16.9369 40.9383 16.8827 41.5361 16.1938C41.8126 15.8812 41.8546 15.8676 42.2206 16.0729C42.4897 16.2244 42.7583 16.3762 43.026 16.5284C43.0742 16.5503 43.1165 16.5833 43.1499 16.6248C43.1831 16.6662 43.2066 16.715 43.2179 16.7672C43.2294 16.8194 43.2288 16.8736 43.2159 16.9255C43.2031 16.9774 43.1786 17.0256 43.1442 17.0661C42.8544 17.4853 42.4772 17.8344 42.0392 18.0888C41.6013 18.3432 41.1133 18.4964 40.6104 18.5378C40.0031 18.5982 39.404 18.5378 38.8637 18.2532C37.956 17.7932 37.2594 16.9941 36.9206 16.0239C36.3205 14.4033 37.4025 12.0938 39.3866 11.5758C41.3708 11.0578 43.3857 12.3481 43.7309 14.3897C43.7412 14.4513 43.7504 14.5127 43.7607 14.5742C43.8007 14.8056 43.7083 14.9484 43.4751 15.0172L41.1026 15.7206L39.1605 16.298ZM41.4303 13.7363C40.9978 13.2756 40.184 13.1558 39.5592 13.4507C39.0927 13.6706 38.8009 14.0396 38.6346 14.5596L41.4303 13.7363Z" fill="#FF5757"/>
<path d="M46.2639 16.3001C46.8166 16.865 47.8144 16.8994 48.4442 16.3752C48.5458 16.2847 48.6409 16.1872 48.7289 16.0833C48.8738 15.9239 49.0021 15.8978 49.1891 16.002C49.5016 16.1771 49.8133 16.3533 50.1242 16.5305C50.1723 16.5522 50.2146 16.5849 50.248 16.626C50.2814 16.6672 50.3049 16.7157 50.3166 16.7676C50.3284 16.8196 50.3282 16.8736 50.3158 16.9254C50.3035 16.9772 50.2794 17.0254 50.2454 17.0661C49.956 17.4854 49.5789 17.8347 49.1412 18.0893C48.7034 18.3438 48.2157 18.4973 47.7126 18.5388C47.087 18.6003 46.4797 18.5388 45.9166 18.2334C45.0312 17.7673 44.3532 16.9776 44.0197 16.0239C43.4156 14.3918 44.5129 12.0802 46.5114 11.5664C46.9795 11.4465 47.4671 11.4256 47.9435 11.505C48.4199 11.5845 48.8751 11.7626 49.2806 12.0282C49.6864 12.2938 50.0337 12.6413 50.301 13.0491C50.5686 13.4568 50.7503 13.916 50.8353 14.3981C50.8444 14.4512 50.8537 14.5023 50.862 14.5576C50.9011 14.8056 50.8147 14.9452 50.5795 15.0151L48.208 15.7186L46.3789 16.2626L46.2639 16.3001ZM48.5243 13.7373C48.1422 13.3392 47.423 13.1527 46.7592 13.4028C46.1725 13.6237 45.7881 14.2115 45.7614 14.5492L48.5243 13.7373Z" fill="#FF5757"/>
<path d="M12.762 11.824C14.2745 11.7041 16.1373 13.0673 16.1394 15.2049C16.1394 17.0809 14.6166 18.6088 12.7486 18.616C12.294 18.6151 11.8442 18.5214 11.426 18.3405C11.0078 18.1597 10.6297 17.8954 10.3143 17.5633C9.99878 17.2313 9.75237 16.8383 9.58965 16.4077C9.42694 15.9771 9.35127 15.5177 9.36709 15.0569C9.44005 13.1601 11.12 11.7041 12.762 11.824ZM12.762 16.5942C13.0347 16.5954 13.3016 16.5147 13.5291 16.3622C13.7567 16.2098 13.9346 15.9925 14.0406 15.7376C14.1465 15.4827 14.1756 15.2017 14.1244 14.9301C14.0731 14.6584 13.9437 14.4082 13.7525 14.2111C13.5612 14.0139 13.3167 13.8786 13.0498 13.8222C12.7828 13.7657 12.5054 13.7907 12.2524 13.894C11.9994 13.9973 11.7823 14.1742 11.6283 14.4025C11.4743 14.6308 11.3904 14.9002 11.3872 15.1768C11.385 15.362 11.4191 15.5459 11.4874 15.7177C11.5558 15.8895 11.6571 16.0458 11.7854 16.1777C11.9138 16.3095 12.0666 16.4142 12.2351 16.4857C12.4036 16.5571 12.5845 16.594 12.7671 16.5942H12.762Z" fill="#053F7C"/>
<path d="M6.25681 14.9276L6.95654 13.2517C7.00586 13.1329 7.05929 13.0141 7.1045 12.8963C7.15016 12.7609 7.22284 12.6365 7.31796 12.5308C7.41309 12.4252 7.52865 12.3405 7.65745 12.2821C7.78625 12.2237 7.92552 12.1929 8.0666 12.1915C8.20766 12.19 8.34751 12.2181 8.47742 12.2739C8.60733 12.3297 8.72452 12.4121 8.82169 12.5158C8.91885 12.6196 8.99389 12.7425 9.04218 12.877C9.09045 13.0114 9.11093 13.1545 9.10229 13.2974C9.09367 13.4402 9.05613 13.5797 8.99203 13.7071C8.61597 14.618 8.23373 15.5258 7.85459 16.4409C7.64088 16.9522 7.42817 17.4647 7.2165 17.9781C7.14294 18.1766 7.01147 18.3475 6.83963 18.4682C6.66779 18.5888 6.46377 18.6535 6.25477 18.6535C6.04577 18.6535 5.84173 18.5888 5.66991 18.4682C5.49806 18.3475 5.3666 18.1766 5.29301 17.9781L4.4967 16.0563C4.48334 16.024 4.46792 15.9917 4.44327 15.9385C4.41348 16.0052 4.39088 16.0521 4.37135 16.1001C4.11036 16.7337 3.84732 17.3705 3.57708 18.0042C3.53151 18.1403 3.45865 18.2653 3.36312 18.3715C3.2676 18.4776 3.15147 18.5626 3.02201 18.621C2.89255 18.6795 2.75258 18.7101 2.61089 18.7111C2.46919 18.712 2.32884 18.6832 2.19864 18.6265C2.06845 18.5697 1.95124 18.4863 1.85436 18.3814C1.75749 18.2765 1.68305 18.1525 1.63572 18.017C1.58839 17.8815 1.5692 17.7376 1.57935 17.5942C1.5895 17.4509 1.62877 17.3112 1.6947 17.184C2.0372 16.3502 2.38279 15.5206 2.73145 14.6952C2.9801 14.0938 3.22773 13.4914 3.48255 12.8973C3.5496 12.7322 3.65702 12.5871 3.79466 12.4757C3.9323 12.3644 4.09564 12.2904 4.26929 12.2608C4.44293 12.2311 4.62115 12.2469 4.78712 12.3065C4.95311 12.3661 5.1014 12.4675 5.21801 12.6014C5.30467 12.7061 5.37406 12.8243 5.42351 12.9515C5.69168 13.5769 5.95164 14.2116 6.21469 14.8411C6.22599 14.8609 6.2373 14.8838 6.25681 14.9276Z" fill="#053F7C"/>
<path d="M1.17893 15.7885C0.949801 15.3862 0.732996 15.0006 0.514137 14.617C0.411388 14.4336 0.297334 14.2523 0.190474 14.072C-0.0602373 13.6436 -0.0694847 13.2101 0.198694 12.7932C0.312254 12.5994 0.481048 12.4451 0.682822 12.3506C0.884596 12.256 1.10987 12.2258 1.32895 12.2637C1.56006 12.2867 1.77836 12.3821 1.9535 12.5368C2.12862 12.6915 2.25187 12.8977 2.30611 13.1267C2.35076 13.2788 2.36322 13.4387 2.34268 13.5961C2.32214 13.7534 2.26906 13.9046 2.18691 14.0397C1.87387 14.5892 1.55911 15.1385 1.24264 15.6874C1.2262 15.7114 1.20873 15.7395 1.17893 15.7885Z" fill="#FF5757"/>
</g>
<defs>
<clipPath id="clip0">
<rect width="51" height="8.2111" fill="white" transform="translate(0 10.5)"/>
</clipPath>
</defs>
</svg>
