<svg width="24" height="28" viewBox="0 0 24 28" fill="none" xmlns="http://www.w3.org/2000/svg">
<path d="M23.6675 7.98488L23.6667 7.9635C23.6547 7.69967 23.6468 7.42053 23.642 7.10996C23.6195 5.59547 22.4156 4.34272 20.9009 4.25805C17.7428 4.08181 15.2998 3.05203 13.2123 1.01741L13.1945 1.00044C12.5137 0.376156 11.4866 0.376156 10.8055 1.00044L10.7877 1.01741C8.7003 3.05203 6.25724 4.08181 3.09917 4.25826C1.58467 4.34272 0.380539 5.59547 0.358116 7.11017C0.353505 7.41865 0.345332 7.69778 0.333388 7.9635L0.33213 8.01317C0.270729 11.2335 0.194449 15.2413 1.53522 18.8791C2.27245 20.8796 3.38899 22.6185 4.85361 24.0479C6.52171 25.6758 8.70659 26.9681 11.3475 27.8889C11.4334 27.9189 11.5227 27.9432 11.6136 27.9614C11.7419 27.987 11.8709 27.9998 12 27.9998C12.1291 27.9998 12.2584 27.987 12.3865 27.9614C12.4774 27.9432 12.5673 27.9187 12.6537 27.8885C15.2914 26.966 17.474 25.673 19.1406 24.0454C20.6046 22.6156 21.7211 20.8762 22.459 18.8753C23.8048 15.2267 23.7287 11.2113 23.6675 7.98488ZM20.9468 18.3177C19.5327 22.1518 16.646 24.7849 12.1218 26.3671C12.1057 26.3726 12.0885 26.3774 12.0707 26.3809C12.0239 26.3902 11.9764 26.3902 11.929 26.3807C11.9114 26.3772 11.8942 26.3726 11.8783 26.3671C7.34926 24.7879 4.46068 22.1562 3.04761 18.3219C1.81184 14.9687 1.88183 11.2896 1.94365 8.04397L1.94407 8.02595C1.95664 7.74703 1.96503 7.4549 1.96964 7.13385C1.97969 6.46137 2.51533 5.90499 3.18907 5.86748C4.9762 5.76773 6.54623 5.42237 7.98884 4.81171C9.42957 4.20189 10.7091 3.34228 11.9003 2.18383C11.9609 2.13269 12.0394 2.13248 12.0998 2.18383C13.2911 3.34228 14.5707 4.20189 16.0112 4.81171C17.4538 5.42237 19.0239 5.76773 20.8112 5.86748C21.485 5.90499 22.0206 6.46137 22.0304 7.13406C22.0353 7.45679 22.0436 7.74891 22.0562 8.02595C22.1178 11.2754 22.1861 14.9574 20.9468 18.3177Z" fill="#043F7C"/>
<path d="M11.9996 7.4209C8.22499 7.4209 5.1543 10.4918 5.1543 14.2662C5.1543 18.0408 8.22499 21.1117 11.9996 21.1117C15.774 21.1117 18.8449 18.0408 18.8449 14.2662C18.8449 10.4918 15.774 7.4209 11.9996 7.4209ZM11.9996 19.4998C9.11374 19.4998 6.76603 17.1521 6.76603 14.2662C6.76603 11.3803 9.11374 9.03263 11.9996 9.03263C14.8853 9.03263 17.233 11.3803 17.233 14.2662C17.233 17.1521 14.8853 19.4998 11.9996 19.4998Z" fill="#043F7C"/>
<path d="M13.967 12.1415L10.7875 15.321L9.92454 14.458C9.60978 14.1432 9.0995 14.1432 8.78474 14.458C8.47019 14.7727 8.47019 15.283 8.78474 15.5976L10.2177 17.0306C10.3751 17.1879 10.5813 17.2665 10.7875 17.2665C10.9937 17.2665 11.1999 17.1879 11.3573 17.0306L15.1068 13.2811C15.4213 12.9663 15.4213 12.4561 15.1068 12.1415C14.792 11.8265 14.2817 11.8265 13.967 12.1415Z" fill="#043F7C"/>
</svg>
