<svg width="24" height="31" viewBox="0 0 24 31" fill="none" xmlns="http://www.w3.org/2000/svg">
<path d="M20.4998 13.5833H3.49984C2.74839 13.5833 2.02772 13.8818 1.49637 14.4132C0.965015 14.9446 0.666504 15.6652 0.666504 16.4167V27.75C0.666504 28.5014 0.965015 29.2221 1.49637 29.7535C2.02772 30.2848 2.74839 30.5833 3.49984 30.5833H20.4998C21.2513 30.5833 21.972 30.2848 22.5033 29.7535C23.0347 29.2221 23.3332 28.5014 23.3332 27.75V16.4167C23.3332 15.6652 23.0347 14.9446 22.5033 14.4132C21.972 13.8818 21.2513 13.5833 20.4998 13.5833ZM20.4998 27.75H3.49984V22.0833H20.4998V27.75ZM20.4998 19.25H3.49984V16.4167H20.4998V19.25ZM19.0832 5.08333V12.1667H16.9582V7.20833H8.9965L12.4248 10.6508L10.9232 12.1667L4.9165 6.14583L10.9232 0.125L12.4248 1.64083L8.9965 5.08333H19.0832Z" fill="#053F7C"/>
</svg>
