<svg width="35" height="35" viewBox="0 0 35 35" fill="none" xmlns="http://www.w3.org/2000/svg">
<path d="M26.25 16.0417H8.74998C7.97643 16.0417 7.23457 16.349 6.68758 16.8959C6.1406 17.4429 5.83331 18.1848 5.83331 18.9583V30.625C5.83331 31.3985 6.1406 32.1404 6.68758 32.6874C7.23457 33.2344 7.97643 33.5417 8.74998 33.5417H26.25C27.0235 33.5417 27.7654 33.2344 28.3124 32.6874C28.8594 32.1404 29.1666 31.3985 29.1666 30.625V18.9583C29.1666 18.1848 28.8594 17.4429 28.3124 16.8959C27.7654 16.349 27.0235 16.0417 26.25 16.0417ZM26.25 30.625H8.74998V24.7917H26.25V30.625ZM26.25 21.875H8.74998V18.9583H26.25V21.875ZM24.7916 7.29167V14.5833H22.6041V9.47917H14.4083L17.9375 13.0229L16.3916 14.5833L10.2083 8.38542L16.3916 2.1875L17.9375 3.74792L14.4083 7.29167H24.7916Z" fill="#053F7C"/>
</svg>
