<svg width="32" height="28" viewBox="0 0 32 28" fill="none" xmlns="http://www.w3.org/2000/svg">
<path d="M20.351 16.9695C19.8623 16.9695 19.3981 17.1609 19.0479 17.507C18.6976 17.8573 18.5021 18.3134 18.5021 18.8021C18.5021 19.2908 18.6935 19.7469 19.0479 20.0971C19.4022 20.4433 19.8623 20.6347 20.351 20.6347C21.3529 20.6347 22.1674 19.8121 22.1674 18.8021C22.1674 17.7921 21.3529 16.9695 20.351 16.9695ZM20.351 19.8202C19.789 19.8202 19.3166 19.3559 19.3166 18.8021C19.3166 18.2482 19.789 17.784 20.351 17.784C20.9049 17.784 21.3529 18.2401 21.3529 18.8021C21.3529 19.3641 20.9049 19.8202 20.351 19.8202ZM20.8235 10.8648C20.7502 10.7956 20.6524 10.7589 20.5506 10.7589H18.4614C18.2374 10.7589 18.0542 10.9422 18.0542 11.1662V14.5056C18.0542 14.7296 18.2374 14.9128 18.4614 14.9128H21.7764C22.0004 14.9128 22.1837 14.7296 22.1837 14.5056V12.2698C22.1837 12.1558 22.1348 12.0458 22.0493 11.9684L20.8235 10.8648ZM21.3692 14.0984H18.8687V11.5693H20.3918L21.3692 12.449V14.0984ZM10.406 16.9695C9.91733 16.9695 9.45306 17.1609 9.10283 17.507C8.7526 17.8573 8.55712 18.3134 8.55712 18.8021C8.55712 19.2908 8.74852 19.7469 9.10283 20.0971C9.45714 20.4433 9.91733 20.6347 10.406 20.6347C11.4079 20.6347 12.2224 19.8121 12.2224 18.8021C12.2224 17.7921 11.4079 16.9695 10.406 16.9695ZM10.406 19.8202C9.84402 19.8202 9.37161 19.3559 9.37161 18.8021C9.37161 18.2482 9.84402 17.784 10.406 17.784C10.9599 17.784 11.4079 18.2401 11.4079 18.8021C11.4079 19.3641 10.9599 19.8202 10.406 19.8202ZM7.68968 17.4704H6.87111V16.3871C6.87111 16.1631 6.68784 15.9798 6.46386 15.9798C6.23987 15.9798 6.05661 16.1631 6.05661 16.3871V17.8776C6.05661 18.1016 6.23987 18.2849 6.46386 18.2849H7.68968C7.91366 18.2849 8.09693 18.1016 8.09693 17.8776C8.09693 17.6536 7.91366 17.4704 7.68968 17.4704ZM9.75443 15.2509C9.75443 15.0269 9.57117 14.8436 9.34718 14.8436H4.40725C4.18326 14.8436 4 15.0269 4 15.2509C4 15.4749 4.18326 15.6581 4.40725 15.6581H9.34718C9.57117 15.6581 9.75443 15.4789 9.75443 15.2509ZM5.23396 13.7807L10.1739 13.8092C10.3979 13.8092 10.5811 13.63 10.5852 13.406C10.5893 13.178 10.406 12.9947 10.182 12.9947L5.24211 12.9662C5.23804 12.9662 5.23804 12.9662 5.23804 12.9662C5.01405 12.9662 4.83079 13.1454 4.83079 13.3694C4.82672 13.5974 5.00998 13.7807 5.23396 13.7807ZM6.06475 11.9318H11.0047C11.2287 11.9318 11.4119 11.7485 11.4119 11.5245C11.4119 11.3005 11.2287 11.1173 11.0047 11.1173H6.06475C5.84077 11.1173 5.6575 11.3005 5.6575 11.5245C5.6575 11.7485 5.84077 11.9318 6.06475 11.9318ZM23.8493 11.382L20.9334 8.96701C20.8601 8.90592 20.7705 8.87335 20.6728 8.87335H17.2437V7.40725C17.2437 7.18326 17.0605 7 16.8365 7H6.46386C6.23987 7 6.05661 7.18326 6.05661 7.40725V10.3883C6.05661 10.6123 6.23987 10.7956 6.46386 10.7956C6.68784 10.7956 6.87111 10.6123 6.87111 10.3883V7.8145H16.4333V17.4704H13.0939C12.8699 17.4704 12.6866 17.6536 12.6866 17.8776C12.6866 18.1016 12.8699 18.2849 13.0939 18.2849H18.0664C18.2904 18.2849 18.4736 18.1016 18.4736 17.8776C18.4736 17.6536 18.2904 17.4704 18.0664 17.4704H17.2478V9.68784H20.5302L23.1855 11.887L23.157 17.4622H22.7335C22.5095 17.4622 22.3262 17.6455 22.3262 17.8695C22.3262 18.0935 22.5095 18.2767 22.7335 18.2767H23.5602C23.7842 18.2767 23.9674 18.0975 23.9674 17.8735L24 11.6997C23.9959 11.5775 23.943 11.4594 23.8493 11.382Z" fill="black"/>
<rect x="0.5" y="0.5" width="31" height="27" stroke="#E5E5E5"/>
</svg>
