<svg width="54" height="30" viewBox="0 0 54 30" fill="none" xmlns="http://www.w3.org/2000/svg">
<path d="M19.8234 21.0625C17.3539 21.0625 15.3582 23.0653 15.3582 25.5348C15.3582 27.9971 17.3539 30 19.8234 30C22.2929 30 24.2886 27.9971 24.2886 25.5348C24.2885 23.0653 22.2929 21.0625 19.8234 21.0625ZM19.8234 27.7674C18.5886 27.7674 17.5907 26.7623 17.5907 25.5347C17.5907 24.3 18.5886 23.3021 19.8234 23.3021C21.0581 23.3021 22.056 24.3 22.056 25.5347C22.0559 26.7623 21.0581 27.7674 19.8234 27.7674ZM53.5002 17.759V22.5269C53.5002 23.7163 52.5361 24.6805 51.3466 24.6805H49.0422C48.6259 21.8233 46.1636 19.6266 43.1916 19.6266C40.2268 19.6266 37.7644 21.8234 37.3481 24.6805H25.6683C25.2519 21.8233 22.7896 19.6266 19.8248 19.6266C16.86 19.6266 14.3977 21.8234 13.9814 24.6805H11.0955C9.90611 24.6805 8.94197 23.7163 8.94197 22.5269V17.759H53.5002ZM43.1973 21.0625C40.7278 21.0625 38.725 23.0653 38.725 25.5348C38.725 27.9971 40.7279 30 43.1973 30C45.6596 30 47.6624 27.9971 47.6624 25.5348C47.6624 23.0653 45.6596 21.0625 43.1973 21.0625ZM43.1973 27.7674C41.9625 27.7674 40.9648 26.7623 40.9648 25.5347C40.9648 24.3 41.9625 23.3021 43.1973 23.3021C44.4249 23.3021 45.4299 24.3 45.4299 25.5347C45.4299 26.7623 44.4249 27.7674 43.1973 27.7674ZM52.6517 12.9576L44.1881 4.58721C43.6496 4.05597 42.9246 3.75446 42.1708 3.75446H37.8995V2.15356C37.8995 0.961955 36.9375 0 35.7459 0H11.094C9.90952 0 8.94049 0.962042 8.94049 2.15356V2.491L0.201063 3.49823L15.6869 5.51481L0 7.07313L15.6317 9.29558L0 10.6509L8.94101 12.3372L8.9404 16.5686H53.4988V14.9963C53.4988 14.2282 53.1901 13.496 52.6517 12.9576ZM48.9618 13.2375H40.7709C40.5843 13.2375 40.4335 13.0868 40.4335 12.9002V6.57572C40.4335 6.38908 40.5843 6.23829 40.7709 6.23829H42.3287C42.4149 6.23829 42.501 6.27421 42.5657 6.33165L49.1916 12.6561C49.414 12.8643 49.2632 13.2375 48.9618 13.2375Z" fill="#043F7C"/>
</svg>
