<svg width="50" height="40" viewBox="0 0 50 40" fill="none" xmlns="http://www.w3.org/2000/svg">
<path d="M0 0H45C47.7614 0 50 2.23858 50 5V35C50 37.7614 47.7614 40 45 40H0V0Z" fill="#FF5757"/>
<path d="M32.9864 13.7103C33.0839 13.2564 32.639 12.8737 32.2049 13.0394L13.377 20.2268C13.1504 20.3133 13.0005 20.5305 13 20.773C12.9995 21.0156 13.1486 21.2334 13.3748 21.3208L18.664 23.3635V29.7976C18.664 30.069 18.8503 30.3048 19.1144 30.3676C19.3767 30.43 19.6502 30.3052 19.7732 30.0612L21.9607 25.7203L27.2991 29.6821C27.6238 29.9231 28.0906 29.7699 28.2087 29.3826C33.193 13.0406 32.9776 13.7513 32.9864 13.7103ZM28.3388 15.7696L19.1669 22.3015L15.2205 20.7774L28.3388 15.7696ZM19.8358 23.2637L27.8306 17.5701C20.9512 24.8275 21.3105 24.4455 21.2805 24.4859C21.2359 24.5459 21.3581 24.3121 19.8358 27.3328V23.2637ZM27.3302 28.2459L22.6312 24.7586L31.1277 15.7953L27.3302 28.2459Z" fill="white"/>
</svg>
