<svg width="200" height="200" viewBox="0 0 200 200" fill="none" xmlns="http://www.w3.org/2000/svg">
<g clip-path="url(#clip0)">
<path d="M137.5 83.7132C143.864 62.2148 150 41.3679 156.136 20.521C159.318 8.14317 167.5 -0.000148579 176.591 0.325584C189.318 -0.325881 199.546 13.6806 200 31.5959C200 36.4819 199.318 41.3679 197.955 45.9282C190.682 71.3354 183.182 96.4168 175.682 121.498C170 140.716 164.318 159.609 158.864 178.827C155.455 191.857 146.591 200.326 136.818 199.674C127.727 199.674 119.773 191.531 116.136 178.176C110.227 157.98 104.318 138.111 98.4092 117.915C98.1819 117.264 97.9546 116.612 97.5001 115.309C97.0455 116.612 96.591 117.589 96.3637 118.567C90.4546 138.762 84.5455 159.283 78.4092 179.479C73.6365 196.091 60.6819 203.909 49.091 197.068C45.9092 195.114 43.1819 192.508 40.9092 188.925C34.5455 179.479 32.9546 165.472 36.8183 153.746C45.0001 126.058 53.1819 98.3712 61.3637 70.6839C66.3637 53.7458 71.1365 36.8077 76.3637 19.8696C81.3637 3.25718 94.7728 -4.88614 106.364 2.27998C109.773 4.23438 112.727 7.49171 115 11.4005C116.818 14.6578 118.182 17.9152 119.091 21.824C125 41.3679 130.682 60.9119 136.591 80.4559C136.818 81.7588 137.273 82.4103 137.5 83.7132Z" fill="#053F7C"/>
<path d="M25.909 132.248L17.4999 103.909C12.4999 87.2964 7.49992 70.3583 2.49992 53.746C-4.54553 29.9675 4.09083 5.21175 21.3636 0.65149C39.9999 -4.2345 56.1363 21.1727 50.6817 46.9056C48.1817 58.9577 44.3181 70.3583 41.1363 81.759C36.5908 97.7199 31.8181 113.681 27.0454 129.642C26.5908 130.293 26.3636 130.945 25.909 132.248Z" fill="#FE5858"/>
</g>
<defs>
<clipPath id="clip0">
<rect width="200" height="200" fill="white"/>
</clipPath>
</defs>
</svg>
