<svg width="112" height="38" viewBox="0 0 112 38" fill="none" xmlns="http://www.w3.org/2000/svg">
<rect width="112" height="38" rx="5" fill="white"/>
<path d="M48.4 13.164V15.444C47.8267 15.8573 47.16 16.064 46.4 16.064C45.9333 16.064 45.5107 15.992 45.132 15.848C44.756 15.7013 44.4347 15.4987 44.168 15.24C43.9013 14.9787 43.696 14.668 43.552 14.308C43.408 13.948 43.336 13.552 43.336 13.12C43.336 12.6853 43.4053 12.288 43.544 11.928C43.6827 11.5653 43.8813 11.2547 44.14 10.996C44.3987 10.7347 44.7107 10.5333 45.076 10.392C45.4413 10.248 45.852 10.176 46.308 10.176C46.54 10.176 46.7547 10.1947 46.952 10.232C47.152 10.2667 47.3373 10.316 47.508 10.38C47.6787 10.444 47.836 10.5213 47.98 10.612C48.124 10.7027 48.256 10.804 48.376 10.916L48.108 11.344C48.0653 11.4107 48.0107 11.452 47.944 11.468C47.8773 11.484 47.8053 11.468 47.728 11.42C47.6507 11.3747 47.568 11.3267 47.48 11.276C47.3947 11.2253 47.296 11.1787 47.184 11.136C47.072 11.0907 46.9427 11.0547 46.796 11.028C46.6493 10.9987 46.476 10.984 46.276 10.984C45.972 10.984 45.6973 11.0347 45.452 11.136C45.2093 11.2347 45.0013 11.3773 44.828 11.564C44.6547 11.748 44.5213 11.972 44.428 12.236C44.3347 12.5 44.288 12.7947 44.288 13.12C44.288 13.464 44.3373 13.772 44.436 14.044C44.5347 14.3133 44.6747 14.5427 44.856 14.732C45.0373 14.9187 45.256 15.0613 45.512 15.16C45.7707 15.2587 46.0587 15.308 46.376 15.308C46.6133 15.308 46.824 15.2827 47.008 15.232C47.1947 15.1813 47.3773 15.1107 47.556 15.02V13.876H46.752C46.6907 13.876 46.6427 13.86 46.608 13.828C46.5733 13.7933 46.556 13.7493 46.556 13.696V13.164H48.4ZM51.9734 13.5C51.9734 13.356 51.9521 13.2227 51.9094 13.1C51.8694 12.9747 51.8094 12.8667 51.7294 12.776C51.6494 12.6827 51.5494 12.6107 51.4294 12.56C51.3121 12.5067 51.1761 12.48 51.0214 12.48C50.7094 12.48 50.4641 12.5693 50.2854 12.748C50.1068 12.9267 49.9934 13.1773 49.9454 13.5H51.9734ZM49.9214 14.028C49.9321 14.26 49.9681 14.4613 50.0294 14.632C50.0908 14.8 50.1721 14.94 50.2734 15.052C50.3774 15.164 50.5001 15.248 50.6414 15.304C50.7854 15.3573 50.9454 15.384 51.1214 15.384C51.2894 15.384 51.4348 15.3653 51.5574 15.328C51.6801 15.288 51.7868 15.2453 51.8774 15.2C51.9681 15.152 52.0454 15.1093 52.1094 15.072C52.1734 15.032 52.2321 15.012 52.2854 15.012C52.3548 15.012 52.4081 15.0387 52.4454 15.092L52.6894 15.408C52.5881 15.528 52.4734 15.6293 52.3454 15.712C52.2174 15.7947 52.0814 15.8627 51.9374 15.916C51.7934 15.9667 51.6454 16.0027 51.4934 16.024C51.3414 16.048 51.1934 16.06 51.0494 16.06C50.7668 16.06 50.5041 16.0133 50.2614 15.92C50.0214 15.824 49.8121 15.684 49.6334 15.5C49.4574 15.316 49.3188 15.088 49.2174 14.816C49.1188 14.544 49.0694 14.2307 49.0694 13.876C49.0694 13.5933 49.1134 13.3293 49.2014 13.084C49.2921 12.8387 49.4201 12.6253 49.5854 12.444C49.7534 12.2627 49.9561 12.12 50.1934 12.016C50.4334 11.9093 50.7041 11.856 51.0054 11.856C51.2561 11.856 51.4881 11.8973 51.7014 11.98C51.9148 12.06 52.0988 12.1787 52.2534 12.336C52.4081 12.4933 52.5281 12.6867 52.6134 12.916C52.7014 13.1427 52.7454 13.4013 52.7454 13.692C52.7454 13.8253 52.7308 13.9147 52.7014 13.96C52.6721 14.0053 52.6188 14.028 52.5414 14.028H49.9214ZM54.8164 16.064C54.4777 16.064 54.2164 15.9693 54.0324 15.78C53.851 15.588 53.7604 15.3187 53.7604 14.972V12.596H53.3124C53.2644 12.596 53.223 12.5813 53.1884 12.552C53.1537 12.52 53.1364 12.4733 53.1364 12.412V12.064L53.7964 11.968L53.9844 10.788C53.9977 10.7427 54.0204 10.7067 54.0524 10.68C54.0844 10.6507 54.127 10.636 54.1804 10.636H54.6204V11.976H55.7524V12.596H54.6204V14.912C54.6204 15.0587 54.6564 15.1707 54.7284 15.248C54.8004 15.3253 54.8964 15.364 55.0164 15.364C55.083 15.364 55.1404 15.356 55.1884 15.34C55.2364 15.3213 55.2777 15.3027 55.3124 15.284C55.347 15.2627 55.3764 15.244 55.4004 15.228C55.427 15.2093 55.4524 15.2 55.4764 15.2C55.5244 15.2 55.563 15.2267 55.5924 15.28L55.8484 15.7C55.715 15.8173 55.5577 15.908 55.3764 15.972C55.195 16.0333 55.0084 16.064 54.8164 16.064ZM59.3184 11.92V16H58.4584V11.92H59.3184ZM59.4624 10.688C59.4624 10.7653 59.4464 10.8387 59.4144 10.908C59.3851 10.9773 59.3438 11.0387 59.2904 11.092C59.2371 11.1427 59.1744 11.184 59.1024 11.216C59.0331 11.2453 58.9584 11.26 58.8784 11.26C58.8011 11.26 58.7278 11.2453 58.6584 11.216C58.5918 11.184 58.5331 11.1427 58.4824 11.092C58.4318 11.0387 58.3904 10.9773 58.3584 10.908C58.3291 10.8387 58.3144 10.7653 58.3144 10.688C58.3144 10.608 58.3291 10.5333 58.3584 10.464C58.3904 10.3947 58.4318 10.3347 58.4824 10.284C58.5331 10.2307 58.5918 10.1893 58.6584 10.16C58.7278 10.128 58.8011 10.112 58.8784 10.112C58.9584 10.112 59.0331 10.128 59.1024 10.16C59.1744 10.1893 59.2371 10.2307 59.2904 10.284C59.3438 10.3347 59.3851 10.3947 59.4144 10.464C59.4464 10.5333 59.4624 10.608 59.4624 10.688ZM61.707 16.064C61.3683 16.064 61.107 15.9693 60.923 15.78C60.7417 15.588 60.651 15.3187 60.651 14.972V12.596H60.203C60.155 12.596 60.1137 12.5813 60.079 12.552C60.0443 12.52 60.027 12.4733 60.027 12.412V12.064L60.687 11.968L60.875 10.788C60.8883 10.7427 60.911 10.7067 60.943 10.68C60.975 10.6507 61.0177 10.636 61.071 10.636H61.511V11.976H62.643V12.596H61.511V14.912C61.511 15.0587 61.547 15.1707 61.619 15.248C61.691 15.3253 61.787 15.364 61.907 15.364C61.9737 15.364 62.031 15.356 62.079 15.34C62.127 15.3213 62.1683 15.3027 62.203 15.284C62.2377 15.2627 62.267 15.244 62.291 15.228C62.3177 15.2093 62.343 15.2 62.367 15.2C62.415 15.2 62.4537 15.2267 62.483 15.28L62.739 15.7C62.6057 15.8173 62.4483 15.908 62.267 15.972C62.0857 16.0333 61.899 16.064 61.707 16.064ZM67.0771 11.856C67.3784 11.856 67.6504 11.9053 67.8931 12.004C68.1384 12.1027 68.3464 12.2427 68.5171 12.424C68.6904 12.6053 68.8237 12.8253 68.9171 13.084C69.0104 13.3427 69.0571 13.6333 69.0571 13.956C69.0571 14.2787 69.0104 14.5693 68.9171 14.828C68.8237 15.0867 68.6904 15.308 68.5171 15.492C68.3464 15.6733 68.1384 15.8133 67.8931 15.912C67.6504 16.0107 67.3784 16.06 67.0771 16.06C66.7731 16.06 66.4984 16.0107 66.2531 15.912C66.0104 15.8133 65.8024 15.6733 65.6291 15.492C65.4557 15.308 65.3224 15.0867 65.2291 14.828C65.1357 14.5693 65.0891 14.2787 65.0891 13.956C65.0891 13.6333 65.1357 13.3427 65.2291 13.084C65.3224 12.8253 65.4557 12.6053 65.6291 12.424C65.8024 12.2427 66.0104 12.1027 66.2531 12.004C66.4984 11.9053 66.7731 11.856 67.0771 11.856ZM67.0771 15.388C67.4451 15.388 67.7184 15.2653 67.8971 15.02C68.0784 14.772 68.1691 14.4187 68.1691 13.96C68.1691 13.5013 68.0784 13.148 67.8971 12.9C67.7184 12.6493 67.4451 12.524 67.0771 12.524C66.7037 12.524 66.4264 12.6493 66.2451 12.9C66.0637 13.148 65.9731 13.5013 65.9731 13.96C65.9731 14.4187 66.0637 14.772 66.2451 15.02C66.4264 15.2653 66.7037 15.388 67.0771 15.388ZM70.6874 12.46C70.7754 12.3693 70.866 12.288 70.9594 12.216C71.0554 12.1413 71.1567 12.0773 71.2634 12.024C71.37 11.9707 71.4834 11.9293 71.6034 11.9C71.7234 11.8707 71.854 11.856 71.9954 11.856C72.2194 11.856 72.4154 11.8933 72.5834 11.968C72.754 12.0427 72.8967 12.148 73.0114 12.284C73.1287 12.42 73.2167 12.584 73.2754 12.776C73.334 12.9653 73.3634 13.1747 73.3634 13.404V16H72.5074V13.404C72.5074 13.1293 72.4434 12.916 72.3154 12.764C72.19 12.612 71.998 12.536 71.7394 12.536C71.5474 12.536 71.3687 12.58 71.2034 12.668C71.0407 12.756 70.8874 12.876 70.7434 13.028V16H69.8834V11.92H70.4034C70.5207 11.92 70.5954 11.9747 70.6274 12.084L70.6874 12.46Z" fill="black" fill-opacity="0.5"/>
<path d="M47.205 24.225H49.795V27.3C49.4217 27.5733 49.0233 27.7717 48.6 27.895C48.18 28.0183 47.74 28.08 47.28 28.08C46.68 28.08 46.1333 27.9867 45.64 27.8C45.15 27.61 44.73 27.35 44.38 27.02C44.03 26.6867 43.76 26.2933 43.57 25.84C43.38 25.3833 43.285 24.8883 43.285 24.355C43.285 23.8117 43.375 23.3133 43.555 22.86C43.735 22.4033 43.9917 22.01 44.325 21.68C44.6617 21.35 45.0667 21.0933 45.54 20.91C46.0167 20.7267 46.5483 20.635 47.135 20.635C47.4383 20.635 47.7233 20.66 47.99 20.71C48.2567 20.76 48.5017 20.8283 48.725 20.915C48.9517 21.0017 49.1583 21.105 49.345 21.225C49.5317 21.345 49.6983 21.475 49.845 21.615L49.355 22.36C49.2783 22.4767 49.1783 22.5483 49.055 22.575C48.935 22.6017 48.805 22.5717 48.665 22.485C48.5317 22.405 48.405 22.3367 48.285 22.28C48.1683 22.22 48.0483 22.1717 47.925 22.135C47.8017 22.0983 47.6717 22.0717 47.535 22.055C47.3983 22.0383 47.245 22.03 47.075 22.03C46.7583 22.03 46.4733 22.0867 46.22 22.2C45.9667 22.31 45.75 22.4667 45.57 22.67C45.3933 22.8733 45.2567 23.1183 45.16 23.405C45.0633 23.6883 45.015 24.005 45.015 24.355C45.015 24.7417 45.0683 25.085 45.175 25.385C45.2817 25.685 45.4317 25.9383 45.625 26.145C45.8217 26.3517 46.055 26.51 46.325 26.62C46.5983 26.7267 46.9 26.78 47.23 26.78C47.4333 26.78 47.6167 26.76 47.78 26.72C47.9467 26.68 48.1083 26.6267 48.265 26.56V25.455H47.545C47.4383 25.455 47.355 25.4267 47.295 25.37C47.235 25.3133 47.205 25.2417 47.205 25.155V24.225ZM53.083 22.735C53.4763 22.735 53.8346 22.7967 54.158 22.92C54.4813 23.0433 54.758 23.22 54.988 23.45C55.2213 23.68 55.4013 23.96 55.528 24.29C55.658 24.6167 55.723 24.985 55.723 25.395C55.723 25.8083 55.658 26.1817 55.528 26.515C55.4013 26.845 55.2213 27.1267 54.988 27.36C54.758 27.59 54.4813 27.7683 54.158 27.895C53.8346 28.0183 53.4763 28.08 53.083 28.08C52.6863 28.08 52.3246 28.0183 51.998 27.895C51.6746 27.7683 51.3946 27.59 51.158 27.36C50.9246 27.1267 50.743 26.845 50.613 26.515C50.4863 26.1817 50.423 25.8083 50.423 25.395C50.423 24.985 50.4863 24.6167 50.613 24.29C50.743 23.96 50.9246 23.68 51.158 23.45C51.3946 23.22 51.6746 23.0433 51.998 22.92C52.3246 22.7967 52.6863 22.735 53.083 22.735ZM53.083 26.93C53.4396 26.93 53.7013 26.805 53.868 26.555C54.038 26.3017 54.123 25.9183 54.123 25.405C54.123 24.8917 54.038 24.51 53.868 24.26C53.7013 24.01 53.4396 23.885 53.083 23.885C52.7163 23.885 52.448 24.01 52.278 24.26C52.108 24.51 52.023 24.8917 52.023 25.405C52.023 25.9183 52.108 26.3017 52.278 26.555C52.448 26.805 52.7163 26.93 53.083 26.93ZM58.8935 22.735C59.2868 22.735 59.6452 22.7967 59.9685 22.92C60.2918 23.0433 60.5685 23.22 60.7985 23.45C61.0318 23.68 61.2118 23.96 61.3385 24.29C61.4685 24.6167 61.5335 24.985 61.5335 25.395C61.5335 25.8083 61.4685 26.1817 61.3385 26.515C61.2118 26.845 61.0318 27.1267 60.7985 27.36C60.5685 27.59 60.2918 27.7683 59.9685 27.895C59.6452 28.0183 59.2868 28.08 58.8935 28.08C58.4968 28.08 58.1352 28.0183 57.8085 27.895C57.4852 27.7683 57.2052 27.59 56.9685 27.36C56.7352 27.1267 56.5535 26.845 56.4235 26.515C56.2968 26.1817 56.2335 25.8083 56.2335 25.395C56.2335 24.985 56.2968 24.6167 56.4235 24.29C56.5535 23.96 56.7352 23.68 56.9685 23.45C57.2052 23.22 57.4852 23.0433 57.8085 22.92C58.1352 22.7967 58.4968 22.735 58.8935 22.735ZM58.8935 26.93C59.2502 26.93 59.5118 26.805 59.6785 26.555C59.8485 26.3017 59.9335 25.9183 59.9335 25.405C59.9335 24.8917 59.8485 24.51 59.6785 24.26C59.5118 24.01 59.2502 23.885 58.8935 23.885C58.5268 23.885 58.2585 24.01 58.0885 24.26C57.9185 24.51 57.8335 24.8917 57.8335 25.405C57.8335 25.9183 57.9185 26.3017 58.0885 26.555C58.2585 26.805 58.5268 26.93 58.8935 26.93ZM64.2402 25.135C64.4969 25.135 64.6819 25.0717 64.7952 24.945C64.9119 24.815 64.9702 24.6483 64.9702 24.445C64.9702 24.235 64.9119 24.07 64.7952 23.95C64.6819 23.83 64.4969 23.77 64.2402 23.77C63.9836 23.77 63.7969 23.83 63.6802 23.95C63.5669 24.07 63.5102 24.235 63.5102 24.445C63.5102 24.545 63.5236 24.6367 63.5502 24.72C63.5802 24.8033 63.6252 24.8767 63.6852 24.94C63.7452 25 63.8202 25.0483 63.9102 25.085C64.0036 25.1183 64.1136 25.135 64.2402 25.135ZM65.4402 28.19C65.4402 28.0667 65.3852 27.9783 65.2752 27.925C65.1652 27.8683 65.0219 27.8283 64.8452 27.805C64.6686 27.7817 64.4702 27.7683 64.2502 27.765C64.0336 27.7583 63.8169 27.745 63.6002 27.725C63.5036 27.7917 63.4236 27.8667 63.3602 27.95C63.3002 28.03 63.2702 28.1217 63.2702 28.225C63.2702 28.2983 63.2852 28.365 63.3152 28.425C63.3486 28.485 63.4052 28.5367 63.4852 28.58C63.5652 28.6233 63.6719 28.6567 63.8052 28.68C63.9419 28.7067 64.1136 28.72 64.3202 28.72C64.5436 28.72 64.7269 28.7067 64.8702 28.68C65.0136 28.6533 65.1269 28.6167 65.2102 28.57C65.2969 28.5233 65.3569 28.4667 65.3902 28.4C65.4236 28.3367 65.4402 28.2667 65.4402 28.19ZM66.9702 22.975V23.54C66.9702 23.6267 66.9452 23.695 66.8952 23.745C66.8486 23.795 66.7669 23.8333 66.6502 23.86L66.2752 23.945C66.2952 24.0183 66.3102 24.0933 66.3202 24.17C66.3336 24.2467 66.3402 24.3267 66.3402 24.41C66.3402 24.67 66.2852 24.9033 66.1752 25.11C66.0686 25.3167 65.9202 25.4933 65.7302 25.64C65.5436 25.7833 65.3219 25.895 65.0652 25.975C64.8086 26.0517 64.5336 26.09 64.2402 26.09C64.1602 26.09 64.0819 26.0883 64.0052 26.085C63.9286 26.0783 63.8536 26.0683 63.7802 26.055C63.6669 26.125 63.6102 26.2033 63.6102 26.29C63.6102 26.3767 63.6569 26.44 63.7502 26.48C63.8436 26.5167 63.9669 26.5433 64.1202 26.56C64.2736 26.5733 64.4469 26.5833 64.6402 26.59C64.8369 26.5933 65.0369 26.605 65.2402 26.625C65.4436 26.6417 65.6419 26.6717 65.8352 26.715C66.0319 26.7583 66.2069 26.8283 66.3602 26.925C66.5136 27.0217 66.6369 27.1517 66.7302 27.315C66.8236 27.475 66.8702 27.68 66.8702 27.93C66.8702 28.1633 66.8136 28.3917 66.7002 28.615C66.5869 28.8383 66.4202 29.0367 66.2002 29.21C65.9802 29.3833 65.7102 29.5217 65.3902 29.625C65.0702 29.7317 64.7036 29.785 64.2902 29.785C63.8836 29.785 63.5319 29.7467 63.2352 29.67C62.9419 29.5933 62.6969 29.4917 62.5002 29.365C62.3069 29.2417 62.1636 29.0983 62.0702 28.935C61.9769 28.7717 61.9302 28.6017 61.9302 28.425C61.9302 28.195 61.9969 28.0033 62.1302 27.85C62.2636 27.6967 62.4502 27.5733 62.6902 27.48C62.5636 27.4033 62.4636 27.305 62.3902 27.185C62.3169 27.065 62.2802 26.91 62.2802 26.72C62.2802 26.6433 62.2936 26.5633 62.3202 26.48C62.3469 26.3933 62.3886 26.31 62.4452 26.23C62.5052 26.1467 62.5786 26.0683 62.6652 25.995C62.7519 25.9217 62.8552 25.8567 62.9752 25.8C62.7052 25.6567 62.4919 25.4683 62.3352 25.235C62.1786 24.9983 62.1002 24.7233 62.1002 24.41C62.1002 24.15 62.1552 23.9167 62.2652 23.71C62.3752 23.5 62.5252 23.3233 62.7152 23.18C62.9086 23.0333 63.1352 22.9217 63.3952 22.845C63.6552 22.765 63.9369 22.725 64.2402 22.725C64.6802 22.725 65.0702 22.8083 65.4102 22.975H66.9702ZM69.1668 20.515V28H67.6168V20.515H69.1668ZM73.4395 24.785C73.4395 24.6617 73.4228 24.5417 73.3895 24.425C73.3595 24.3083 73.3078 24.205 73.2345 24.115C73.1645 24.0217 73.0711 23.9467 72.9545 23.89C72.8378 23.8333 72.6961 23.805 72.5295 23.805C72.2361 23.805 72.0061 23.89 71.8395 24.06C71.6728 24.2267 71.5628 24.4683 71.5095 24.785H73.4395ZM71.4895 25.685C71.5395 26.1183 71.6711 26.4333 71.8845 26.63C72.0978 26.8233 72.3728 26.92 72.7095 26.92C72.8895 26.92 73.0445 26.8983 73.1745 26.855C73.3045 26.8117 73.4195 26.7633 73.5195 26.71C73.6228 26.6567 73.7161 26.6083 73.7995 26.565C73.8861 26.5217 73.9761 26.5 74.0695 26.5C74.1928 26.5 74.2861 26.545 74.3495 26.635L74.7995 27.19C74.6395 27.3733 74.4661 27.5233 74.2795 27.64C74.0961 27.7533 73.9061 27.8433 73.7095 27.91C73.5161 27.9733 73.3211 28.0167 73.1245 28.04C72.9311 28.0667 72.7461 28.08 72.5695 28.08C72.2061 28.08 71.8645 28.0217 71.5445 27.905C71.2278 27.785 70.9495 27.6083 70.7095 27.375C70.4728 27.1417 70.2845 26.8517 70.1445 26.505C70.0078 26.1583 69.9395 25.755 69.9395 25.295C69.9395 24.9483 69.9978 24.62 70.1145 24.31C70.2345 24 70.4045 23.7283 70.6245 23.495C70.8478 23.2617 71.1161 23.0767 71.4295 22.94C71.7461 22.8033 72.1028 22.735 72.4995 22.735C72.8428 22.735 73.1561 22.7883 73.4395 22.895C73.7261 23.0017 73.9711 23.1567 74.1745 23.36C74.3811 23.5633 74.5411 23.8133 74.6545 24.11C74.7711 24.4033 74.8295 24.7367 74.8295 25.11C74.8295 25.2267 74.8245 25.3217 74.8145 25.395C74.8045 25.4683 74.7861 25.5267 74.7595 25.57C74.7328 25.6133 74.6961 25.6433 74.6495 25.66C74.6061 25.6767 74.5495 25.685 74.4795 25.685H71.4895ZM80.6695 24.29C81.1095 24.29 81.4262 24.185 81.6195 23.975C81.8129 23.765 81.9095 23.4717 81.9095 23.095C81.9095 22.9283 81.8845 22.7767 81.8345 22.64C81.7845 22.5033 81.7079 22.3867 81.6045 22.29C81.5045 22.19 81.3762 22.1133 81.2195 22.06C81.0662 22.0067 80.8829 21.98 80.6695 21.98H79.7895V24.29H80.6695ZM80.6695 20.715C81.1829 20.715 81.6229 20.7767 81.9895 20.9C82.3595 21.02 82.6629 21.1867 82.8995 21.4C83.1395 21.6133 83.3162 21.865 83.4295 22.155C83.5429 22.445 83.5995 22.7583 83.5995 23.095C83.5995 23.4583 83.5412 23.7917 83.4245 24.095C83.3079 24.3983 83.1295 24.6583 82.8895 24.875C82.6495 25.0917 82.3445 25.2617 81.9745 25.385C81.6079 25.505 81.1729 25.565 80.6695 25.565H79.7895V28H78.0995V20.715H80.6695ZM85.827 20.515V28H84.277V20.515H85.827ZM89.5496 25.89C89.2396 25.9033 88.9846 25.93 88.7846 25.97C88.5846 26.01 88.4263 26.06 88.3096 26.12C88.1929 26.18 88.1113 26.2483 88.0646 26.325C88.0213 26.4017 87.9996 26.485 87.9996 26.575C87.9996 26.7517 88.0479 26.8767 88.1446 26.95C88.2413 27.02 88.3829 27.055 88.5696 27.055C88.7696 27.055 88.9446 27.02 89.0946 26.95C89.2446 26.88 89.3963 26.7667 89.5496 26.61V25.89ZM86.7596 23.535C87.0729 23.2583 87.4196 23.0533 87.7996 22.92C88.1829 22.7833 88.5929 22.715 89.0296 22.715C89.3429 22.715 89.6246 22.7667 89.8746 22.87C90.1279 22.97 90.3413 23.1117 90.5146 23.295C90.6913 23.475 90.8263 23.69 90.9196 23.94C91.0129 24.19 91.0596 24.4633 91.0596 24.76V28H90.3496C90.2029 28 90.0913 27.98 90.0146 27.94C89.9413 27.9 89.8796 27.8167 89.8296 27.69L89.7196 27.405C89.5896 27.515 89.4646 27.6117 89.3446 27.695C89.2246 27.7783 89.0996 27.85 88.9696 27.91C88.8429 27.9667 88.7063 28.0083 88.5596 28.035C88.4163 28.065 88.2563 28.08 88.0796 28.08C87.8429 28.08 87.6279 28.05 87.4346 27.99C87.2413 27.9267 87.0763 27.835 86.9396 27.715C86.8063 27.595 86.7029 27.4467 86.6296 27.27C86.5563 27.09 86.5196 26.8833 86.5196 26.65C86.5196 26.4633 86.5663 26.275 86.6596 26.085C86.7529 25.8917 86.9146 25.7167 87.1446 25.56C87.3746 25.4 87.6846 25.2667 88.0746 25.16C88.4646 25.0533 88.9563 24.9933 89.5496 24.98V24.76C89.5496 24.4567 89.4863 24.2383 89.3596 24.105C89.2363 23.9683 89.0596 23.9 88.8296 23.9C88.6463 23.9 88.4963 23.92 88.3796 23.96C88.2629 24 88.1579 24.045 88.0646 24.095C87.9746 24.145 87.8863 24.19 87.7996 24.23C87.7129 24.27 87.6096 24.29 87.4896 24.29C87.3829 24.29 87.2929 24.2633 87.2196 24.21C87.1463 24.1567 87.0863 24.0933 87.0396 24.02L86.7596 23.535ZM96.8094 22.815L94.0394 29.345C93.9927 29.4483 93.936 29.5233 93.8694 29.57C93.8027 29.62 93.696 29.645 93.5494 29.645H92.3894L93.3894 27.545L91.3194 22.815H92.6894C92.8094 22.815 92.901 22.8417 92.9644 22.895C93.031 22.9483 93.0794 23.0117 93.1094 23.085L93.9594 25.32C94.0394 25.5233 94.1044 25.7317 94.1544 25.945C94.191 25.8383 94.2277 25.7317 94.2644 25.625C94.301 25.5183 94.3394 25.4133 94.3794 25.31L95.1494 23.085C95.1794 23.0083 95.2327 22.945 95.3094 22.895C95.386 22.8417 95.4694 22.815 95.5594 22.815H96.8094Z" fill="black" fill-opacity="0.5"/>
<path d="M32.03 18.6158L28.1994 16.4036L22.9512 20.3249L28.1993 24.2462L32.043 22.0263C32.6423 21.6622 32.9999 21.026 32.9999 20.325C32.9999 19.624 32.6422 18.9878 32.03 18.6158Z" fill="#FF9100"/>
<path d="M24.2784 20.325C24.2726 20.3324 19.6381 26.2911 19.6343 26.2959L13.5971 31.0505C13.2255 30.6789 13 30.1748 13 29.6174V10.9996C13 10.4424 13.2255 9.93813 13.5971 9.56665L19.6343 14.3541C19.6381 14.3589 24.2726 20.3176 24.2784 20.325Z" fill="#25D9F8"/>
<path d="M24.278 20.325L22.9512 22.0366V18.6133L24.278 20.325Z" fill="#00C0F1"/>
<path d="M28.2055 16.3974L24.278 20.325L13.5967 9.56674C13.7293 9.44728 13.8621 9.35439 14.008 9.26151C14.6449 8.9033 15.4012 8.91653 16.0249 9.30136L22.9511 13.3722L28.2055 16.3974Z" fill="#7FE881"/>
<path d="M28.2056 16.3975L24.278 20.3251L22.9512 18.9982V13.3723L28.2056 16.3975Z" fill="#5BC980"/>
<path d="M28.2055 24.2524L22.9511 27.2777L16.0116 31.3291C15.6932 31.5148 15.3482 31.621 14.9899 31.621C14.6582 31.621 14.3265 31.5281 14.008 31.3556C13.8621 31.2627 13.7293 31.1699 13.5967 31.0505L24.278 20.325L28.2055 24.2524Z" fill="#FF5757"/>
<path d="M28.2056 24.2524L22.9512 27.2777V21.6518L24.278 20.325L28.2056 24.2524Z" fill="#FF5757"/>
</svg>
