<svg width="143" height="23" viewBox="0 0 143 23" fill="none" xmlns="http://www.w3.org/2000/svg">
<g clip-path="url(#clip0)">
<path d="M75.4149 1.37325C76.1759 1.10161 76.959 0.881584 77.7716 1.0011C79.4513 1.24829 80.4194 2.9596 79.7884 4.55954C79.3361 5.71671 78.8288 6.85486 78.3481 8.00115L75.0143 15.9085C74.9769 15.9981 74.9542 16.0932 74.9224 16.1801L74.8878 16.2263H74.9683C76.5164 15.7319 78.0616 15.2376 79.6039 14.7432C80.6702 14.4009 81.7302 14.0451 82.8021 13.7164C83.0898 13.6268 83.1965 13.5127 83.1681 13.2166C82.8799 10.1471 85.0952 6.17849 88.3536 4.5867C94.8073 1.43029 101.67 5.29295 102.733 11.106L102.811 11.5541C102.92 12.1708 102.672 12.5484 102.033 12.7222L96.5386 14.2379L90.2205 15.9846L89.9011 16.0796C90.6155 16.7443 91.5563 17.1485 92.5573 17.2205C93.3512 17.3069 94.1553 17.2012 94.8936 16.9131C95.6324 16.6251 96.281 16.1643 96.7781 15.5744C97.2247 15.0664 97.5788 15.0311 98.1928 15.3408C99.0366 15.7836 99.8838 16.2236 100.725 16.6691C100.864 16.725 100.988 16.8113 101.085 16.9209C101.182 17.0305 101.25 17.1602 101.283 17.2995C101.317 17.4387 101.314 17.5834 101.277 17.7217C101.239 17.8601 101.168 17.9881 101.068 18.0952C100.253 19.1882 99.1938 20.0986 97.9635 20.7615C96.7338 21.4245 95.364 21.8237 93.9516 21.9307C92.3661 22.1081 90.7591 21.8879 89.2927 21.2923C87.5994 20.5617 86.136 19.4303 85.0436 18.0083C84.8762 17.7991 84.7553 17.7366 84.4932 17.8262C80.4194 19.1573 76.3444 20.481 72.2689 21.7976C71.7679 21.9829 71.2549 22.1381 70.7334 22.2621C70.3538 22.3306 69.9622 22.3093 69.5934 22.2002C69.2251 22.091 68.8909 21.8973 68.6213 21.6365C68.3512 21.3757 68.1543 21.0559 68.0476 20.7057C67.9415 20.3555 67.9284 19.9859 68.0107 19.6299C68.299 18.3152 68.9357 17.1173 69.4515 15.8813C70.6846 12.9069 71.9489 9.94607 73.1967 6.97712C73.2427 6.86845 73.266 6.74893 73.3006 6.63754L75.4149 1.37325ZM96.2651 9.40281C95.0405 8.1913 92.7389 7.88708 90.9753 8.67213C89.6849 9.24797 88.8779 10.2041 88.4313 11.5487L96.2651 9.40281Z" fill="#FF5757"/>
<path d="M75.4149 1.37305L73.3034 6.63736L65.9769 8.77783L64.4068 9.23694C64.6837 10.0176 64.9192 10.8109 65.1127 11.6137C65.4713 13.3589 65.271 15.1654 64.5361 16.8026C63.8013 18.4397 62.5659 19.8334 60.9872 20.8056C59.4091 21.7779 57.5592 22.2846 55.6736 22.2611C53.7883 22.2377 51.9531 21.6851 50.4024 20.6739C48.8516 19.6628 47.6556 18.2389 46.967 16.584C46.2783 14.9291 46.1283 13.1183 46.536 11.3827C46.9437 9.64698 47.8908 8.06523 49.2561 6.83928C50.6215 5.61335 52.3434 4.79879 54.202 4.49958C56.3801 4.18991 58.5233 4.41537 60.4771 5.50463C60.636 5.57698 60.8176 5.59055 60.9867 5.54266C65.7562 4.16637 70.5211 2.78555 75.2827 1.40021L75.4149 1.37305ZM55.9537 9.55201C55.1891 9.54886 54.4406 9.75917 53.8026 10.1565C53.1646 10.5538 52.6657 11.1203 52.3686 11.7845C52.0716 12.4488 51.9899 13.1811 52.1336 13.8891C52.2773 14.5972 52.6402 15.2492 53.1764 15.7631C53.7127 16.277 54.3982 16.6297 55.1468 16.7768C55.8952 16.9238 56.6732 16.8587 57.3827 16.5895C58.0921 16.3203 58.7009 15.8592 59.1322 15.2642C59.564 14.6693 59.7995 13.9671 59.8086 13.2463C59.8149 12.7646 59.7195 12.2865 59.5289 11.8396C59.3382 11.3927 59.055 10.9858 58.697 10.6424C58.3383 10.299 57.9116 10.0258 57.4406 9.83873C56.9702 9.65158 56.4646 9.55415 55.9537 9.55201Z" fill="#053F7C"/>
<path d="M109.803 16.0794C111.606 17.7446 114.788 17.6033 116.464 15.8078C117.239 14.9929 117.357 14.9576 118.383 15.4927C119.138 15.8875 119.891 16.2831 120.641 16.6798C120.777 16.7369 120.895 16.8229 120.989 16.931C121.082 17.0391 121.148 17.1662 121.179 17.3023C121.212 17.4384 121.21 17.5797 121.174 17.7149C121.138 17.8501 121.069 17.9756 120.973 18.0814C120.16 19.1738 119.103 20.0839 117.875 20.7468C116.647 21.4098 115.278 21.8093 113.868 21.9169C112.165 22.0744 110.486 21.9169 108.971 21.1753C106.425 19.9764 104.472 17.8936 103.522 15.365C101.84 11.1411 104.873 5.12162 110.437 3.77159C116 2.42156 121.65 5.78442 122.618 11.1058C122.647 11.2661 122.672 11.4263 122.701 11.5865C122.814 12.1896 122.554 12.5617 121.901 12.741L115.248 14.5745L109.803 16.0794ZM116.167 9.40262C114.954 8.20197 112.673 7.88957 110.921 8.65835C109.613 9.23147 108.795 10.1931 108.328 11.5486L116.167 9.40262Z" fill="#FF5757"/>
<path d="M129.72 16.085C131.27 17.5572 134.068 17.6469 135.834 16.2806C136.118 16.0449 136.385 15.7907 136.632 15.52C137.038 15.1044 137.398 15.0365 137.922 15.3081C138.799 15.7644 139.672 16.2235 140.544 16.6853C140.679 16.7419 140.798 16.8271 140.891 16.9344C140.985 17.0417 141.051 17.168 141.084 17.3034C141.117 17.4388 141.116 17.5796 141.081 17.7146C141.047 17.8497 140.979 17.9752 140.884 18.0815C140.073 19.1742 139.015 20.0847 137.788 20.7481C136.56 21.4116 135.193 21.8116 133.782 21.9197C132.028 22.08 130.325 21.9197 128.747 21.1238C126.264 19.909 124.363 17.8508 123.428 15.3651C121.734 11.1113 124.811 5.08643 130.414 3.74727C131.727 3.43467 133.094 3.38022 134.43 3.58729C135.765 3.79436 137.042 4.25853 138.179 4.95088C139.317 5.64323 140.29 6.54895 141.04 7.61161C141.79 8.67428 142.3 9.87113 142.538 11.1276C142.564 11.2662 142.59 11.3993 142.613 11.5432C142.723 12.1897 142.48 12.5537 141.821 12.7357L135.171 14.5692L130.043 15.9872L129.72 16.085ZM136.058 9.40544C134.987 8.36782 132.97 7.88159 131.109 8.53351C129.464 9.10936 128.386 10.6414 128.311 11.5215L136.058 9.40544Z" fill="#FF5757"/>
<path d="M35.7835 4.41847C40.0244 4.10609 45.2477 7.65907 45.2535 13.2303C45.2535 18.1198 40.9838 22.102 35.7461 22.121C34.4713 22.1185 33.2102 21.8742 32.0376 21.4029C30.865 20.9315 29.8049 20.2427 28.9203 19.3773C28.0358 18.5118 27.3448 17.4876 26.8886 16.3653C26.4324 15.243 26.2202 14.0458 26.2646 12.8446C26.4691 7.90084 31.1796 4.10609 35.7835 4.41847ZM35.7835 16.8513C36.5481 16.8544 37.2966 16.6441 37.9345 16.2468C38.5725 15.8495 39.0715 15.283 39.3686 14.6187C39.6656 13.9545 39.7473 13.2221 39.6036 12.5141C39.4599 11.8061 39.097 11.154 38.5608 10.6401C38.0245 10.1263 37.339 9.77354 36.5905 9.62651C35.8419 9.47943 35.064 9.5446 34.3547 9.81377C33.6454 10.0829 33.0365 10.5441 32.6048 11.139C32.1731 11.734 31.9378 12.4362 31.9287 13.157C31.9226 13.6398 32.0181 14.1191 32.2098 14.5668C32.4015 15.0146 32.6855 15.4221 33.0454 15.7657C33.4052 16.1092 33.8338 16.3822 34.3063 16.5685C34.7788 16.7548 35.2858 16.8509 35.7979 16.8513H35.7835Z" fill="#053F7C"/>
<path d="M17.5436 12.5076L19.5056 8.13971C19.6439 7.83003 19.7937 7.52036 19.9205 7.21342C20.0485 6.86057 20.2522 6.53629 20.519 6.26089C20.7857 5.98548 21.1097 5.76482 21.4709 5.61263C21.832 5.46046 22.2225 5.38002 22.6181 5.37635C23.0136 5.37268 23.4057 5.44585 23.77 5.5913C24.1342 5.73674 24.4629 5.95136 24.7353 6.22176C25.0077 6.49215 25.2181 6.81258 25.3535 7.16302C25.4889 7.51346 25.5463 7.88643 25.5221 8.2587C25.4979 8.63097 25.3926 8.99452 25.2129 9.32677C24.1585 11.7009 23.0867 14.0668 22.0236 16.4518C21.4244 17.7846 20.828 19.1202 20.2345 20.4584C20.0282 20.9756 19.6596 21.4211 19.1778 21.7356C18.6959 22.0501 18.1239 22.2186 17.5379 22.2186C16.9518 22.2186 16.3797 22.0501 15.898 21.7356C15.4161 21.4211 15.0475 20.9756 14.8412 20.4584L12.6084 15.4494C12.5709 15.3652 12.5277 15.2811 12.4586 15.1425C12.375 15.3164 12.3117 15.4386 12.2569 15.5635C11.5251 17.2151 10.7876 18.8748 10.0298 20.5263C9.90206 20.881 9.69777 21.2069 9.42993 21.4836C9.16209 21.7603 8.83648 21.9818 8.47348 22.1341C8.11047 22.2864 7.71802 22.3663 7.32074 22.3687C6.9234 22.3711 6.52987 22.2961 6.16482 22.1482C5.79978 22.0004 5.47112 21.7829 5.19949 21.5095C4.92785 21.2361 4.71913 20.9128 4.58642 20.5597C4.45371 20.2066 4.3999 19.8314 4.42836 19.4578C4.45682 19.0842 4.56694 18.7201 4.7518 18.3885C5.71216 16.2155 6.68115 14.0532 7.65877 11.9019C8.35596 10.3345 9.0503 8.76445 9.76479 7.21615C9.95279 6.78572 10.254 6.40756 10.6399 6.11727C11.0259 5.82698 11.4839 5.63415 11.9707 5.55697C12.4576 5.47978 12.9573 5.52078 13.4227 5.67609C13.8881 5.83141 14.3039 6.09593 14.6309 6.44469C14.8739 6.71766 15.0684 7.02589 15.2071 7.35739C15.959 8.98724 16.6879 10.6415 17.4255 12.2822C17.4572 12.3338 17.4889 12.3935 17.5436 12.5076Z" fill="#053F7C"/>
<path d="M3.30563 14.7514C2.66317 13.7029 2.05526 12.6979 1.4416 11.6983C1.1535 11.2202 0.833701 10.7475 0.534073 10.2776C-0.168901 9.16117 -0.19483 8.0312 0.557122 6.94461C0.875535 6.43955 1.34882 6.03734 1.91458 5.79099C2.48034 5.54465 3.11199 5.46576 3.72627 5.56472C4.37427 5.62455 4.98639 5.87333 5.47745 6.27644C5.96849 6.67956 6.31407 7.21694 6.46615 7.81387C6.59134 8.21032 6.62629 8.62721 6.56869 9.03731C6.5111 9.44735 6.36225 9.84134 6.13192 10.1934C5.25418 11.6258 4.37162 13.0573 3.48426 14.488C3.43816 14.5504 3.38919 14.6238 3.30563 14.7514Z" fill="#FF5757"/>
</g>
<defs>
<clipPath id="clip0">
<rect width="143" height="21.401" fill="white" transform="translate(0 0.967773)"/>
</clipPath>
</defs>
</svg>
