<svg width="15" height="15" viewBox="0 0 15 15" fill="none" xmlns="http://www.w3.org/2000/svg">
<path d="M7.5 0C3.3645 0 0 3.3645 0 7.5C0 11.6355 3.3645 15 7.5 15C11.6355 15 15 11.6355 15 7.5C15 3.3645 11.6355 0 7.5 0ZM11.3907 7.7065L5.89075 11.4565C5.8485 11.4853 5.79925 11.5 5.75 11.5C5.71 11.5 5.66975 11.4905 5.63325 11.471C5.55125 11.4277 5.5 11.3427 5.5 11.25V3.75C5.5 3.65725 5.55125 3.57225 5.63325 3.529C5.71525 3.4855 5.81425 3.4915 5.891 3.5435L11.391 7.2935C11.459 7.34 11.5 7.41725 11.5 7.5C11.5 7.58275 11.459 7.66 11.3907 7.7065Z" fill="#053F7C"/>
</svg>
