<svg width="143" height="46" viewBox="0 0 143 46" fill="none" xmlns="http://www.w3.org/2000/svg">
<path d="M31.9198 22.5L30 7L39.1192 6.51899M31.9198 22.5L39.1192 6.51899M31.9198 22.5H41.039M39.1192 6.51899L48.7184 6.01266M41.039 22.5C42.1909 22.5 46.6385 11.5084 48.7184 6.01266M41.039 22.5H50.1582M48.7184 6.01266L58.3175 5.50633M50.1582 22.5H59.7574L67.9167 5L58.3175 5.50633M50.1582 22.5L58.3175 5.50633" stroke="#043E7D" stroke-width="4" stroke-linecap="round" stroke-linejoin="round"/>
<ellipse cx="23.7632" cy="3.56683" rx="3.76316" ry="3.56683" fill="#043E7D"/>
<g clip-path="url(#clip0)">
<path d="M75.4149 24.3732C76.1759 24.1016 76.959 23.8816 77.7716 24.0011C79.4513 24.2483 80.4194 25.9596 79.7884 27.5595C79.3361 28.7167 78.8288 29.8549 78.3481 31.0012L75.0143 38.9085C74.9769 38.9981 74.9542 39.0932 74.9224 39.1801L74.8878 39.2263H74.9683C76.5164 38.7319 78.0616 38.2376 79.6039 37.7432C80.6702 37.4009 81.7302 37.0451 82.8021 36.7164C83.0898 36.6268 83.1965 36.5127 83.1681 36.2166C82.8799 33.1471 85.0952 29.1785 88.3536 27.5867C94.8073 24.4303 101.67 28.293 102.733 34.106L102.811 34.5541C102.92 35.1708 102.672 35.5484 102.033 35.7222L96.5386 37.2379L90.2205 38.9846L89.9011 39.0796C90.6155 39.7443 91.5563 40.1485 92.5573 40.2205C93.3512 40.3069 94.1553 40.2012 94.8936 39.9131C95.6324 39.6251 96.281 39.1643 96.7781 38.5744C97.2247 38.0664 97.5788 38.0311 98.1928 38.3408C99.0366 38.7836 99.8838 39.2236 100.725 39.6691C100.864 39.725 100.988 39.8113 101.085 39.9209C101.182 40.0305 101.25 40.1602 101.283 40.2995C101.317 40.4387 101.314 40.5834 101.277 40.7217C101.239 40.8601 101.168 40.9881 101.068 41.0952C100.253 42.1882 99.1938 43.0986 97.9635 43.7615C96.7338 44.4245 95.364 44.8237 93.9516 44.9307C92.3661 45.1081 90.7591 44.8879 89.2927 44.2923C87.5994 43.5617 86.136 42.4303 85.0436 41.0083C84.8762 40.7991 84.7553 40.7366 84.4932 40.8262C80.4194 42.1573 76.3444 43.481 72.2689 44.7976C71.7679 44.9829 71.2549 45.1381 70.7334 45.2621C70.3538 45.3306 69.9622 45.3093 69.5934 45.2002C69.2251 45.091 68.8909 44.8973 68.6213 44.6365C68.3512 44.3757 68.1543 44.0559 68.0476 43.7057C67.9415 43.3555 67.9284 42.9859 68.0107 42.6299C68.299 41.3152 68.9357 40.1173 69.4515 38.8813C70.6846 35.9069 71.9489 32.9461 73.1967 29.9771C73.2427 29.8685 73.266 29.7489 73.3006 29.6375L75.4149 24.3732ZM96.2651 32.4028C95.0405 31.1913 92.7389 30.8871 90.9753 31.6721C89.6849 32.248 88.8779 33.2041 88.4313 34.5487L96.2651 32.4028Z" fill="#FF5757"/>
<path d="M75.4149 24.373L73.3034 29.6374L65.9769 31.7778L64.4068 32.2369C64.6837 33.0176 64.9192 33.8109 65.1127 34.6137C65.4713 36.3589 65.271 38.1654 64.5361 39.8026C63.8013 41.4397 62.5659 42.8334 60.9872 43.8056C59.4091 44.7779 57.5592 45.2846 55.6736 45.2611C53.7883 45.2377 51.9531 44.6851 50.4024 43.6739C48.8516 42.6628 47.6556 41.2389 46.967 39.584C46.2783 37.9291 46.1283 36.1183 46.536 34.3827C46.9437 32.647 47.8908 31.0652 49.2561 29.8393C50.6215 28.6134 52.3434 27.7988 54.202 27.4996C56.3801 27.1899 58.5233 27.4154 60.4771 28.5046C60.636 28.577 60.8176 28.5905 60.9867 28.5427C65.7562 27.1664 70.5211 25.7856 75.2827 24.4002L75.4149 24.373ZM55.9537 32.552C55.1891 32.5489 54.4406 32.7592 53.8026 33.1565C53.1646 33.5538 52.6657 34.1203 52.3686 34.7845C52.0716 35.4488 51.9899 36.1811 52.1336 36.8891C52.2773 37.5972 52.6402 38.2492 53.1764 38.7631C53.7127 39.277 54.3982 39.6297 55.1468 39.7768C55.8952 39.9238 56.6732 39.8587 57.3827 39.5895C58.0921 39.3203 58.7009 38.8592 59.1322 38.2642C59.564 37.6693 59.7995 36.9671 59.8086 36.2463C59.8149 35.7646 59.7195 35.2865 59.5289 34.8396C59.3382 34.3927 59.055 33.9858 58.697 33.6424C58.3383 33.299 57.9116 33.0258 57.4406 32.8387C56.9702 32.6516 56.4646 32.5542 55.9537 32.552Z" fill="#053F7C"/>
<path d="M109.803 39.0794C111.606 40.7446 114.788 40.6033 116.464 38.8078C117.239 37.9929 117.357 37.9576 118.383 38.4927C119.138 38.8875 119.891 39.2831 120.641 39.6798C120.777 39.7369 120.895 39.8229 120.989 39.931C121.082 40.0391 121.148 40.1662 121.179 40.3023C121.212 40.4384 121.21 40.5797 121.174 40.7149C121.138 40.8501 121.069 40.9756 120.973 41.0814C120.16 42.1738 119.103 43.0839 117.875 43.7468C116.647 44.4098 115.278 44.8093 113.868 44.9169C112.165 45.0744 110.486 44.9169 108.971 44.1753C106.425 42.9764 104.472 40.8936 103.522 38.365C101.84 34.1411 104.873 28.1216 110.437 26.7716C116 25.4216 121.65 28.7844 122.618 34.1058C122.647 34.2661 122.672 34.4263 122.701 34.5865C122.814 35.1896 122.554 35.5617 121.901 35.741L115.248 37.5745L109.803 39.0794ZM116.167 32.4026C114.954 31.202 112.673 30.8896 110.921 31.6584C109.613 32.2315 108.795 33.1931 108.328 34.5486L116.167 32.4026Z" fill="#FF5757"/>
<path d="M129.72 39.085C131.27 40.5572 134.068 40.6469 135.834 39.2806C136.118 39.0449 136.385 38.7907 136.632 38.52C137.038 38.1044 137.398 38.0365 137.922 38.3081C138.799 38.7644 139.672 39.2235 140.544 39.6853C140.679 39.7419 140.798 39.8271 140.891 39.9344C140.985 40.0417 141.051 40.168 141.084 40.3034C141.117 40.4388 141.116 40.5796 141.081 40.7146C141.047 40.8497 140.979 40.9752 140.884 41.0815C140.073 42.1742 139.015 43.0847 137.788 43.7481C136.56 44.4116 135.193 44.8116 133.782 44.9197C132.028 45.08 130.325 44.9197 128.747 44.1238C126.264 42.909 124.363 40.8508 123.428 38.3651C121.734 34.1113 124.811 28.0864 130.414 26.7473C131.727 26.4347 133.094 26.3802 134.43 26.5873C135.765 26.7944 137.042 27.2585 138.179 27.9509C139.317 28.6432 140.29 29.5489 141.04 30.6116C141.79 31.6743 142.3 32.8711 142.538 34.1276C142.564 34.2662 142.59 34.3993 142.613 34.5432C142.723 35.1897 142.48 35.5537 141.821 35.7357L135.171 37.5692L130.043 38.9872L129.72 39.085ZM136.058 32.4054C134.987 31.3678 132.97 30.8816 131.109 31.5335C129.464 32.1094 128.386 33.6414 128.311 34.5215L136.058 32.4054Z" fill="#FF5757"/>
<path d="M35.7835 27.4185C40.0244 27.1061 45.2477 30.6591 45.2535 36.2303C45.2535 41.1198 40.9838 45.102 35.7461 45.121C34.4713 45.1185 33.2102 44.8742 32.0376 44.4029C30.865 43.9315 29.8049 43.2427 28.9203 42.3773C28.0358 41.5118 27.3448 40.4876 26.8886 39.3653C26.4324 38.243 26.2202 37.0458 26.2646 35.8446C26.4691 30.9008 31.1796 27.1061 35.7835 27.4185ZM35.7835 39.8513C36.5481 39.8544 37.2966 39.6441 37.9345 39.2468C38.5725 38.8495 39.0715 38.283 39.3686 37.6187C39.6656 36.9545 39.7473 36.2221 39.6036 35.5141C39.4599 34.8061 39.097 34.154 38.5608 33.6401C38.0245 33.1263 37.339 32.7735 36.5905 32.6265C35.8419 32.4794 35.064 32.5446 34.3547 32.8138C33.6454 33.0829 33.0365 33.5441 32.6048 34.139C32.1731 34.734 31.9378 35.4362 31.9287 36.157C31.9226 36.6398 32.0181 37.1191 32.2098 37.5668C32.4015 38.0146 32.6855 38.4221 33.0454 38.7657C33.4052 39.1092 33.8338 39.3822 34.3063 39.5685C34.7788 39.7548 35.2858 39.8509 35.7979 39.8513H35.7835Z" fill="#053F7C"/>
<path d="M17.5436 35.5076L19.5056 31.1397C19.6439 30.83 19.7937 30.5204 19.9205 30.2134C20.0485 29.8606 20.2522 29.5363 20.519 29.2609C20.7857 28.9855 21.1097 28.7648 21.4709 28.6126C21.832 28.4605 22.2225 28.38 22.6181 28.3764C23.0136 28.3727 23.4057 28.4459 23.77 28.5913C24.1342 28.7367 24.4629 28.9514 24.7353 29.2218C25.0077 29.4922 25.2181 29.8126 25.3535 30.163C25.4889 30.5135 25.5463 30.8864 25.5221 31.2587C25.4979 31.631 25.3926 31.9945 25.2129 32.3268C24.1585 34.7009 23.0867 37.0668 22.0236 39.4518C21.4244 40.7846 20.828 42.1202 20.2345 43.4584C20.0282 43.9756 19.6596 44.4211 19.1778 44.7356C18.6959 45.0501 18.1239 45.2186 17.5379 45.2186C16.9518 45.2186 16.3797 45.0501 15.898 44.7356C15.4161 44.4211 15.0475 43.9756 14.8412 43.4584L12.6084 38.4494C12.5709 38.3652 12.5277 38.2811 12.4586 38.1425C12.375 38.3164 12.3117 38.4386 12.2569 38.5635C11.5251 40.2151 10.7876 41.8748 10.0298 43.5263C9.90206 43.881 9.69777 44.2069 9.42993 44.4836C9.16209 44.7603 8.83648 44.9818 8.47348 45.1341C8.11047 45.2864 7.71802 45.3663 7.32074 45.3687C6.9234 45.3711 6.52987 45.2961 6.16482 45.1482C5.79978 45.0004 5.47112 44.7829 5.19949 44.5095C4.92785 44.2361 4.71913 43.9128 4.58642 43.5597C4.45371 43.2066 4.3999 42.8314 4.42836 42.4578C4.45682 42.0842 4.56694 41.7201 4.7518 41.3885C5.71216 39.2155 6.68115 37.0532 7.65877 34.9019C8.35596 33.3345 9.0503 31.7645 9.76479 30.2161C9.95279 29.7857 10.254 29.4076 10.6399 29.1173C11.0259 28.827 11.4839 28.6342 11.9707 28.557C12.4576 28.4798 12.9573 28.5208 13.4227 28.6761C13.8881 28.8314 14.3039 29.0959 14.6309 29.4447C14.8739 29.7177 15.0684 30.0259 15.2071 30.3574C15.959 31.9872 16.6879 33.6415 17.4255 35.2822C17.4572 35.3338 17.4889 35.3935 17.5436 35.5076Z" fill="#053F7C"/>
<path d="M3.30563 37.7514C2.66317 36.7029 2.05526 35.6979 1.4416 34.6983C1.1535 34.2202 0.833701 33.7475 0.534073 33.2776C-0.168901 32.1612 -0.19483 31.0312 0.557122 29.9446C0.875535 29.4396 1.34882 29.0373 1.91458 28.791C2.48034 28.5446 3.11199 28.4658 3.72627 28.5647C4.37427 28.6246 4.98639 28.8733 5.47745 29.2764C5.96849 29.6796 6.31407 30.2169 6.46615 30.8139C6.59134 31.2103 6.62629 31.6272 6.56869 32.0373C6.5111 32.4474 6.36225 32.8413 6.13192 33.1934C5.25418 34.6258 4.37162 36.0573 3.48426 37.488C3.43816 37.5504 3.38919 37.6238 3.30563 37.7514Z" fill="#FF5757"/>
</g>
<defs>
<clipPath id="clip0">
<rect width="143" height="21.401" fill="white" transform="translate(0 23.9678)"/>
</clipPath>
</defs>
</svg>
