<svg width="40" height="40" viewBox="0 0 40 40" fill="none" xmlns="http://www.w3.org/2000/svg">
<circle cx="20" cy="20" r="19.5" fill="white" stroke="#3F88C5"/>
<path d="M29.2679 15.0342C29.0529 14.2388 28.4229 13.6118 27.624 13.3976C26.1644 13 20.3259 13 20.3259 13C20.3259 13 14.4876 13 13.028 13.3825C12.2445 13.5965 11.5991 14.2389 11.3841 15.0342C11 16.487 11 19.5 11 19.5C11 19.5 11 22.5282 11.3841 23.9658C11.5992 24.7611 12.2291 25.3882 13.0281 25.6024C14.503 26 20.326 26 20.326 26C20.326 26 26.1644 26 27.624 25.6175C28.423 25.4035 29.0529 24.7764 29.268 23.9811C29.6521 22.5282 29.6521 19.5153 29.6521 19.5153C29.6521 19.5153 29.6675 16.487 29.2679 15.0342Z" fill="#3F88C5"/>
<path d="M17.7146 22.326L22.5189 19.4999L17.7146 16.6738V22.326Z" fill="white"/>
</svg>
