<svg width="20" height="20" viewBox="0 0 20 20" fill="none" xmlns="http://www.w3.org/2000/svg">
<path d="M17.385 13.4818L18.125 10.707V9.0625C17.8072 5.3909 14.6901 2.5 10.9375 2.5H9.6875V9.0625H5.16242L4.46539 5.98562C4.40397 5.70701 4.24952 5.4576 4.02746 5.27846C3.80541 5.09932 3.52898 5.00111 3.24367 5H0.625V6.25H3.24367L4.82473 13.2293C4.26054 13.3788 3.74949 13.6832 3.34946 14.1082C2.94943 14.5332 2.67641 15.0618 2.56134 15.634C2.44627 16.2061 2.49373 16.7991 2.69837 17.3457C2.903 17.8923 3.25661 18.3707 3.71915 18.7267C4.1817 19.0826 4.73468 19.3019 5.31546 19.3597C5.89623 19.4175 6.4816 19.3115 7.00523 19.0538C7.52887 18.796 7.96985 18.3967 8.27821 17.9012C8.58658 17.4056 8.75002 16.8336 8.75 16.25C8.75 16.1445 8.74479 16.0404 8.73438 15.9375H12.8281C12.8178 16.0403 12.8126 16.1445 12.8125 16.25C12.8123 16.8042 12.9594 17.3484 13.2388 17.827C13.5182 18.3056 13.9199 18.7012 14.4026 18.9734C14.8853 19.2456 15.4318 19.3845 15.9859 19.3759C16.54 19.3674 17.0818 19.2116 17.5559 18.9246C18.03 18.6376 18.4192 18.2297 18.6837 17.7427C18.9481 17.2557 19.0783 16.7072 19.061 16.1533C19.0436 15.5994 18.8792 15.0601 18.5847 14.5906C18.2902 14.1212 17.8762 13.7385 17.385 13.4818ZM10.9375 3.75C14.0004 3.75 16.5291 6.08117 16.8423 9.0625H10.9375V3.75ZM5.625 18.125C5.25416 18.125 4.89165 18.015 4.58331 17.809C4.27496 17.603 4.03464 17.3101 3.89273 16.9675C3.75081 16.6249 3.71368 16.2479 3.78603 15.8842C3.85838 15.5205 4.03695 15.1864 4.29917 14.9242C4.5614 14.662 4.89549 14.4834 5.25921 14.411C5.62292 14.3387 5.99992 14.3758 6.34253 14.5177C6.68514 14.6596 6.97798 14.9 7.18401 15.2083C7.39003 15.5166 7.5 15.8792 7.5 16.25C7.49943 16.7471 7.3017 17.2237 6.9502 17.5752C6.59869 17.9267 6.12211 18.1244 5.625 18.125ZM13.2329 14.6875H8.32957C8.09465 14.2814 7.77148 13.9333 7.38396 13.6689C6.99644 13.4045 6.55445 13.2305 6.09066 13.1598L5.44563 10.3125H16.875V10.543L16.1836 13.1355C16.1017 13.1287 16.0196 13.1252 15.9375 13.1249C15.3893 13.1253 14.8508 13.2699 14.3761 13.5442C13.9013 13.8185 13.5071 14.2127 13.2329 14.6875ZM15.9375 18.125C15.5667 18.125 15.2041 18.015 14.8958 17.809C14.5875 17.603 14.3471 17.3101 14.2052 16.9675C14.0633 16.6249 14.0262 16.2479 14.0985 15.8842C14.1709 15.5205 14.3495 15.1864 14.6117 14.9242C14.8739 14.662 15.208 14.4834 15.5717 14.411C15.9354 14.3387 16.3124 14.3758 16.655 14.5177C16.9976 14.6596 17.2905 14.9 17.4965 15.2083C17.7025 15.5166 17.8125 15.8792 17.8125 16.25C17.8119 16.7471 17.6142 17.2237 17.2627 17.5752C16.9112 17.9267 16.4346 18.1244 15.9375 18.125Z" fill="black" fill-opacity="0.7"/>
</svg>
