<svg width="20" height="20" viewBox="0 0 20 20" fill="none" xmlns="http://www.w3.org/2000/svg">
<path d="M4.69376 16.2501C4.38982 16.2506 4.08716 16.2106 3.79376 16.1313C2.91307 15.8802 2.1659 15.2938 1.71255 14.4981C1.25919 13.7024 1.13577 12.7607 1.36876 11.8751L2.82501 6.35006C2.93842 5.90291 3.14003 5.48294 3.41802 5.1148C3.696 4.74667 4.04474 4.43779 4.44376 4.20631C4.83227 3.98127 5.26158 3.83557 5.70681 3.77764C6.15204 3.7197 6.60434 3.75069 7.03751 3.86881C7.49797 3.99667 7.92685 4.21881 8.29695 4.52113C8.66706 4.82346 8.97032 5.19937 9.18751 5.62506H10.8125C11.0288 5.19869 11.3317 4.82222 11.702 4.51978C12.0722 4.21735 12.5016 3.99561 12.9625 3.86881C13.3957 3.75069 13.848 3.7197 14.2932 3.77764C14.7384 3.83557 15.1677 3.98127 15.5563 4.20631C15.9533 4.43719 16.3008 4.74438 16.5786 5.11016C16.8564 5.47594 17.0591 5.89309 17.175 6.33756L18.6313 11.8751C18.8677 12.7633 18.7453 13.7089 18.2904 14.5076C17.8355 15.3064 17.0846 15.8941 16.2 16.1438C15.7668 16.2619 15.3145 16.2929 14.8693 16.235C14.4241 16.177 13.9948 16.0313 13.6063 15.8063C13.2085 15.5762 12.8606 15.2693 12.5826 14.9034C12.3047 14.5375 12.1024 14.1199 11.9875 13.6751L11.875 13.1251H8.12501L7.98126 13.6626C7.86635 14.1074 7.66404 14.525 7.38612 14.8909C7.1082 15.2568 6.76024 15.5637 6.36251 15.7938C5.85468 16.0867 5.27996 16.2438 4.69376 16.2501ZM6.14376 5.00006C5.76659 5.00134 5.39621 5.10039 5.06876 5.28756C4.55554 5.58867 4.1825 6.08082 4.03126 6.65631L2.57501 12.1813C2.42262 12.7505 2.49962 13.3568 2.78945 13.8698C3.07929 14.3829 3.55882 14.7618 4.12501 14.9251C4.39845 14.9996 4.68396 15.0193 4.96504 14.9828C5.24611 14.9463 5.51716 14.8545 5.76251 14.7126C6.01795 14.5651 6.24132 14.368 6.41949 14.133C6.59766 13.8979 6.72704 13.6296 6.80001 13.3438L7.18751 11.8751H12.8125L13.1938 13.3438C13.268 13.629 13.3979 13.8968 13.5759 14.1317C13.754 14.3666 13.9767 14.564 14.2313 14.7126C14.4778 14.8543 14.7499 14.9461 15.032 14.9825C15.314 15.019 15.6005 14.9995 15.875 14.9251C16.4419 14.7633 16.922 14.3844 17.2111 13.8706C17.5001 13.3569 17.5748 12.7498 17.4188 12.1813L15.9625 6.65631C15.8899 6.37118 15.7614 6.10333 15.5844 5.86835C15.4073 5.63336 15.1853 5.43594 14.9313 5.28756C14.6847 5.14578 14.4126 5.05404 14.1305 5.01758C13.8485 4.98111 13.562 5.00064 13.2875 5.07506C12.948 5.17182 12.6366 5.34819 12.3789 5.58951C12.1213 5.83083 11.925 6.13013 11.8063 6.46256L11.6563 6.87506H8.34376L8.19376 6.46256C8.07397 6.12968 7.87655 5.83017 7.61785 5.58887C7.35915 5.34756 7.04665 5.17142 6.70626 5.07506C6.52284 5.0256 6.33373 5.00038 6.14376 5.00006Z" fill="black" fill-opacity="0.7"/>
<path d="M6.25 10C6.00277 10 5.7611 9.92669 5.55554 9.78934C5.34998 9.65199 5.18976 9.45676 5.09515 9.22835C5.00054 8.99995 4.97579 8.74861 5.02402 8.50614C5.07225 8.26366 5.1913 8.04093 5.36612 7.86612C5.54093 7.6913 5.76366 7.57225 6.00614 7.52402C6.24861 7.47579 6.49995 7.50054 6.72835 7.59515C6.95676 7.68976 7.15199 7.84998 7.28934 8.05554C7.42669 8.2611 7.5 8.50277 7.5 8.75C7.5 9.08152 7.3683 9.39946 7.13388 9.63388C6.89946 9.8683 6.58152 10 6.25 10Z" fill="black" fill-opacity="0.7"/>
<path d="M13.75 8.125C14.0952 8.125 14.375 7.84518 14.375 7.5C14.375 7.15482 14.0952 6.875 13.75 6.875C13.4048 6.875 13.125 7.15482 13.125 7.5C13.125 7.84518 13.4048 8.125 13.75 8.125Z" fill="black" fill-opacity="0.7"/>
<path d="M13.75 10.625C14.0952 10.625 14.375 10.3452 14.375 10C14.375 9.65482 14.0952 9.375 13.75 9.375C13.4048 9.375 13.125 9.65482 13.125 10C13.125 10.3452 13.4048 10.625 13.75 10.625Z" fill="black" fill-opacity="0.7"/>
<path d="M12.5 9.375C12.8452 9.375 13.125 9.09518 13.125 8.75C13.125 8.40482 12.8452 8.125 12.5 8.125C12.1548 8.125 11.875 8.40482 11.875 8.75C11.875 9.09518 12.1548 9.375 12.5 9.375Z" fill="black" fill-opacity="0.7"/>
<path d="M15 9.375C15.3452 9.375 15.625 9.09518 15.625 8.75C15.625 8.40482 15.3452 8.125 15 8.125C14.6548 8.125 14.375 8.40482 14.375 8.75C14.375 9.09518 14.6548 9.375 15 9.375Z" fill="black" fill-opacity="0.7"/>
</svg>
