<svg width="26" height="31" viewBox="0 0 26 31" fill="none" xmlns="http://www.w3.org/2000/svg">
<path d="M25.9697 8.28423L25.9688 8.26047C25.9555 7.96719 25.9466 7.65691 25.9413 7.31169C25.9164 5.62821 24.5781 4.23567 22.8944 4.14156C19.3839 3.94566 16.6683 2.80097 14.3479 0.539323L14.3281 0.520454C13.5713 -0.173485 12.4296 -0.173485 11.6726 0.520454L11.6528 0.539323C9.33241 2.80097 6.61675 3.94566 3.10629 4.14179C1.42281 4.23567 0.0843147 5.62821 0.0593898 7.31192C0.054265 7.65482 0.0451802 7.9651 0.0319024 8.26047L0.0305048 8.31568C-0.0377477 11.8953 -0.122539 16.3504 1.36783 20.394C2.18733 22.6177 3.42845 24.5507 5.0565 26.1396C6.91073 27.9491 9.3394 29.3857 12.275 30.4092C12.3705 30.4425 12.4697 30.4695 12.5708 30.4898C12.7134 30.5182 12.8568 30.5324 13.0003 30.5324C13.1438 30.5324 13.2876 30.5182 13.4299 30.4898C13.531 30.4695 13.6309 30.4423 13.7269 30.4087C16.6589 29.3833 19.0851 27.9461 20.9377 26.1368C22.565 24.5474 23.8061 22.614 24.6263 20.3898C26.1223 16.3341 26.0377 11.8706 25.9697 8.28423ZM22.9454 19.77C21.3735 24.0319 18.1647 26.9589 13.1357 28.7176C13.1177 28.7236 13.0986 28.729 13.0788 28.7329C13.0269 28.7432 12.974 28.7432 12.9214 28.7327C12.9018 28.7288 12.8827 28.7236 12.865 28.7176C7.83062 26.9621 4.61973 24.0368 3.04899 19.7746C1.67532 16.0473 1.75312 11.9578 1.82184 8.34992L1.82231 8.32989C1.83628 8.01984 1.8456 7.69512 1.85073 7.33825C1.86191 6.59073 2.45731 5.97227 3.20622 5.93057C5.19277 5.81969 6.93798 5.4358 8.54156 4.757C10.1431 4.07913 11.5654 3.1236 12.8895 1.83589C12.9568 1.77905 13.0441 1.77882 13.1112 1.83589C14.4355 3.1236 15.8579 4.07913 17.4591 4.757C19.0627 5.4358 20.8079 5.81969 22.7947 5.93057C23.5436 5.97227 24.139 6.59073 24.1499 7.33848C24.1553 7.69721 24.1646 8.02194 24.1786 8.32989C24.2471 11.9419 24.323 16.0347 22.9454 19.77Z" fill="#043F7C"/>
<path d="M12.9999 7.65771C8.80408 7.65771 5.39075 11.0713 5.39075 15.2668C5.39075 19.4626 8.80408 22.8762 12.9999 22.8762C17.1954 22.8762 20.609 19.4626 20.609 15.2668C20.609 11.0713 17.1954 7.65771 12.9999 7.65771ZM12.9999 21.0844C9.792 21.0844 7.18232 18.4747 7.18232 15.2668C7.18232 12.059 9.792 9.44929 12.9999 9.44929C16.2075 9.44929 18.8172 12.059 18.8172 15.2668C18.8172 18.4747 16.2075 21.0844 12.9999 21.0844Z" fill="#043F7C"/>
<path d="M15.1868 12.9044L11.6525 16.4387L10.6933 15.4794C10.3434 15.1295 9.77618 15.1295 9.4263 15.4794C9.07665 15.8293 9.07665 16.3965 9.4263 16.7461L11.0192 18.339C11.1941 18.514 11.4233 18.6013 11.6525 18.6013C11.8818 18.6013 12.111 18.514 12.2859 18.339L16.4538 14.1712C16.8034 13.8213 16.8034 13.2541 16.4538 12.9044C16.1039 12.5543 15.5367 12.5543 15.1868 12.9044Z" fill="#043F7C"/>
</svg>
