<svg width="40" height="40" viewBox="0 0 40 40" fill="none" xmlns="http://www.w3.org/2000/svg">
<circle cx="20" cy="20" r="20" fill="#FF5757"/>
<path d="M29.743 19.331L20.743 9.33103C20.364 8.90903 19.636 8.90903 19.257 9.33103L10.257 19.331C10.1274 19.4746 10.0424 19.6528 10.0122 19.8438C9.98205 20.0348 10.008 20.2305 10.087 20.407C10.247 20.768 10.605 21 11 21H13V28C13 28.2652 13.1053 28.5196 13.2929 28.7071C13.4804 28.8947 13.7348 29 14 29H17C17.2652 29 17.5196 28.8947 17.7071 28.7071C17.8946 28.5196 18 28.2652 18 28V24H22V28C22 28.2652 22.1053 28.5196 22.2929 28.7071C22.4804 28.8947 22.7348 29 23 29H26C26.2652 29 26.5196 28.8947 26.7071 28.7071C26.8946 28.5196 27 28.2652 27 28V21H29C29.1937 21.0008 29.3834 20.9453 29.546 20.8402C29.7087 20.735 29.8372 20.5848 29.916 20.4079C29.9947 20.231 30.0203 20.035 29.9896 19.8437C29.9589 19.6525 29.8732 19.4744 29.743 19.331Z" fill="white"/>
</svg>
