<svg width="40" height="40" viewBox="0 0 40 40" fill="none" xmlns="http://www.w3.org/2000/svg">
<circle cx="20" cy="20" r="20" fill="#FCA804"/>
<path d="M29.0931 13.3734H10.4264C10.0728 13.3734 9.73368 13.5139 9.48363 13.7639C9.23358 14.014 9.09311 14.3531 9.09311 14.7067V25.3734C9.09311 25.727 9.23358 26.0662 9.48363 26.3162C9.73368 26.5663 10.0728 26.7067 10.4264 26.7067H29.0931C29.4467 26.7067 29.7859 26.5663 30.0359 26.3162C30.286 26.0662 30.4264 25.727 30.4264 25.3734V14.7067C30.4264 14.3531 30.286 14.014 30.0359 13.7639C29.7859 13.5139 29.4467 13.3734 29.0931 13.3734ZM10.4264 25.3734V22.1401C11.2598 22.2014 12.0427 22.5629 12.6299 23.1575C13.2171 23.752 13.5688 24.5393 13.6198 25.3734H10.4264ZM10.4264 17.9401V14.7067H13.6198C13.5688 15.5408 13.2171 16.3281 12.6299 16.9227C12.0427 17.5173 11.2598 17.8787 10.4264 17.9401ZM19.7598 24.8067C17.4464 24.8067 15.5598 22.6667 15.5598 20.0401C15.5598 17.4134 17.4464 15.2734 19.7598 15.2734C22.0731 15.2734 23.9598 17.4134 23.9598 20.0401C23.9598 22.6667 22.0731 24.8067 19.7598 24.8067ZM29.0931 25.3734H25.9264C25.9767 24.5436 26.3246 23.7597 26.9063 23.1657C27.488 22.5717 28.2645 22.2076 29.0931 22.1401V25.3734ZM29.0931 17.9401C28.2645 17.8726 27.488 17.5084 26.9063 16.9145C26.3246 16.3205 25.9767 15.5366 25.9264 14.7067H29.0931V17.9401Z" fill="white"/>
<path d="M19.7598 23.1868C21.2325 23.1868 22.4264 21.778 22.4264 20.0401C22.4264 18.3022 21.2325 16.8934 19.7598 16.8934C18.287 16.8934 17.0931 18.3022 17.0931 20.0401C17.0931 21.778 18.287 23.1868 19.7598 23.1868Z" fill="white"/>
</svg>
