<svg width="40" height="40" viewBox="0 0 40 40" fill="none" xmlns="http://www.w3.org/2000/svg">
<circle cx="20" cy="20" r="20" fill="#043F7C"/>
<g clip-path="url(#clip0)">
<path d="M24 14.4H12V24.8H24V14.4Z" stroke="white" stroke-width="2" stroke-linecap="round" stroke-linejoin="round"/>
<path d="M24 18.4H27.2L29.6 20.8V24.8H24V18.4Z" stroke="white" stroke-width="2" stroke-linecap="round" stroke-linejoin="round"/>
<path d="M15.6 28.8C16.7046 28.8 17.6 27.9046 17.6 26.8C17.6 25.6955 16.7046 24.8 15.6 24.8C14.4954 24.8 13.6 25.6955 13.6 26.8C13.6 27.9046 14.4954 28.8 15.6 28.8Z" stroke="white" stroke-width="2" stroke-linecap="round" stroke-linejoin="round"/>
<path d="M26 28.8C27.1046 28.8 28 27.9046 28 26.8C28 25.6955 27.1046 24.8 26 24.8C24.8954 24.8 24 25.6955 24 26.8C24 27.9046 24.8954 28.8 26 28.8Z" stroke="white" stroke-width="2" stroke-linecap="round" stroke-linejoin="round"/>
</g>
<defs>
<clipPath id="clip0">
<rect width="19.2" height="19.2" fill="white" transform="translate(11.2 12)"/>
</clipPath>
</defs>
</svg>
