<svg width="40" height="40" viewBox="0 0 40 40" fill="none" xmlns="http://www.w3.org/2000/svg">
<circle cx="20" cy="20" r="20" fill="#043F7C"/>
<path d="M12 14C10.89 14 10 14.89 10 16V24H12C12 24.7956 12.3161 25.5587 12.8787 26.1213C13.4413 26.6839 14.2044 27 15 27C15.7957 27 16.5587 26.6839 17.1213 26.1213C17.684 25.5587 18 24.7956 18 24H24C24 24.7956 24.3161 25.5587 24.8787 26.1213C25.4413 26.6839 26.2044 27 27 27C27.7957 27 28.5587 26.6839 29.1213 26.1213C29.684 25.5587 30 24.7956 30 24H32V20C32 18.89 31.11 18 30 18L27 14H12ZM24 15.5H26.5L28.46 18H24V15.5ZM15 22.5C15.3979 22.5 15.7794 22.658 16.0607 22.9393C16.342 23.2206 16.5 23.6022 16.5 24C16.5 24.3978 16.342 24.7794 16.0607 25.0607C15.7794 25.342 15.3979 25.5 15 25.5C14.6022 25.5 14.2207 25.342 13.9394 25.0607C13.6581 24.7794 13.5 24.3978 13.5 24C13.5 23.6022 13.6581 23.2206 13.9394 22.9393C14.2207 22.658 14.6022 22.5 15 22.5ZM27 22.5C27.3979 22.5 27.7794 22.658 28.0607 22.9393C28.342 23.2206 28.5 23.6022 28.5 24C28.5 24.3978 28.342 24.7794 28.0607 25.0607C27.7794 25.342 27.3979 25.5 27 25.5C26.6022 25.5 26.2207 25.342 25.9394 25.0607C25.6581 24.7794 25.5 24.3978 25.5 24C25.5 23.6022 25.6581 23.2206 25.9394 22.9393C26.2207 22.658 26.6022 22.5 27 22.5Z" fill="white"/>
</svg>
