<svg width="40" height="40" viewBox="0 0 40 40" fill="none" xmlns="http://www.w3.org/2000/svg">
<circle cx="20" cy="20" r="20" fill="#0EE497"/>
<path d="M22.9675 7L21.7636 8.26131L23.5471 10.1299C23.7924 10.4219 23.915 10.7606 23.915 11.146C23.915 11.5314 23.7924 11.8934 23.5471 12.1504L19.5899 16.3664L20.7046 17.6277L24.751 13.4117C25.3418 12.7226 25.6317 11.9635 25.6317 11.146C25.6317 10.3285 25.3418 9.55766 24.751 8.86861L22.9675 7V7ZM18.5309 9.35912L17.327 10.6204L18.007 11.2745C18.2522 11.5314 18.3748 11.8818 18.3748 12.3139C18.3748 12.746 18.2522 13.0964 18.007 13.3533L17.327 14.0073L18.5309 15.2686L19.1551 14.5562C19.7459 13.8672 20.0469 13.1197 20.0469 12.3139C20.0469 11.473 19.7459 10.7139 19.1551 10.0131L18.5309 9.35912V9.35912ZM30.1797 11.2161C29.4106 11.2161 28.6972 11.5314 28.0395 12.1504L21.7636 18.7372L22.9675 19.9051L29.1876 13.4117C29.4663 13.1197 29.8007 12.9679 30.1797 12.9679C30.5588 12.9679 30.8932 13.1197 31.1719 13.4117L31.8518 14.1241L33 12.8628L32.3758 12.1504C31.7181 11.5314 30.9823 11.2161 30.1797 11.2161V11.2161ZM14.5736 14.6496L9 31L24.6061 25.1606L14.5736 14.6496ZM27.9503 18.2234C27.17 18.2234 26.4566 18.5387 25.7877 19.1577L24.0153 21.0146L25.2192 22.2759L26.9916 20.419C27.2703 20.127 27.5824 19.9752 27.9503 19.9752C28.3182 19.9752 28.6526 20.127 28.9313 20.419L30.7371 22.2759L31.9076 21.073L30.124 19.1577C29.4663 18.5387 28.7306 18.2234 27.9503 18.2234V18.2234Z" fill="white"/>
</svg>
