<svg width="50" height="50" viewBox="0 0 50 50" fill="none" xmlns="http://www.w3.org/2000/svg">
<circle cx="25" cy="25" r="25" fill="#FCA804"/>
<path d="M36.1087 25.2646H32.8325V22.1159H36.1087C36.601 22.1159 37 21.7173 37 21.2249C37 20.7325 36.601 20.3336 36.1087 20.3336H32.8325V15.9647C32.8325 15.327 32.7065 14.8589 32.4581 14.5738C32.222 14.3025 31.9115 14.1763 31.4817 14.1763C31.0715 14.1763 30.7727 14.3016 30.5412 14.5712C30.2956 14.8566 30.171 15.3256 30.171 15.965V20.3341H24.0084L21.3881 16.3691C21.1639 16.0152 20.953 15.6837 20.7482 15.3656C20.5639 15.079 20.3841 14.8457 20.2142 14.6715C20.0639 14.5173 19.8925 14.398 19.6921 14.3062C19.503 14.2199 19.2626 14.1766 18.9782 14.1766C18.6155 14.1766 18.2862 14.2759 17.9708 14.4801C17.6588 14.6821 17.4431 14.9318 17.3114 15.2435C17.1958 15.5398 17.1346 15.9937 17.1346 16.5797V20.3339H13.891C13.3988 20.3339 13 20.7328 13 21.2252C13 21.7175 13.3988 22.1162 13.891 22.1162H17.1346V25.2651H13.891C13.3988 25.2651 13 25.6639 13 26.1564C13 26.6487 13.3988 27.0472 13.891 27.0472H17.1346V32.0353C17.1346 32.6542 17.2647 33.1176 17.5222 33.412C17.7672 33.6927 18.0778 33.8231 18.4995 33.8231C18.9064 33.8231 19.2146 33.6921 19.4701 33.4109C19.7318 33.1227 19.8642 32.6597 19.8642 32.0354V27.0472H25.4407L28.4584 31.6745C28.6682 31.9804 28.8849 32.2892 29.101 32.5919C29.2959 32.8638 29.5086 33.1033 29.733 33.3034C29.9351 33.4843 30.1518 33.6169 30.377 33.6978C30.6088 33.7813 30.8798 33.8236 31.1805 33.8236C31.9966 33.8236 32.8324 33.5738 32.8324 31.7209V27.0472H36.1086C36.6009 27.0472 36.9999 26.6481 36.9999 26.1559C37 25.6636 36.601 25.2646 36.1087 25.2646ZM30.171 22.1159V25.2645H27.2673L25.1867 22.1159H30.171ZM19.8642 18.498L21.0617 20.3336H19.8642V18.498ZM19.8642 25.2646V22.1159H22.2244L24.2781 25.2646H19.8642ZM30.171 29.6593L28.4453 27.0472H30.171V29.6593Z" fill="white"/>
</svg>
