<svg width="18" height="16" viewBox="0 0 18 16" fill="none" xmlns="http://www.w3.org/2000/svg">
<path d="M17.125 0.734375H0.875C0.529297 0.734375 0.25 1.01367 0.25 1.35938V11.0469C0.25 11.3926 0.529297 11.6719 0.875 11.6719H8.29688V13.8594H4.9375C4.76562 13.8594 4.625 14 4.625 14.1719V15.1094C4.625 15.1953 4.69531 15.2656 4.78125 15.2656H13.2188C13.3047 15.2656 13.375 15.1953 13.375 15.1094V14.1719C13.375 14 13.2344 13.8594 13.0625 13.8594H9.70312V11.6719H17.125C17.4707 11.6719 17.75 11.3926 17.75 11.0469V1.35938C17.75 1.01367 17.4707 0.734375 17.125 0.734375ZM16.3438 10.2656H1.65625V2.14062H16.3438V10.2656Z" fill="black" fill-opacity="0.7"/>
</svg>
