<svg width="20" height="14" viewBox="0 0 20 14" fill="none" xmlns="http://www.w3.org/2000/svg">
<path fill-rule="evenodd" clip-rule="evenodd" d="M5.83333 6.43997V9.0485C5.83348 9.34192 5.9673 9.62488 6.20893 9.84273C6.45057 10.0606 6.78288 10.1978 7.14167 10.228L12.1875 10.6531L13.0258 11.4489C13.1628 11.5789 13.3327 11.6832 13.5238 11.7546C13.715 11.8261 13.9229 11.8631 14.1333 11.8631H15.2083C15.5951 11.8631 15.966 11.7381 16.2395 11.5156C16.513 11.2932 16.6667 10.9914 16.6667 10.6768V9.15154H19.375C19.5408 9.15154 19.6997 9.09797 19.8169 9.00262C19.9342 8.90728 20 8.77796 20 8.64312C20 8.50828 19.9342 8.37896 19.8169 8.28361C19.6997 8.18826 19.5408 8.1347 19.375 8.1347H16.6667V3.7284H19.375C19.5408 3.7284 19.6997 3.67484 19.8169 3.57949C19.9342 3.48414 20 3.35483 20 3.21998C20 3.08514 19.9342 2.95583 19.8169 2.86048C19.6997 2.76513 19.5408 2.71157 19.375 2.71157H16.6667V1.18631C16.6667 0.871681 16.513 0.569939 16.2395 0.347462C15.966 0.124986 15.5951 0 15.2083 0H14.1333C13.7083 0 13.3033 0.15117 13.0258 0.414192L12.1875 1.21004L7.14167 1.6344C6.78288 1.66458 6.45057 1.80185 6.20893 2.0197C5.9673 2.23754 5.83348 2.52051 5.83333 2.81393V5.42313H2.4475C1.79831 5.42331 1.17578 5.63323 0.716806 6.00671C0.257834 6.3802 -3.76046e-08 6.88668 0 7.41478L0 13.0494C0 13.1843 0.065848 13.3136 0.183058 13.4089C0.300269 13.5043 0.45924 13.5578 0.625 13.5578C0.79076 13.5578 0.949731 13.5043 1.06694 13.4089C1.18415 13.3136 1.25 13.1843 1.25 13.0494V7.4141C1.25 6.87653 1.78667 6.43997 2.44833 6.43997H5.83333ZM13.975 1.07581C13.9946 1.05727 14.0189 1.0424 14.0462 1.03222C14.0736 1.02204 14.1033 1.01679 14.1333 1.01684H15.2083C15.2636 1.01684 15.3166 1.03469 15.3556 1.06647C15.3947 1.09826 15.4167 1.14136 15.4167 1.18631V10.6768C15.4167 10.7217 15.3947 10.7648 15.3556 10.7966C15.3166 10.8284 15.2636 10.8463 15.2083 10.8463H14.1333C14.1033 10.8463 14.0736 10.8411 14.0462 10.8309C14.0189 10.8207 13.9946 10.8058 13.975 10.7873L12.975 9.83756C12.8707 9.73857 12.7236 9.67595 12.5642 9.66267L7.27 9.21729C7.21873 9.21293 7.17126 9.19326 7.13678 9.16208C7.1023 9.1309 7.08326 9.09043 7.08333 9.0485V2.81461C7.08326 2.77267 7.1023 2.7322 7.13678 2.70102C7.17126 2.66984 7.21873 2.65017 7.27 2.64581L12.5642 2.20044C12.7233 2.18698 12.8701 2.12438 12.9742 2.02554L13.975 1.07649V1.07581Z" fill="black" fill-opacity="0.7"/>
</svg>
