<svg width="20" height="20" viewBox="0 0 20 20" fill="none" xmlns="http://www.w3.org/2000/svg">
<path d="M11.875 17.5H8.125C7.79358 17.4997 7.47583 17.3679 7.24148 17.1335C7.00713 16.8992 6.87533 16.5814 6.875 16.25V13.125H3.75C3.41858 13.1247 3.10083 12.9929 2.86648 12.7585C2.63213 12.5242 2.50033 12.2064 2.5 11.875V8.125C2.50033 7.79358 2.63213 7.47583 2.86648 7.24148C3.10083 7.00713 3.41858 6.87533 3.75 6.875H6.875V3.75C6.87533 3.41858 7.00713 3.10083 7.24148 2.86648C7.47583 2.63213 7.79358 2.50033 8.125 2.5H11.875C12.2064 2.50033 12.5242 2.63213 12.7585 2.86648C12.9929 3.10083 13.1247 3.41858 13.125 3.75V6.875H16.25C16.5814 6.87533 16.8992 7.00713 17.1335 7.24148C17.3679 7.47583 17.4997 7.79358 17.5 8.125V11.875C17.4995 12.2064 17.3676 12.524 17.1333 12.7583C16.899 12.9926 16.5814 13.1245 16.25 13.125H13.125V16.25C13.1245 16.5814 12.9926 16.899 12.7583 17.1333C12.524 17.3676 12.2064 17.4995 11.875 17.5ZM3.75 8.125V11.875H8.125V16.25H11.875V11.875H16.25V8.125H11.875V3.75H8.125V8.125H3.75Z" fill="black" fill-opacity="0.7"/>
</svg>
