<svg width="20" height="20" viewBox="0 0 20 20" fill="none" xmlns="http://www.w3.org/2000/svg">
<path d="M10 1.875C5.52 1.875 1.875 5.52 1.875 10C1.875 14.48 5.52 18.125 10 18.125C14.48 18.125 18.125 14.48 18.125 10C18.125 5.52 14.48 1.875 10 1.875ZM9.29688 3.16438C9.32375 3.16188 9.34812 3.16625 9.375 3.16438V9.375H7.46063C7.3349 7.67061 6.67187 6.05 5.56687 4.74625C6.59437 3.8775 7.87813 3.30812 9.29688 3.16375V3.16438ZM10.625 3.16438C12.0275 3.28506 13.3582 3.83749 14.4338 4.74563C13.3282 6.04938 12.6647 7.67024 12.5387 9.375H10.625V3.16438ZM4.6875 5.64375C5.56094 6.70486 6.09221 8.00581 6.21125 9.375H3.16312C3.28358 8.00623 3.81494 6.70583 4.6875 5.64438V5.64375ZM15.3125 5.64375C16.185 6.70545 16.7161 8.00608 16.8363 9.375H13.7894C13.9084 8.0061 14.4394 6.70539 15.3125 5.64438V5.64375ZM3.16375 10.625H6.21063C6.09165 11.9939 5.5606 13.2946 4.6875 14.3556C3.81516 13.2941 3.28402 11.9937 3.16375 10.625ZM7.46063 10.625H9.375V16.8363C7.97234 16.7152 6.64169 16.1623 5.56625 15.2537C6.67147 13.9501 7.33472 12.3295 7.46063 10.625ZM10.625 10.625H12.5394C12.6651 12.3294 13.3281 13.95 14.4331 15.2537C13.3579 16.1622 12.0274 16.7151 10.625 16.8363V10.625ZM13.7894 10.625H16.8363C16.716 11.9937 16.1848 13.2941 15.3125 14.3556C14.4392 13.2947 13.9079 11.994 13.7887 10.625H13.7894Z" fill="black" fill-opacity="0.7"/>
</svg>
