<svg width="20" height="20" viewBox="0 0 20 20" fill="none" xmlns="http://www.w3.org/2000/svg">
<g clip-path="url(#clip0)">
<path d="M19.4136 9.93683H18.9089L19.3765 8.31171C19.5798 7.60505 19.4474 6.85913 19.0134 6.26528C18.8892 6.09536 18.7451 5.94626 18.5861 5.81877L19.4988 4.94399C19.5019 4.94113 19.5048 4.93824 19.5077 4.93528C20.1636 4.27943 20.1642 3.21286 19.5091 2.55776C19.1928 2.24144 18.7712 2.06734 18.3216 2.06734C18.3211 2.06734 18.3206 2.06734 18.3201 2.06734C18.2161 2.06742 18.1136 2.07683 18.0134 2.09515L18.0138 1.68102C18.0142 1.23295 17.8392 0.811044 17.5212 0.492927C17.2034 0.175162 16.7821 0.000283202 16.3346 0.000283202C16.3341 0.000283202 16.3336 0.000283202 16.3331 0.000283202C15.4066 0.00114256 14.6523 0.755459 14.6515 1.68192L14.6511 2.08074C14.1605 2.0266 13.6503 2.18742 13.2754 2.56241C12.9587 2.87912 12.784 3.30121 12.7836 3.75093C12.7833 4.04764 12.8594 4.33205 13.0024 4.58298C12.9527 4.58036 12.9027 4.57888 12.8524 4.57888C12.5397 4.57888 12.2276 4.63208 11.9332 4.73383C11.8577 4.66192 11.7786 4.59396 11.6956 4.53071C11.7411 4.09268 11.8241 3.64949 11.8917 3.36477C12.002 2.89935 11.8954 2.41749 11.5992 2.04269C11.3036 1.66883 10.8606 1.45435 10.3838 1.45435C9.70858 1.45435 9.11567 1.88613 8.90864 2.52799L8.24467 4.57751C8.18307 4.62708 8.12378 4.6793 8.06663 4.7338C7.97542 4.70223 7.88261 4.67536 7.78855 4.65333C7.82472 4.49673 7.84359 4.3356 7.84359 4.17279C7.84359 3.15927 7.13455 2.30819 6.18637 2.08964C6.16066 0.933189 5.2119 0.000244141 4.04935 0.000244141C2.8868 0.000244141 1.93796 0.933267 1.91226 2.08976C0.964116 2.30831 0.255033 3.15938 0.255033 4.17291C0.255033 4.59392 0.380772 5.00144 0.606977 5.34608C0.22558 5.73912 0.000117185 6.27227 0.000117185 6.83644C0.000117185 7.55478 0.357452 8.20886 0.92943 8.60018C0.903063 8.73494 0.889587 8.87232 0.889587 9.0097C0.889587 9.327 0.971147 9.645 1.11513 9.93679H0.585923C0.262337 9.93679 0 10.1991 0 10.5227V19.4139C0 19.7374 0.262337 19.9998 0.585923 19.9998H19.4136C19.7372 19.9998 19.9995 19.7374 19.9995 19.4139V10.5227C19.9995 10.1992 19.7372 9.93683 19.4136 9.93683ZM15.6569 9.93683V7.38342C15.6569 7.07319 15.6055 6.77492 15.5121 6.49574C15.5336 6.49262 15.5543 6.49035 15.5737 6.48922C15.5974 6.48785 17.1671 6.48594 17.1791 6.48629C17.5324 6.49629 17.8561 6.66777 18.0674 6.95682C18.2861 7.25604 18.3527 7.63181 18.2504 7.98778L18.2394 8.02574L17.2389 8.02695C16.9154 8.02734 16.6534 8.28999 16.6537 8.61358C16.6541 8.93689 16.9164 9.1988 17.2396 9.1988H17.2404L17.9021 9.19798L17.6895 9.93687H15.6569V9.93683ZM14.1039 3.39106C14.3023 3.1927 14.6249 3.19165 14.8231 3.38871C14.9909 3.55547 15.2425 3.605 15.461 3.5143C15.6795 3.42352 15.8219 3.21028 15.8221 2.97368L15.8232 1.68297C15.8235 1.40158 16.0526 1.17244 16.334 1.17217H16.3345C16.4689 1.17217 16.5961 1.22521 16.6924 1.32162C16.7889 1.4181 16.842 1.5454 16.8419 1.68005L16.8407 3.09212C16.8405 3.32914 16.9831 3.54301 17.2021 3.63382C17.4209 3.72456 17.6732 3.67456 17.8408 3.50699L17.9602 3.3877C18.0558 3.29207 18.184 3.2393 18.3211 3.23919H18.3216C18.4581 3.23919 18.5855 3.29145 18.6805 3.38637C18.8775 3.5834 18.8781 3.90382 18.6827 4.10307L17.4035 5.32905C17.3403 5.32206 17.2766 5.31671 17.2123 5.31487C17.1892 5.31421 17.166 5.31394 17.1423 5.31394L15.6441 5.31523C15.5978 5.31527 15.551 5.31667 15.5045 5.31941C15.4505 5.32261 15.3964 5.32851 15.3423 5.33636L14.1027 4.11135C13.9044 3.91315 13.905 3.59004 14.1039 3.39106ZM14.485 7.38342V9.93683H12.8044V6.76261C12.8044 6.41223 12.7392 6.07693 12.6213 5.7674C12.6972 5.75674 12.7742 5.75072 12.8524 5.75072C13.7526 5.75076 14.485 6.48317 14.485 7.38342ZM7.14736 5.75076C7.22486 5.75076 7.302 5.75686 7.37833 5.76775C7.26052 6.07716 7.1954 6.41239 7.1954 6.76265V9.93687H5.5147V7.38342C5.5147 6.48317 6.24711 5.75076 7.14736 5.75076ZM8.36721 6.76265C8.36721 5.8624 9.09961 5.13 9.99986 5.13C10.9001 5.13 11.6325 5.8624 11.6325 6.76265V9.93687H8.36721V6.76265ZM10.0236 2.88853C10.0742 2.73166 10.2189 2.62627 10.3838 2.62627C10.5428 2.62627 10.6375 2.716 10.6798 2.76951C10.7225 2.82353 10.7886 2.93755 10.7514 3.09435C10.6932 3.33953 10.6289 3.66757 10.5785 4.01846C10.3917 3.97913 10.1982 3.95811 9.99986 3.95811C9.88842 3.95811 9.7787 3.96538 9.67061 3.97807L10.0236 2.88853ZM2.06143 9.00974C2.06143 8.85623 2.09659 8.70932 2.16596 8.57303C2.24322 8.4212 2.25057 8.24328 2.18612 8.08555C2.12163 7.92785 1.99171 7.80606 1.83023 7.7518C1.43653 7.61966 1.172 7.25178 1.172 6.8364C1.172 6.46262 1.39129 6.11888 1.73066 5.96068C1.91886 5.87295 2.04659 5.69217 2.06639 5.4855C2.0862 5.27882 1.99514 5.07707 1.82702 4.95524C1.57277 4.7709 1.42696 4.48575 1.42696 4.17287C1.42696 3.64039 1.86019 3.20715 2.39267 3.20715C2.42974 3.20715 2.46783 3.20954 2.50904 3.2145C2.70853 3.23829 2.90653 3.15837 3.03336 3.00243C3.16019 2.8465 3.19824 2.63643 3.13418 2.44592C3.10066 2.34624 3.08363 2.24261 3.08363 2.13781C3.08363 1.60532 3.51686 1.17209 4.04935 1.17209C4.58184 1.17209 5.01507 1.60532 5.01507 2.13781C5.01507 2.24261 4.99804 2.34624 4.96452 2.44592C4.90046 2.63643 4.93851 2.8465 5.06534 3.00243C5.19217 3.15837 5.3901 3.23825 5.58966 3.2145C5.63091 3.20954 5.66896 3.20715 5.70607 3.20715C6.23855 3.20715 6.67178 3.64039 6.67178 4.17287C6.67178 4.33896 6.62827 4.50095 6.54815 4.64403C5.28885 4.91934 4.34298 6.04267 4.34298 7.38338V9.93683H2.65677C2.32139 9.75625 2.06143 9.36075 2.06143 9.00974ZM18.8276 18.828H1.17185V11.1087H18.8276V18.828Z" fill="black" fill-opacity="0.7"/>
<path d="M11.8456 12.2849H8.15397C7.18473 12.2849 6.39619 13.0735 6.39619 14.0427C6.39619 15.0119 7.18473 15.8004 8.15397 15.8004H11.8456C12.8149 15.8004 13.6034 15.0119 13.6034 14.0427C13.6034 13.0734 12.8148 12.2849 11.8456 12.2849ZM11.8456 14.6286H8.15397C7.83089 14.6286 7.56804 14.3658 7.56804 14.0427C7.56804 13.7196 7.83089 13.4568 8.15397 13.4568H11.8456C12.1687 13.4568 12.4315 13.7196 12.4315 14.0427C12.4315 14.3658 12.1687 14.6286 11.8456 14.6286Z" fill="black" fill-opacity="0.7"/>
</g>
<defs>
<clipPath id="clip0">
<rect width="20" height="20" fill="white"/>
</clipPath>
</defs>
</svg>
