<svg width="84" height="18" viewBox="0 0 84 18" fill="none" xmlns="http://www.w3.org/2000/svg">
<path d="M27.1479 3.976H30.3539C31.3899 3.976 32.2952 4.186 33.0699 4.606C33.8446 5.026 34.4372 5.61867 34.8479 6.384C35.2679 7.14 35.4779 8.008 35.4779 8.988C35.4779 9.968 35.2679 10.8407 34.8479 11.606C34.4372 12.362 33.8446 12.95 33.0699 13.37C32.2952 13.79 31.3899 14 30.3539 14H27.1479V3.976ZM30.3259 12.502C31.4459 12.502 32.3186 12.194 32.9439 11.578C33.5786 10.9527 33.8959 10.0893 33.8959 8.988C33.8959 7.896 33.5786 7.03733 32.9439 6.412C32.3186 5.78667 31.4459 5.474 30.3259 5.474H28.7159V12.502H30.3259ZM37.8951 5.824C37.6058 5.824 37.3584 5.726 37.1531 5.53C36.9571 5.32467 36.8591 5.07733 36.8591 4.788C36.8591 4.49867 36.9571 4.256 37.1531 4.06C37.3584 3.85467 37.6058 3.752 37.8951 3.752C38.1844 3.752 38.4271 3.85467 38.6231 4.06C38.8284 4.256 38.9311 4.49867 38.9311 4.788C38.9311 5.07733 38.8284 5.32467 38.6231 5.53C38.4271 5.726 38.1844 5.824 37.8951 5.824ZM37.1251 6.86H38.6651V14H37.1251V6.86ZM43.1855 14.224C42.3641 14.224 41.6921 14.0467 41.1695 13.692C40.6468 13.328 40.2781 12.866 40.0635 12.306L41.4355 11.704C41.6035 12.0773 41.8368 12.362 42.1355 12.558C42.4435 12.754 42.7935 12.852 43.1855 12.852C43.5681 12.852 43.8901 12.7867 44.1515 12.656C44.4128 12.516 44.5435 12.3107 44.5435 12.04C44.5435 11.7787 44.4315 11.5733 44.2075 11.424C43.9835 11.2747 43.6381 11.144 43.1715 11.032L42.3175 10.822C41.7481 10.682 41.2768 10.4347 40.9035 10.08C40.5301 9.72533 40.3435 9.27733 40.3435 8.736C40.3435 8.316 40.4648 7.94733 40.7075 7.63C40.9595 7.31267 41.2955 7.07 41.7155 6.902C42.1355 6.72467 42.5928 6.636 43.0875 6.636C43.7501 6.636 44.3335 6.77133 44.8375 7.042C45.3415 7.30333 45.7055 7.686 45.9295 8.19L44.5855 8.778C44.3148 8.22733 43.8201 7.952 43.1015 7.952C42.7561 7.952 42.4668 8.022 42.2335 8.162C42.0001 8.302 41.8835 8.484 41.8835 8.708C41.8835 8.92267 41.9721 9.1 42.1495 9.24C42.3268 9.37067 42.5881 9.48267 42.9335 9.576L43.9835 9.842C44.6835 10.0193 45.2108 10.29 45.5655 10.654C45.9295 11.0087 46.1115 11.4473 46.1115 11.97C46.1115 12.418 45.9808 12.8147 45.7195 13.16C45.4675 13.496 45.1175 13.7573 44.6695 13.944C44.2215 14.1307 43.7268 14.224 43.1855 14.224ZM47.3204 6.86H48.7904V7.798H48.8604C49.0657 7.47133 49.369 7.196 49.7704 6.972C50.1717 6.748 50.6244 6.636 51.1284 6.636C51.7724 6.636 52.3557 6.79933 52.8784 7.126C53.401 7.45267 53.8117 7.90533 54.1104 8.484C54.4184 9.05333 54.5724 9.702 54.5724 10.43C54.5724 11.158 54.4184 11.8113 54.1104 12.39C53.8117 12.9593 53.401 13.4073 52.8784 13.734C52.3557 14.0607 51.7724 14.224 51.1284 14.224C50.6244 14.224 50.1717 14.112 49.7704 13.888C49.369 13.664 49.0657 13.3933 48.8604 13.076H48.7904L48.8604 14.07V17.024H47.3204V6.86ZM50.9044 12.81C51.2777 12.81 51.6277 12.712 51.9544 12.516C52.281 12.32 52.5424 12.04 52.7384 11.676C52.9344 11.312 53.0324 10.8967 53.0324 10.43C53.0324 9.96333 52.9344 9.55267 52.7384 9.198C52.5424 8.834 52.281 8.554 51.9544 8.358C51.6277 8.162 51.2777 8.064 50.9044 8.064C50.531 8.064 50.181 8.162 49.8544 8.358C49.537 8.554 49.2804 8.834 49.0844 9.198C48.8884 9.55267 48.7904 9.96333 48.7904 10.43C48.7904 10.8967 48.8884 11.312 49.0844 11.676C49.2804 12.04 49.537 12.32 49.8544 12.516C50.181 12.712 50.531 12.81 50.9044 12.81ZM58.216 14.224C57.7027 14.224 57.2453 14.126 56.844 13.93C56.4427 13.7247 56.13 13.44 55.906 13.076C55.682 12.7027 55.57 12.2827 55.57 11.816C55.57 11.0787 55.8453 10.4953 56.396 10.066C56.956 9.63667 57.6607 9.422 58.51 9.422C58.93 9.422 59.308 9.464 59.644 9.548C59.98 9.62267 60.246 9.70667 60.442 9.8V9.436C60.442 8.99733 60.2787 8.64267 59.952 8.372C59.6253 8.092 59.2053 7.952 58.692 7.952C58.328 7.952 57.9827 8.03133 57.656 8.19C57.3387 8.34867 57.082 8.568 56.886 8.848L55.808 8.022C56.1253 7.58333 56.536 7.24267 57.04 7C57.544 6.75733 58.104 6.636 58.72 6.636C59.756 6.636 60.554 6.89267 61.114 7.406C61.674 7.91 61.954 8.624 61.954 9.548V14H60.442V13.146H60.372C60.1667 13.454 59.8773 13.7107 59.504 13.916C59.1307 14.1213 58.7013 14.224 58.216 14.224ZM58.482 12.95C58.8553 12.95 59.1913 12.8613 59.49 12.684C59.7887 12.5067 60.022 12.2687 60.19 11.97C60.358 11.6713 60.442 11.3493 60.442 11.004C60.2273 10.8827 59.9753 10.7847 59.686 10.71C59.406 10.6353 59.112 10.598 58.804 10.598C58.2253 10.598 57.8007 10.7147 57.53 10.948C57.2593 11.172 57.124 11.466 57.124 11.83C57.124 12.1567 57.25 12.4273 57.502 12.642C57.754 12.8473 58.0807 12.95 58.482 12.95ZM66.4215 14.112C66.1042 14.112 65.8055 14.0607 65.5255 13.958C65.2455 13.8553 65.0169 13.72 64.8395 13.552C64.4382 13.1507 64.2375 12.6047 64.2375 11.914V8.218H62.9915V6.86H64.2375V4.844H65.7775V6.86H67.5135V8.218H65.7775V11.578C65.7775 11.9607 65.8522 12.2313 66.0015 12.39C66.1415 12.5767 66.3842 12.67 66.7295 12.67C66.8882 12.67 67.0282 12.6513 67.1495 12.614C67.2709 12.5673 67.4015 12.4973 67.5415 12.404V13.902C67.2335 14.042 66.8602 14.112 66.4215 14.112ZM72.0085 14.224C71.2992 14.224 70.6598 14.0607 70.0905 13.734C69.5305 13.4073 69.0918 12.9593 68.7745 12.39C68.4665 11.8113 68.3125 11.158 68.3125 10.43C68.3125 9.702 68.4665 9.05333 68.7745 8.484C69.0918 7.90533 69.5305 7.45267 70.0905 7.126C70.6598 6.79933 71.2992 6.636 72.0085 6.636C72.7925 6.636 73.4598 6.81333 74.0105 7.168C74.5612 7.52267 74.9532 8.00333 75.1865 8.61L73.7725 9.198C73.4552 8.442 72.8532 8.064 71.9665 8.064C71.5838 8.064 71.2292 8.162 70.9025 8.358C70.5852 8.554 70.3285 8.834 70.1325 9.198C69.9458 9.55267 69.8525 9.96333 69.8525 10.43C69.8525 10.8967 69.9458 11.312 70.1325 11.676C70.3285 12.04 70.5852 12.32 70.9025 12.516C71.2292 12.712 71.5838 12.81 71.9665 12.81C72.4145 12.81 72.7972 12.712 73.1145 12.516C73.4412 12.3107 73.6885 12.0213 73.8565 11.648L75.2425 12.25C74.9718 12.8567 74.5612 13.3373 74.0105 13.692C73.4598 14.0467 72.7925 14.224 72.0085 14.224ZM76.5522 3.976H78.0922V6.706L78.0222 7.798H78.0922C78.2975 7.462 78.6008 7.18667 79.0022 6.972C79.4128 6.748 79.8515 6.636 80.3182 6.636C81.1862 6.636 81.8488 6.89267 82.3062 7.406C82.7635 7.91 82.9922 8.60067 82.9922 9.478V14H81.4522V9.688C81.4522 9.14667 81.3075 8.74067 81.0182 8.47C80.7382 8.19933 80.3695 8.064 79.9122 8.064C79.5668 8.064 79.2542 8.162 78.9742 8.358C78.7035 8.554 78.4888 8.81533 78.3302 9.142C78.1715 9.45933 78.0922 9.8 78.0922 10.164V14H76.5522V3.976Z" fill="#C4C4C4"/>
<g clip-path="url(#clip0)">
<path d="M7.92927 11.425C6.94147 11.425 6.14319 12.2261 6.14319 13.2139C6.14319 14.1988 6.94147 15 7.92927 15C8.91707 15 9.71535 14.1988 9.71535 13.2139C9.71531 12.2261 8.91707 11.425 7.92927 11.425ZM7.92927 14.107C7.43535 14.107 7.03619 13.7049 7.03619 13.2139C7.03619 12.72 7.43535 12.3208 7.92927 12.3208C8.42315 12.3208 8.82231 12.72 8.82231 13.2139C8.82227 13.7049 8.42315 14.107 7.92927 14.107ZM21.4 10.1036V12.0108C21.4 12.4865 21.0143 12.8722 20.5385 12.8722H19.6168C19.4503 11.7293 18.4653 10.8506 17.2765 10.8506C16.0906 10.8506 15.1057 11.7294 14.9391 12.8722H10.2672C10.1007 11.7293 9.11575 10.8506 7.92983 10.8506C6.74391 10.8506 5.75899 11.7294 5.59247 12.8722H4.43811C3.96235 12.8722 3.5767 12.4865 3.5767 12.0108V10.1036H21.4ZM17.2788 11.425C16.291 11.425 15.4899 12.2261 15.4899 13.2139C15.4899 14.1988 16.2911 15 17.2788 15C18.2637 15 19.0649 14.1988 19.0649 13.2139C19.0649 12.2261 18.2637 11.425 17.2788 11.425ZM17.2788 14.107C16.7849 14.107 16.3858 13.7049 16.3858 13.2139C16.3858 12.72 16.7849 12.3208 17.2788 12.3208C17.7699 12.3208 18.1719 12.72 18.1719 13.2139C18.1719 13.7049 17.7699 14.107 17.2788 14.107ZM21.0606 8.18304L17.6751 4.83488C17.4597 4.62239 17.1697 4.50178 16.8682 4.50178H15.1597V3.86142C15.1597 3.38478 14.7749 3 14.2983 3H4.43751C3.96372 3 3.5761 3.38482 3.5761 3.86142V3.9964L0.0803336 4.39929L6.27467 5.20592L-9.15527e-05 5.82925L6.25259 6.71823L-9.15527e-05 7.26036L3.57631 7.93488L3.57607 9.62744H21.3994V8.99852C21.3994 8.69128 21.2759 8.3984 21.0606 8.18304ZM19.5846 8.295H16.3083C16.2336 8.295 16.1733 8.23472 16.1733 8.16008V5.63029C16.1733 5.55563 16.2336 5.49532 16.3083 5.49532H16.9314C16.9659 5.49532 17.0003 5.50968 17.0262 5.53266L19.6765 8.06244C19.7655 8.14572 19.7052 8.295 19.5846 8.295Z" fill="#C4C4C4"/>
</g>
<defs>
<clipPath id="clip0">
<rect width="21.6" height="12" fill="white" transform="translate(-9.15527e-05 3)"/>
</clipPath>
</defs>
</svg>
