<svg width="78" height="13" viewBox="0 0 78 13" fill="none" xmlns="http://www.w3.org/2000/svg">
<path d="M15.984 2.408H17.604V5.84H21.216V2.408H22.836V11H21.216V7.376H17.604V11H15.984V2.408ZM27.2202 2.408H29.0802L32.3082 11H30.5202L29.8002 8.948H26.5122L25.7922 11H24.0042L27.2202 2.408ZM29.2722 7.46L28.5162 5.3L28.2042 4.268H28.1082L27.7962 5.3L27.0282 7.46H29.2722ZM33.4684 2.408H35.3524L38.8084 8.168H38.9044L38.8084 6.512V2.408H40.4164V11H38.7124L35.0644 4.916H34.9684L35.0644 6.572V11H33.4684V2.408ZM46.3614 11.192C45.5374 11.192 44.7774 11 44.0814 10.616C43.3934 10.224 42.8454 9.688 42.4374 9.008C42.0294 8.32 41.8254 7.552 41.8254 6.704C41.8254 5.856 42.0294 5.092 42.4374 4.412C42.8454 3.724 43.3934 3.188 44.0814 2.804C44.7774 2.412 45.5374 2.216 46.3614 2.216C47.0334 2.216 47.6454 2.336 48.1974 2.576C48.7574 2.808 49.2374 3.14 49.6374 3.572L48.5214 4.664C48.2334 4.36 47.9134 4.132 47.5614 3.98C47.2174 3.828 46.8134 3.752 46.3494 3.752C45.8214 3.752 45.3374 3.876 44.8974 4.124C44.4574 4.364 44.1054 4.712 43.8414 5.168C43.5854 5.616 43.4574 6.128 43.4574 6.704C43.4574 7.28 43.5894 7.796 43.8534 8.252C44.1174 8.7 44.4694 9.048 44.9094 9.296C45.3574 9.536 45.8454 9.656 46.3734 9.656C47.1734 9.656 47.8294 9.42 48.3414 8.948C48.5014 8.804 48.6414 8.62 48.7614 8.396C48.8814 8.172 48.9694 7.928 49.0254 7.664H46.3254V6.284H50.5374C50.5934 6.508 50.6214 6.76 50.6214 7.04C50.6214 7.608 50.5334 8.136 50.3574 8.624C50.1894 9.112 49.9294 9.54 49.5774 9.908C49.1934 10.324 48.7294 10.644 48.1854 10.868C47.6414 11.084 47.0334 11.192 46.3614 11.192ZM56.2275 11.192C55.3875 11.192 54.6235 10.996 53.9355 10.604C53.2555 10.204 52.7195 9.66 52.3275 8.972C51.9355 8.284 51.7395 7.528 51.7395 6.704C51.7395 5.88 51.9355 5.124 52.3275 4.436C52.7195 3.748 53.2555 3.208 53.9355 2.816C54.6235 2.416 55.3875 2.216 56.2275 2.216C57.0675 2.216 57.8275 2.416 58.5075 2.816C59.1955 3.208 59.7355 3.748 60.1275 4.436C60.5195 5.124 60.7155 5.88 60.7155 6.704C60.7155 7.528 60.5195 8.284 60.1275 8.972C59.7355 9.66 59.1955 10.204 58.5075 10.604C57.8275 10.996 57.0675 11.192 56.2275 11.192ZM56.2275 9.656C56.7555 9.656 57.2395 9.532 57.6795 9.284C58.1195 9.036 58.4635 8.688 58.7115 8.24C58.9675 7.792 59.0955 7.28 59.0955 6.704C59.0955 6.128 58.9675 5.616 58.7115 5.168C58.4635 4.72 58.1195 4.372 57.6795 4.124C57.2395 3.876 56.7555 3.752 56.2275 3.752C55.6995 3.752 55.2155 3.876 54.7755 4.124C54.3435 4.372 53.9995 4.72 53.7435 5.168C53.4955 5.616 53.3715 6.128 53.3715 6.704C53.3715 7.28 53.4955 7.792 53.7435 8.24C53.9995 8.688 54.3435 9.036 54.7755 9.284C55.2155 9.532 55.6995 9.656 56.2275 9.656ZM65.4296 11.192C64.7576 11.192 64.1696 11.048 63.6656 10.76C63.1696 10.472 62.7816 10.056 62.5016 9.512C62.2296 8.968 62.0936 8.324 62.0936 7.58V2.408H63.7016V7.676C63.7016 8.268 63.8496 8.748 64.1456 9.116C64.4496 9.476 64.8776 9.656 65.4296 9.656C65.9816 9.656 66.4056 9.476 66.7016 9.116C67.0056 8.748 67.1576 8.268 67.1576 7.676V2.408H68.7656V7.58C68.7656 8.292 68.6296 8.92 68.3576 9.464C68.0856 10.008 67.6976 10.432 67.1936 10.736C66.6896 11.04 66.1016 11.192 65.4296 11.192ZM72.3217 3.944H69.9217V2.408H76.3417V3.944H73.9417V11H72.3217V3.944Z" fill="#BBBBBB"/>
<path d="M6.92928 3.7404C7.72601 3.7404 8.37419 3.09218 8.37419 2.29549C8.37419 1.4988 7.72601 0.850586 6.92928 0.850586C6.13255 0.850586 5.48438 1.4988 5.48438 2.29549C5.48438 3.09218 6.13255 3.7404 6.92928 3.7404Z" fill="#BBBBBB"/>
<path d="M7.23329 4.20788C7.20116 4.17289 7.15419 4.15527 7.10669 4.15527H6.75227C6.70477 4.15527 6.6578 4.17289 6.62567 4.20788C6.57592 4.26209 6.56872 4.34037 6.604 4.40157L6.79343 4.68719L6.70473 5.43536L6.87936 5.89994C6.89641 5.94667 6.96247 5.94667 6.97952 5.89994L7.15415 5.43536L7.06544 4.68719L7.25488 4.40157C7.29028 4.34037 7.28304 4.26205 7.23329 4.20788Z" fill="#BBBBBB"/>
<path d="M4.70432 7.54574H9.15439C9.26787 7.54574 9.36022 7.4534 9.36022 7.33992V5.48594C9.36022 4.94576 9.01005 4.46609 8.48885 4.2924L8.08251 4.16767C8.00815 4.1447 7.92893 4.18419 7.90223 4.25736L6.9294 6.92659L5.95656 4.25732C5.93498 4.19821 5.87918 4.16113 5.81937 4.16113C5.80515 4.16113 5.79068 4.16322 5.77645 4.16763L5.37322 4.29133C4.8487 4.46613 4.49854 4.94576 4.49854 5.48594V7.33992C4.49854 7.4534 4.59088 7.54574 4.70432 7.54574Z" fill="#BBBBBB"/>
<path d="M2.30375 4.47864C3.10048 4.47864 3.74866 3.83046 3.74866 3.03377C3.74866 2.23704 3.10044 1.58887 2.30375 1.58887C1.50706 1.58887 0.858887 2.23708 0.858887 3.03377C0.858887 3.8305 1.50706 4.47864 2.30375 4.47864Z" fill="#BBBBBB"/>
<path d="M4.76325 8.45091H3.61243V6.17784C3.61243 5.45506 3.02651 4.86914 2.30377 4.86914C1.58103 4.86914 0.995117 5.45506 0.995117 6.1778V9.26558C0.995117 9.9595 1.55765 10.522 2.25157 10.522H3.74475V12.5796C3.74475 12.7757 3.90373 12.9347 4.09987 12.9347H5.47851C5.67465 12.9347 5.83362 12.7757 5.83362 12.5796V9.52128C5.83362 8.93013 5.3544 8.45091 4.76325 8.45091Z" fill="#BBBBBB"/>
<path d="M11.5553 4.47864C12.352 4.47864 13.0001 3.83046 13.0001 3.03377C13.0001 2.23704 12.3519 1.58887 11.5553 1.58887C10.7586 1.58887 10.1104 2.23708 10.1104 3.03377C10.1103 3.8305 10.7585 4.47864 11.5553 4.47864Z" fill="#BBBBBB"/>
<path d="M11.5552 4.86914C10.8324 4.86914 10.2465 5.45506 10.2465 6.1778V8.45087H9.09576C8.50461 8.45087 8.02539 8.93009 8.02539 9.52124V12.5796C8.02539 12.7757 8.18437 12.9347 8.38051 12.9347H9.75915C9.95528 12.9347 10.1143 12.7757 10.1143 12.5796V10.522H11.6074C12.3014 10.522 12.8639 9.95946 12.8639 9.26554V6.17776C12.8639 5.45506 12.278 4.86914 11.5552 4.86914Z" fill="#BBBBBB"/>
</svg>
