<svg width="82" height="18" viewBox="0 0 82 18" fill="none" xmlns="http://www.w3.org/2000/svg">
<path d="M19.1479 3.976H20.7159V8.134H25.3639V3.976H26.9179V14H25.3639V9.618H20.7159V14H19.1479V3.976ZM30.9933 14.224C30.48 14.224 30.0227 14.126 29.6213 13.93C29.22 13.7247 28.9073 13.44 28.6833 13.076C28.4593 12.7027 28.3473 12.2827 28.3473 11.816C28.3473 11.0787 28.6227 10.4953 29.1733 10.066C29.7333 9.63667 30.438 9.422 31.2873 9.422C31.7073 9.422 32.0853 9.464 32.4213 9.548C32.7573 9.62267 33.0233 9.70667 33.2193 9.8V9.436C33.2193 8.99733 33.056 8.64267 32.7293 8.372C32.4027 8.092 31.9827 7.952 31.4693 7.952C31.1053 7.952 30.76 8.03133 30.4333 8.19C30.116 8.34867 29.8593 8.568 29.6633 8.848L28.5853 8.022C28.9027 7.58333 29.3133 7.24267 29.8173 7C30.3213 6.75733 30.8813 6.636 31.4973 6.636C32.5333 6.636 33.3313 6.89267 33.8913 7.406C34.4513 7.91 34.7313 8.624 34.7313 9.548V14H33.2193V13.146H33.1493C32.944 13.454 32.6547 13.7107 32.2813 13.916C31.908 14.1213 31.4787 14.224 30.9933 14.224ZM31.2593 12.95C31.6327 12.95 31.9687 12.8613 32.2673 12.684C32.566 12.5067 32.7993 12.2687 32.9673 11.97C33.1353 11.6713 33.2193 11.3493 33.2193 11.004C33.0047 10.8827 32.7527 10.7847 32.4633 10.71C32.1833 10.6353 31.8893 10.598 31.5813 10.598C31.0027 10.598 30.578 10.7147 30.3073 10.948C30.0367 11.172 29.9013 11.466 29.9013 11.83C29.9013 12.1567 30.0273 12.4273 30.2793 12.642C30.5313 12.8473 30.858 12.95 31.2593 12.95ZM36.4096 6.86H37.8796V7.798H37.9496C38.1549 7.462 38.4583 7.18667 38.8596 6.972C39.2703 6.748 39.7043 6.636 40.1616 6.636C41.0296 6.636 41.6876 6.89267 42.1356 7.406C42.5929 7.91 42.8216 8.60067 42.8216 9.478V14H41.2816V9.688C41.2816 9.128 41.1416 8.71733 40.8616 8.456C40.5909 8.19467 40.2129 8.064 39.7276 8.064C39.3823 8.064 39.0743 8.162 38.8036 8.358C38.5329 8.54467 38.3229 8.79667 38.1736 9.114C38.0243 9.43133 37.9496 9.772 37.9496 10.136V14H36.4096V6.86ZM47.7097 17.248C46.8323 17.248 46.1043 17.0473 45.5257 16.646C44.9563 16.2447 44.5737 15.7687 44.3777 15.218L45.8197 14.616C45.969 14.9893 46.207 15.288 46.5337 15.512C46.8697 15.7453 47.2617 15.862 47.7097 15.862C48.363 15.862 48.8717 15.666 49.2357 15.274C49.609 14.8913 49.7957 14.35 49.7957 13.65V12.992H49.7117C49.4783 13.328 49.1657 13.594 48.7737 13.79C48.391 13.9767 47.9477 14.07 47.4437 14.07C46.8463 14.07 46.291 13.916 45.7777 13.608C45.2643 13.3 44.8537 12.866 44.5457 12.306C44.247 11.7367 44.0977 11.088 44.0977 10.36C44.0977 9.632 44.247 8.988 44.5457 8.428C44.8537 7.85867 45.2643 7.42 45.7777 7.112C46.291 6.79467 46.8463 6.636 47.4437 6.636C47.9383 6.636 48.3817 6.734 48.7737 6.93C49.1657 7.126 49.4783 7.392 49.7117 7.728H49.7957V6.86H51.2657V13.608C51.2657 14.3827 51.1163 15.0407 50.8177 15.582C50.519 16.1327 50.099 16.548 49.5577 16.828C49.0257 17.108 48.4097 17.248 47.7097 17.248ZM47.7237 12.67C48.097 12.67 48.4423 12.5813 48.7597 12.404C49.077 12.2173 49.329 11.9513 49.5157 11.606C49.7023 11.2513 49.7957 10.836 49.7957 10.36C49.7957 9.632 49.595 9.06733 49.1937 8.666C48.8017 8.25533 48.3117 8.05 47.7237 8.05C47.341 8.05 46.991 8.14333 46.6737 8.33C46.3563 8.50733 46.1043 8.76867 45.9177 9.114C45.731 9.45933 45.6377 9.87467 45.6377 10.36C45.6377 10.8453 45.731 11.2607 45.9177 11.606C46.1043 11.9513 46.3563 12.2173 46.6737 12.404C46.991 12.5813 47.341 12.67 47.7237 12.67ZM56.3532 14.224C55.6346 14.224 54.9906 14.0607 54.4212 13.734C53.8519 13.398 53.4086 12.9407 53.0912 12.362C52.7739 11.7833 52.6152 11.1393 52.6152 10.43C52.6152 9.72067 52.7739 9.07667 53.0912 8.498C53.4086 7.91933 53.8519 7.46667 54.4212 7.14C54.9906 6.804 55.6346 6.636 56.3532 6.636C57.0719 6.636 57.7159 6.804 58.2852 7.14C58.8546 7.476 59.2979 7.93333 59.6152 8.512C59.9326 9.09067 60.0912 9.73 60.0912 10.43C60.0912 11.1393 59.9326 11.7833 59.6152 12.362C59.2979 12.9407 58.8546 13.398 58.2852 13.734C57.7159 14.0607 57.0719 14.224 56.3532 14.224ZM56.3532 12.81C56.7452 12.81 57.1092 12.7167 57.4452 12.53C57.7812 12.334 58.0472 12.0587 58.2432 11.704C58.4486 11.34 58.5512 10.9153 58.5512 10.43C58.5512 9.94467 58.4486 9.52467 58.2432 9.17C58.0472 8.81533 57.7812 8.54467 57.4452 8.358C57.1092 8.162 56.7452 8.064 56.3532 8.064C55.9612 8.064 55.5972 8.162 55.2612 8.358C54.9252 8.54467 54.6546 8.81533 54.4492 9.17C54.2532 9.52467 54.1552 9.94467 54.1552 10.43C54.1552 10.9153 54.2532 11.34 54.4492 11.704C54.6546 12.0587 54.9252 12.334 55.2612 12.53C55.5972 12.7167 55.9612 12.81 56.3532 12.81ZM64.0468 14.224C63.1788 14.224 62.5161 13.9673 62.0588 13.454C61.6108 12.9313 61.3868 12.208 61.3868 11.284V6.86H62.9268V11.074C62.9268 11.6527 63.0621 12.0867 63.3328 12.376C63.6128 12.6653 63.9768 12.81 64.4248 12.81C64.7888 12.81 65.1108 12.7167 65.3908 12.53C65.6708 12.334 65.8855 12.0773 66.0348 11.76C66.1841 11.4427 66.2588 11.102 66.2588 10.738V6.86H67.7988V14H66.3428V13.076H66.2588C66.0628 13.412 65.7595 13.6873 65.3488 13.902C64.9381 14.1167 64.5041 14.224 64.0468 14.224ZM72.5856 14.112C72.2683 14.112 71.9696 14.0607 71.6896 13.958C71.4096 13.8553 71.1809 13.72 71.0036 13.552C70.6023 13.1507 70.4016 12.6047 70.4016 11.914V8.218H69.1556V6.86H70.4016V4.844H71.9416V6.86H73.6776V8.218H71.9416V11.578C71.9416 11.9607 72.0163 12.2313 72.1656 12.39C72.3056 12.5767 72.5483 12.67 72.8936 12.67C73.0523 12.67 73.1923 12.6513 73.3136 12.614C73.4349 12.5673 73.5656 12.4973 73.7056 12.404V13.902C73.3976 14.042 73.0243 14.112 72.5856 14.112ZM77.8827 14.224C77.0614 14.224 76.3894 14.0467 75.8667 13.692C75.3441 13.328 74.9754 12.866 74.7607 12.306L76.1327 11.704C76.3007 12.0773 76.5341 12.362 76.8327 12.558C77.1407 12.754 77.4907 12.852 77.8827 12.852C78.2654 12.852 78.5874 12.7867 78.8487 12.656C79.1101 12.516 79.2407 12.3107 79.2407 12.04C79.2407 11.7787 79.1287 11.5733 78.9047 11.424C78.6807 11.2747 78.3354 11.144 77.8687 11.032L77.0147 10.822C76.4454 10.682 75.9741 10.4347 75.6007 10.08C75.2274 9.72533 75.0407 9.27733 75.0407 8.736C75.0407 8.316 75.1621 7.94733 75.4047 7.63C75.6567 7.31267 75.9927 7.07 76.4127 6.902C76.8327 6.72467 77.2901 6.636 77.7847 6.636C78.4474 6.636 79.0307 6.77133 79.5347 7.042C80.0387 7.30333 80.4027 7.686 80.6267 8.19L79.2827 8.778C79.0121 8.22733 78.5174 7.952 77.7987 7.952C77.4534 7.952 77.1641 8.022 76.9307 8.162C76.6974 8.302 76.5807 8.484 76.5807 8.708C76.5807 8.92267 76.6694 9.1 76.8467 9.24C77.0241 9.37067 77.2854 9.48267 77.6307 9.576L78.6807 9.842C79.3807 10.0193 79.9081 10.29 80.2627 10.654C80.6267 11.0087 80.8087 11.4473 80.8087 11.97C80.8087 12.418 80.6781 12.8147 80.4167 13.16C80.1647 13.496 79.8147 13.7573 79.3667 13.944C78.9187 14.1307 78.4241 14.224 77.8827 14.224Z" fill="#C4C4C4"/>
<path d="M6.46929 5.86969C7.31838 5.86969 8.00915 5.22599 8.00915 4.43485C8.00915 3.6437 7.31838 3 6.46929 3C5.62024 3 4.92947 3.6437 4.92947 4.43485C4.92947 5.22599 5.62024 5.86969 6.46929 5.86969Z" fill="#C4C4C4"/>
<path d="M6.79312 6.33372C6.75887 6.29898 6.70883 6.28149 6.65819 6.28149H6.28048C6.22987 6.28149 6.1798 6.29898 6.14558 6.33372C6.09256 6.38757 6.08489 6.4653 6.1225 6.52608L6.32436 6.8097L6.22984 7.55265L6.41592 8.01402C6.43411 8.0604 6.50449 8.0604 6.52268 8.01402L6.70877 7.55265L6.61425 6.8097L6.81611 6.52608C6.85384 6.4653 6.84615 6.38751 6.79312 6.33372Z" fill="#C4C4C4"/>
<path d="M4.09787 9.64816H8.84034C8.96126 9.64816 9.05968 9.55645 9.05968 9.44377V7.60267C9.05968 7.06627 8.68651 6.58993 8.13105 6.41746L7.69802 6.29359C7.61876 6.27079 7.53434 6.31 7.50588 6.38266L6.46913 9.03331L5.43239 6.38263C5.4094 6.32392 5.34994 6.28711 5.28619 6.28711C5.27103 6.28711 5.2556 6.28918 5.24044 6.29356L4.81073 6.41641C4.25176 6.58999 3.87859 7.06627 3.87859 7.60267V9.44377C3.87859 9.55645 3.97697 9.64816 4.09787 9.64816Z" fill="#C4C4C4"/>
<path d="M1.5397 6.60306C2.38877 6.60306 3.07954 5.95939 3.07954 5.16824C3.07954 4.37706 2.38873 3.7334 1.5397 3.7334C0.690668 3.7334 -9.15527e-05 4.3771 -9.15527e-05 5.16824C-9.15527e-05 5.95943 0.690668 6.60306 1.5397 6.60306Z" fill="#C4C4C4"/>
<path d="M4.16087 10.5473H2.93443V8.29005C2.93443 7.5723 2.31002 6.99048 1.5398 6.99048C0.769576 6.99048 0.145164 7.5723 0.145164 8.29002V11.3563C0.145164 12.0454 0.744656 12.604 1.48417 12.604H3.07545V14.6473C3.07545 14.842 3.24489 14.9999 3.4539 14.9999H4.92312C5.13213 14.9999 5.30155 14.842 5.30155 14.6473V11.6102C5.30155 11.0232 4.79087 10.5473 4.16087 10.5473Z" fill="#C4C4C4"/>
<path d="M11.3987 6.60306C12.2478 6.60306 12.9385 5.95939 12.9385 5.16824C12.9385 4.37706 12.2477 3.7334 11.3987 3.7334C10.5497 3.7334 9.85889 4.3771 9.85889 5.16824C9.85883 5.95943 10.5496 6.60306 11.3987 6.60306Z" fill="#C4C4C4"/>
<path d="M11.3988 6.99048C10.6286 6.99048 10.0042 7.5723 10.0042 8.29002V10.5473H8.77784C8.14785 10.5473 7.63714 11.0231 7.63714 11.6102V14.6472C7.63714 14.842 7.80655 14.9999 8.01559 14.9999H9.48478C9.69383 14.9999 9.86324 14.842 9.86324 14.6472V12.604H11.4545C12.194 12.604 12.7935 12.0454 12.7935 11.3563V8.28999C12.7935 7.5723 12.1691 6.99048 11.3988 6.99048Z" fill="#C4C4C4"/>
</svg>
