<svg width="40" height="16" viewBox="0 0 40 16" fill="none" xmlns="http://www.w3.org/2000/svg">
<path fill-rule="evenodd" clip-rule="evenodd" d="M6.25261 2.75228C6.86875 2.92061 7.48089 3.1037 8.08852 3.30139C8.14351 3.31864 8.19259 3.3513 8.23013 3.39563C8.26767 3.43996 8.29215 3.49415 8.30074 3.55197C8.65984 6.22012 7.83115 8.16731 6.8428 9.44969C6.34693 10.0933 5.80997 10.5698 5.36262 10.8827C5.13827 11.0388 4.94087 11.1525 4.78524 11.225C4.70708 11.2613 4.64375 11.286 4.59524 11.3003C4.57386 11.3073 4.55202 11.3128 4.52989 11.3168C4.52518 11.3161 4.50429 11.3134 4.46454 11.301C4.41603 11.286 4.3527 11.2613 4.27455 11.225C4.11959 11.1525 3.92084 11.0388 3.69717 10.8827C3.13621 10.4827 2.63729 9.99971 2.21699 9.44969C1.22863 8.16731 0.399948 6.22012 0.759044 3.55197C0.767639 3.49415 0.792112 3.43996 0.829653 3.39563C0.867194 3.3513 0.916279 3.31864 0.971268 3.30139C1.39302 3.16445 2.10448 2.94125 2.80717 2.75228C3.52537 2.55989 4.18629 2.41611 4.52989 2.41611C4.87349 2.41611 5.53375 2.55989 6.25261 2.75228ZM6.42509 2.0909C5.72239 1.90193 4.97657 1.73145 4.52989 1.73145C4.08389 1.73145 3.3374 1.90193 2.6347 2.0909C2.00793 2.26191 1.38524 2.44796 0.767129 2.6489C0.411401 2.76392 0.143258 3.07545 0.0913806 3.45954C-0.294665 6.33309 0.600718 8.4624 1.68609 9.87145C2.14862 10.4762 2.69774 11.007 3.31516 11.4462C3.52985 11.599 3.7568 11.7332 3.99361 11.8474C4.17551 11.9323 4.36955 12.0014 4.52989 12.0014C4.69024 12.0014 4.88427 11.9323 5.06618 11.8474C5.30304 11.7333 5.53 11.5991 5.74462 11.4462C6.36179 11.0069 6.91069 10.4761 7.37302 9.87145C8.45974 8.4624 9.35445 6.33309 8.9684 3.45954C8.94259 3.27336 8.86543 3.09842 8.74584 2.95495C8.62625 2.81149 8.46913 2.70538 8.29266 2.6489C7.67455 2.44797 7.05185 2.26191 6.42509 2.0909V2.0909Z" fill="#BBBBBB"/>
<path d="M4.53052 2.93042C3.9181 2.93042 2.38268 3.39942 1.66448 3.63015C1.54875 3.66621 1.4456 3.73523 1.36727 3.82903C1.28894 3.92283 1.23871 4.03748 1.22252 4.1594C0.674106 8.5577 4.00501 10.6309 4.53052 10.6309V2.93042Z" fill="#BBBBBB"/>
<g clip-path="url(#clip0)">
<path d="M10.268 2.34546C9.2673 2.34546 8.45605 3.16987 8.45605 4.18684C8.45605 5.20381 9.2673 6.02823 10.268 6.02823C11.2687 6.02823 12.08 5.20381 12.08 4.18684C12.08 3.16987 11.2687 2.34546 10.268 2.34546ZM10.28 2.98967L10.5655 3.89575L11.5014 3.91711L10.7416 4.47276L11.0108 5.38401L10.2559 4.82139L9.48634 5.36333L9.77963 4.45972L9.03468 3.88339L9.97096 3.88766L10.28 2.98967V2.98967Z" fill="#BBBBBB"/>
</g>
<path d="M14.5239 2.408H17.5479C18.0919 2.408 18.5879 2.524 19.0359 2.756C19.4839 2.98 19.8359 3.3 20.0919 3.716C20.3479 4.124 20.4759 4.592 20.4759 5.12C20.4759 5.648 20.3479 6.12 20.0919 6.536C19.8359 6.952 19.4839 7.276 19.0359 7.508C18.5879 7.732 18.0919 7.844 17.5479 7.844H16.1439V11H14.5239V2.408ZM17.5959 6.308C17.9959 6.308 18.3079 6.192 18.5319 5.96C18.7639 5.728 18.8799 5.448 18.8799 5.12C18.8799 4.792 18.7639 4.516 18.5319 4.292C18.3079 4.06 17.9959 3.944 17.5959 3.944H16.1439V6.308H17.5959ZM23.4164 2.408H25.2764L28.5044 11H26.7164L25.9964 8.948H22.7084L21.9884 11H20.2004L23.4164 2.408ZM25.4684 7.46L24.7124 5.3L24.4004 4.268H24.3044L23.9924 5.3L23.2244 7.46H25.4684ZM30.733 7.004L27.841 2.408H29.773L31.489 5.252H31.585L33.241 2.408H35.197L32.353 7.004V11H30.733V7.004Z" fill="#BBBBBB"/>
<defs>
<clipPath id="clip0">
<rect width="3.62392" height="3.68277" fill="white" transform="translate(8.45605 2.34546)"/>
</clipPath>
</defs>
</svg>
