<svg width="65" height="18" viewBox="0 0 65 18" fill="none" xmlns="http://www.w3.org/2000/svg">
<path d="M9.73408 8.19681L10.8227 5.6263C10.8994 5.44407 10.9825 5.26183 11.0529 5.08119C11.1239 4.87352 11.237 4.6827 11.385 4.52062C11.533 4.35855 11.7127 4.22868 11.9131 4.13913C12.1135 4.04957 12.3302 4.00224 12.5497 4.00008C12.7691 3.99792 12.9867 4.04098 13.1888 4.12657C13.3909 4.21217 13.5732 4.33846 13.7244 4.4976C13.8756 4.65673 13.9924 4.84528 14.0674 5.05152C14.1426 5.25775 14.1744 5.47724 14.161 5.69631C14.1475 5.91539 14.0891 6.12935 13.9894 6.32487C13.4044 7.722 12.8097 9.11436 12.2198 10.5179C11.8873 11.3023 11.5564 12.0882 11.2271 12.8758C11.1127 13.1801 10.9081 13.4423 10.6408 13.6274C10.3735 13.8125 10.056 13.9117 9.73086 13.9117C9.40569 13.9117 9.08827 13.8125 8.82093 13.6274C8.5536 13.4423 8.34907 13.1801 8.23459 12.8758L6.99571 9.92802C6.97496 9.8785 6.95094 9.82892 6.91261 9.7474C6.86625 9.84972 6.83109 9.92163 6.80068 9.99518C6.39467 10.9671 5.98544 11.9438 5.565 12.9158C5.49408 13.1245 5.38075 13.3163 5.23213 13.4791C5.08352 13.642 4.90283 13.7723 4.70143 13.8619C4.50003 13.9515 4.28227 13.9986 4.06182 14C3.84137 14.0014 3.62302 13.9572 3.42046 13.8702C3.21792 13.7832 3.03555 13.6552 2.88484 13.4943C2.73412 13.3335 2.6183 13.1432 2.54467 12.9354C2.47104 12.7276 2.44118 12.5068 2.45697 12.287C2.47276 12.067 2.53386 11.8528 2.63643 11.6577C3.16928 10.3789 3.70694 9.10639 4.24938 7.84032C4.63624 6.91794 5.02149 5.99397 5.41793 5.08279C5.52225 4.82949 5.68933 4.60693 5.90347 4.4361C6.11767 4.26527 6.37177 4.15179 6.64188 4.10637C6.91204 4.06094 7.18933 4.08507 7.44756 4.17647C7.7058 4.26788 7.9365 4.42354 8.11791 4.6288C8.25274 4.78943 8.36071 4.97082 8.4376 5.16592C8.85485 6.12505 9.25928 7.09857 9.66851 8.06413C9.68609 8.09448 9.70367 8.12965 9.73408 8.19681Z" fill="#C4C4C4"/>
<path d="M1.83406 9.51723C1.47758 8.90014 1.14029 8.30871 0.799792 7.72045C0.639933 7.43909 0.462494 7.1609 0.296243 6.88437C-0.0938073 6.22736 -0.108194 5.56236 0.309031 4.92293C0.485703 4.6257 0.748309 4.389 1.06223 4.24403C1.37614 4.09905 1.72662 4.05262 2.06745 4.11086C2.427 4.14608 2.76664 4.29248 3.03911 4.52971C3.31158 4.76694 3.50333 5.08319 3.58769 5.43447C3.65716 5.66778 3.67655 5.91314 3.64459 6.15446C3.61263 6.39578 3.53005 6.62763 3.40225 6.83482C2.91523 7.67782 2.42553 8.52025 1.93318 9.36217C1.9076 9.39892 1.88042 9.4421 1.83406 9.51723Z" fill="#C4C4C4"/>
<path d="M23.0459 14.224C22.2152 14.224 21.4686 13.9813 20.8059 13.496C20.1432 13.0107 19.6859 12.3293 19.4339 11.452L20.9179 10.85C21.0672 11.4007 21.3286 11.8533 21.7019 12.208C22.0846 12.5533 22.5419 12.726 23.0739 12.726C23.5686 12.726 23.9886 12.6 24.3339 12.348C24.6792 12.0867 24.8519 11.732 24.8519 11.284C24.8519 10.8733 24.6979 10.5373 24.3899 10.276C24.0912 10.0053 23.5639 9.73467 22.8079 9.464L22.1779 9.24C21.5059 9.00667 20.9412 8.67067 20.4839 8.232C20.0266 7.79333 19.7979 7.21467 19.7979 6.496C19.7979 6.00133 19.9332 5.544 20.2039 5.124C20.4746 4.704 20.8479 4.37267 21.3239 4.13C21.8092 3.878 22.3552 3.752 22.9619 3.752C23.8392 3.752 24.5392 3.96667 25.0619 4.396C25.5846 4.816 25.9346 5.292 26.1119 5.824L24.6979 6.426C24.5952 6.10867 24.3992 5.82867 24.1099 5.586C23.8206 5.34333 23.4472 5.222 22.9899 5.222C22.5326 5.222 22.1452 5.33867 21.8279 5.572C21.5199 5.80533 21.3659 6.104 21.3659 6.468C21.3659 6.81333 21.5059 7.098 21.7859 7.322C22.0659 7.546 22.5046 7.76067 23.1019 7.966L23.7319 8.176C24.5906 8.47467 25.2532 8.86667 25.7199 9.352C26.1959 9.828 26.4339 10.4673 26.4339 11.27C26.4339 11.9233 26.2659 12.474 25.9299 12.922C25.5939 13.3607 25.1646 13.6873 24.6419 13.902C24.1286 14.1167 23.5966 14.224 23.0459 14.224ZM31.322 14.224C30.6033 14.224 29.9593 14.0607 29.39 13.734C28.8207 13.398 28.3773 12.9407 28.06 12.362C27.7427 11.7833 27.584 11.1393 27.584 10.43C27.584 9.72067 27.7427 9.07667 28.06 8.498C28.3773 7.91933 28.8207 7.46667 29.39 7.14C29.9593 6.804 30.6033 6.636 31.322 6.636C32.0407 6.636 32.6847 6.804 33.254 7.14C33.8233 7.476 34.2667 7.93333 34.584 8.512C34.9013 9.09067 35.06 9.73 35.06 10.43C35.06 11.1393 34.9013 11.7833 34.584 12.362C34.2667 12.9407 33.8233 13.398 33.254 13.734C32.6847 14.0607 32.0407 14.224 31.322 14.224ZM31.322 12.81C31.714 12.81 32.078 12.7167 32.414 12.53C32.75 12.334 33.016 12.0587 33.212 11.704C33.4173 11.34 33.52 10.9153 33.52 10.43C33.52 9.94467 33.4173 9.52467 33.212 9.17C33.016 8.81533 32.75 8.54467 32.414 8.358C32.078 8.162 31.714 8.064 31.322 8.064C30.93 8.064 30.566 8.162 30.23 8.358C29.894 8.54467 29.6233 8.81533 29.418 9.17C29.222 9.52467 29.124 9.94467 29.124 10.43C29.124 10.9153 29.222 11.34 29.418 11.704C29.6233 12.0587 29.894 12.334 30.23 12.53C30.566 12.7167 30.93 12.81 31.322 12.81ZM39.7839 14.224C39.0746 14.224 38.4352 14.0607 37.8659 13.734C37.3059 13.4073 36.8672 12.9593 36.5499 12.39C36.2419 11.8113 36.0879 11.158 36.0879 10.43C36.0879 9.702 36.2419 9.05333 36.5499 8.484C36.8672 7.90533 37.3059 7.45267 37.8659 7.126C38.4352 6.79933 39.0746 6.636 39.7839 6.636C40.5679 6.636 41.2352 6.81333 41.7859 7.168C42.3366 7.52267 42.7286 8.00333 42.9619 8.61L41.5479 9.198C41.2306 8.442 40.6286 8.064 39.7419 8.064C39.3592 8.064 39.0046 8.162 38.6779 8.358C38.3606 8.554 38.1039 8.834 37.9079 9.198C37.7212 9.55267 37.6279 9.96333 37.6279 10.43C37.6279 10.8967 37.7212 11.312 37.9079 11.676C38.1039 12.04 38.3606 12.32 38.6779 12.516C39.0046 12.712 39.3592 12.81 39.7419 12.81C40.1899 12.81 40.5726 12.712 40.8899 12.516C41.2166 12.3107 41.4639 12.0213 41.6319 11.648L43.0179 12.25C42.7472 12.8567 42.3366 13.3373 41.7859 13.692C41.2352 14.0467 40.5679 14.224 39.7839 14.224ZM45.2095 5.824C44.9202 5.824 44.6729 5.726 44.4675 5.53C44.2715 5.32467 44.1735 5.07733 44.1735 4.788C44.1735 4.49867 44.2715 4.256 44.4675 4.06C44.6729 3.85467 44.9202 3.752 45.2095 3.752C45.4989 3.752 45.7415 3.85467 45.9375 4.06C46.1429 4.256 46.2455 4.49867 46.2455 4.788C46.2455 5.07733 46.1429 5.32467 45.9375 5.53C45.7415 5.726 45.4989 5.824 45.2095 5.824ZM44.4395 6.86H45.9795V14H44.4395V6.86ZM50.0675 14.224C49.5542 14.224 49.0969 14.126 48.6955 13.93C48.2942 13.7247 47.9815 13.44 47.7575 13.076C47.5335 12.7027 47.4215 12.2827 47.4215 11.816C47.4215 11.0787 47.6969 10.4953 48.2475 10.066C48.8075 9.63667 49.5122 9.422 50.3615 9.422C50.7815 9.422 51.1595 9.464 51.4955 9.548C51.8315 9.62267 52.0975 9.70667 52.2935 9.8V9.436C52.2935 8.99733 52.1302 8.64267 51.8035 8.372C51.4769 8.092 51.0569 7.952 50.5435 7.952C50.1795 7.952 49.8342 8.03133 49.5075 8.19C49.1902 8.34867 48.9335 8.568 48.7375 8.848L47.6595 8.022C47.9769 7.58333 48.3875 7.24267 48.8915 7C49.3955 6.75733 49.9555 6.636 50.5715 6.636C51.6075 6.636 52.4055 6.89267 52.9655 7.406C53.5255 7.91 53.8055 8.624 53.8055 9.548V14H52.2935V13.146H52.2235C52.0182 13.454 51.7289 13.7107 51.3555 13.916C50.9822 14.1213 50.5529 14.224 50.0675 14.224ZM50.3335 12.95C50.7069 12.95 51.0429 12.8613 51.3415 12.684C51.6402 12.5067 51.8735 12.2687 52.0415 11.97C52.2095 11.6713 52.2935 11.3493 52.2935 11.004C52.0789 10.8827 51.8269 10.7847 51.5375 10.71C51.2575 10.6353 50.9635 10.598 50.6555 10.598C50.0769 10.598 49.6522 10.7147 49.3815 10.948C49.1109 11.172 48.9755 11.466 48.9755 11.83C48.9755 12.1567 49.1015 12.4273 49.3535 12.642C49.6055 12.8473 49.9322 12.95 50.3335 12.95ZM55.4838 3.976H57.0238V14H55.4838V3.976ZM61.369 14.224C60.5477 14.224 59.8757 14.0467 59.353 13.692C58.8304 13.328 58.4617 12.866 58.247 12.306L59.619 11.704C59.787 12.0773 60.0204 12.362 60.319 12.558C60.627 12.754 60.977 12.852 61.369 12.852C61.7517 12.852 62.0737 12.7867 62.335 12.656C62.5964 12.516 62.727 12.3107 62.727 12.04C62.727 11.7787 62.615 11.5733 62.391 11.424C62.167 11.2747 61.8217 11.144 61.355 11.032L60.501 10.822C59.9317 10.682 59.4604 10.4347 59.087 10.08C58.7137 9.72533 58.527 9.27733 58.527 8.736C58.527 8.316 58.6484 7.94733 58.891 7.63C59.143 7.31267 59.479 7.07 59.899 6.902C60.319 6.72467 60.7764 6.636 61.271 6.636C61.9337 6.636 62.517 6.77133 63.021 7.042C63.525 7.30333 63.889 7.686 64.113 8.19L62.769 8.778C62.4984 8.22733 62.0037 7.952 61.285 7.952C60.9397 7.952 60.6504 8.022 60.417 8.162C60.1837 8.302 60.067 8.484 60.067 8.708C60.067 8.92267 60.1557 9.1 60.333 9.24C60.5104 9.37067 60.7717 9.48267 61.117 9.576L62.167 9.842C62.867 10.0193 63.3944 10.29 63.749 10.654C64.113 11.0087 64.295 11.4473 64.295 11.97C64.295 12.418 64.1644 12.8147 63.903 13.16C63.651 13.496 63.301 13.7573 62.853 13.944C62.405 14.1307 61.9104 14.224 61.369 14.224Z" fill="#C4C4C4"/>
</svg>
